<?xml version="1.0" standalone="no"?>
<!DOCTYPE svg PUBLIC "-//W3C//DTD SVG 1.1//EN" "http://www.w3.org/Graphics/SVG/1.1/DTD/svg11.dtd" >
<svg xmlns="http://www.w3.org/2000/svg" xmlns:xlink="http://www.w3.org/1999/xlink" version="1.1">
<metadata>
Created by FontForge 20170731 at Fri Jan  1 02:30:17 1904
 By Aleksey,,,
Jorge Cisterna
</metadata>
<defs>
<font id="DecourSoft-Light" horiz-adv-x="0" >
  <font-face 
    font-family="Decour Soft"
    font-weight="400"
    font-stretch="normal"
    units-per-em="1000"
    panose-1="0 0 4 0 0 0 0 0 0 0"
    ascent="787"
    descent="-213"
    x-height="440"
    cap-height="730"
    bbox="-396 -224.029 1344 948"
    underline-thickness="50"
    underline-position="-150"
    unicode-range="U+0020-FB02"
  />
<missing-glyph horiz-adv-x="243" 
 />
    <glyph glyph-name="fi" unicode="fi" horiz-adv-x="630" 
d="M34 36q0 13 13 13h80v341h-64q-13 0 -13 13v24q0 13 13 13h64v141q0 158 151 158q25 0 55 -7q20 -5 14 -25l-2 -9q-3 -19 -24 -14q-23 5 -44 5q-43 0 -66.5 -25.5t-23.5 -74.5v-149h107q13 0 13 -13v-24q0 -13 -13 -13h-107v-341h84q13 0 13 -13v-23q0 -13 -13 -13h-224
q-13 0 -13 13v23zM436 591q0 18 12.5 30t31.5 12q20 0 33 -12t13 -30t-13 -30t-33 -12q-19 0 -31.5 12t-12.5 30zM370 36q0 13 13 13h81v342h-81q-13 0 -13 13v23q0 13 13 13h108q33 0 33 -31v-360h77q13 0 13 -13v-23q0 -13 -13 -13h-218q-13 0 -13 13v23z" />
    <glyph glyph-name="fl" unicode="fl" horiz-adv-x="612" 
d="M34 36q0 13 13 13h80v341h-64q-13 0 -13 13v24q0 13 13 13h64v141q0 158 151 158q25 0 55 -7q20 -5 14 -25l-2 -9q-3 -19 -24 -14q-23 5 -44 5q-43 0 -66.5 -25.5t-23.5 -74.5v-149h107q13 0 13 -13v-24q0 -13 -13 -13h-107v-341h84q13 0 13 -13v-23q0 -13 -13 -13h-224
q-13 0 -13 13v23zM349 36q0 13 13 13h82v635h-64q-13 0 -13 12v23q0 13 13 13h90q33 0 33 -29v-654h76q12 0 12 -13v-23q0 -13 -12 -13h-217q-13 0 -13 13v23z" />
    <glyph glyph-name=".notdef" horiz-adv-x="243" 
 />
    <glyph glyph-name=".null" 
 />
    <glyph glyph-name="nonmarkingreturn" horiz-adv-x="333" 
 />
    <glyph glyph-name="space" unicode=" " horiz-adv-x="243" 
 />
    <glyph glyph-name="exclam" unicode="!" horiz-adv-x="230" 
d="M105 182q-13 0 -13 13l-8 522q0 13 13 13h35q13 0 13 -13l-7 -522q0 -13 -13 -13h-20zM116 -10q-19 0 -33 14.5t-14 34.5q0 18 14 32t33 14q21 0 35.5 -14t14.5 -32q0 -20 -14.5 -34.5t-35.5 -14.5z" />
    <glyph glyph-name="quotedbl" unicode="&#x22;" horiz-adv-x="315" 
d="M80 549q-12 0 -13 12l-11 169q-1 13 12 13h49q14 0 13 -13l-11 -169q-1 -12 -14 -12h-25zM210 549q-12 0 -14 12l-11 169q-1 13 12 13h50q13 0 12 -13l-11 -168q0 -13 -13 -13h-25z" />
    <glyph glyph-name="numbersign" unicode="#" horiz-adv-x="629" 
d="M130 0q-14 0 -11 14l36 170h-104q-13 0 -12 14l5 24q2 11 14 11h106l43 197h-105q-13 0 -12 13l5 25q2 11 14 11h108l38 169q4 11 14 11h25q14 0 11 -15l-36 -165h154l37 169q4 11 14 11h28q14 0 11 -15l-36 -165h100q14 0 11 -13l-3 -24q-1 -12 -14 -12h-104l-43 -197
h101q15 0 12 -13l-4 -24q-3 -12 -15 -12h-104l-37 -173q-3 -11 -14 -11h-28q-14 0 -11 14l37 170h-154l-38 -173q-2 -11 -14 -11h-25zM216 233h154l44 197h-154z" />
    <glyph glyph-name="dollar" unicode="$" horiz-adv-x="501" 
d="M455 208q0 -71 -47 -114t-133 -50v-60q0 -12 -13 -12h-41q-13 0 -13 12v60q-65 6 -107.5 31.5t-42.5 63.5v65q0 13 13 13h32q13 0 13 -13v-76q49 -31 128 -31q70 0 109.5 27t39.5 82q0 42 -18.5 71t-48 44.5t-65.5 27.5t-72 25.5t-65.5 32.5t-48 53t-18.5 83q0 60 43 103
t120 50v61q0 13 12 13h40q13 0 13 -13v-62q65 -5 104 -27t39 -55v-62q0 -13 -12 -13h-33q-13 0 -13 13v66q-48 26 -124 26q-59 0 -92.5 -27.5t-33.5 -72.5q0 -43 25 -72.5t62 -42.5t80.5 -30t80.5 -35t62 -57.5t25 -97.5z" />
    <glyph glyph-name="percent" unicode="%" horiz-adv-x="700" 
d="M77 18q-9 -12 3 -18l19 -10q9 -5 17 5l505 644q8 12 -4 18l-19 10q-9 6 -16 -4zM187 668q-64 0 -99 -43t-35 -122t35 -122.5t99 -43.5t99 43t35 123q0 79 -34.5 122t-99.5 43zM187 623q40 0 61 -31t21 -89q0 -59 -21 -90t-61 -31q-39 0 -60.5 31.5t-21.5 89.5t21.5 89
t60.5 31zM511 321q-65 0 -100 -43t-35 -122t35 -122.5t99 -43.5t99 43t35 123q0 79 -34.5 122t-98.5 43zM510 276q40 0 61 -31t21 -89q0 -59 -21 -90t-61 -31q-39 0 -60 31.5t-21 89.5t21 89t60 31z" />
    <glyph glyph-name="ampersand" unicode="&#x26;" horiz-adv-x="708" 
d="M313 672q70 0 107 -34.5t36 -98.5q-2 -119 -165 -201l162 -178q36 40 81 115h-57q-13 0 -13 13v23q0 13 13 13h182q13 0 13 -13v-23q0 -13 -13 -13h-65q-64 -107 -105 -155l81 -71h88q13 0 13 -13v-23q0 -13 -13 -13h-76q-41 0 -73 28l-55 48q-86 -86 -194 -86
q-95 0 -145 43.5t-50 127.5q0 56 40 107.5t112 88.5q-58 78 -58 155q0 78 39 119t115 41zM313 622q-98 0 -98 -108q0 -64 52 -134q132 81 133 156q1 42 -21.5 64t-65.5 22zM241 313q-56 -27 -87.5 -66.5t-31.5 -84.5q0 -121 137 -121q92 0 159 75z" />
    <glyph glyph-name="quotesingle" unicode="'" horiz-adv-x="186" 
d="M80 549q-12 0 -13 12l-11 169q-1 13 12 13h49q14 0 13 -13l-11 -169q-1 -12 -14 -12h-25z" />
    <glyph glyph-name="parenleft" unicode="(" horiz-adv-x="356" 
d="M297 -218q-120 89 -185 214t-65 261q0 138 63 261.5t187 214.5q15 12 29 -3l6 -6q15 -16 -2 -30q-114 -89 -170 -203t-56 -234q0 -119 57.5 -236.5t166.5 -199.5q19 -14 4 -30l-6 -6q-14 -15 -29 -3z" />
    <glyph glyph-name="parenright" unicode=")" horiz-adv-x="357" 
d="M58 -218q-15 -12 -28 2l-7 8q-12 16 4 29q110 81 168 198.5t58 237.5t-56.5 234t-170.5 204q-16 12 -3 28l7 8q12 14 28 3q125 -92 188.5 -215.5t63.5 -261.5q0 -136 -65.5 -261t-186.5 -214z" />
    <glyph glyph-name="asterisk" unicode="*" horiz-adv-x="358" 
d="M293 625q13 3 9 15l-8 25q-4 14 -17 9l-79 -30l6 76q2 14 -12 14h-28q-12 0 -12 -14l6 -76l-78 30q-12 4 -17 -8l-8 -25q-3 -13 9 -16l81 -21l-52 -59q-9 -9 1 -18l20 -14q10 -9 18 2l47 63l47 -63q8 -11 18 -2l19 14q10 9 2 18l-53 59z" />
    <glyph glyph-name="plus" unicode="+" horiz-adv-x="486" 
d="M419 307q13 0 13 13v26q0 13 -13 13h-149v117q0 13 -13 13h-30q-13 0 -13 -13v-117h-148q-13 0 -13 -13v-26q0 -13 13 -13h148v-118q0 -12 13 -12h30q13 0 13 12v118h149z" />
    <glyph glyph-name="comma" unicode="," horiz-adv-x="225" 
d="M166 24q0 26 -15 42.5t-39 16.5q-23 0 -37 -14t-14 -35q0 -19 15 -32.5t36 -13.5q-7 -34 -44 -52q-12 -8 -5 -18l4 -7q9 -9 23 -3q76 42 76 116z" />
    <glyph glyph-name="hyphen" unicode="-" horiz-adv-x="363" 
d="M277 229q20 0 20 20v16q0 20 -20 20h-191q-19 0 -19 -20v-16q0 -20 19 -20h191z" />
    <glyph glyph-name="period" unicode="." horiz-adv-x="169" 
d="M84 -10q-20 0 -34 14.5t-14 34.5q0 18 14 31.5t34 13.5t34.5 -13.5t14.5 -31.5q0 -20 -14.5 -34.5t-34.5 -14.5z" />
    <glyph glyph-name="slash" unicode="/" horiz-adv-x="358" 
d="M320 719q1 6 -2 10t-9 4h-30q-11 0 -14 -11l-227 -924q-1 -6 2 -10t9 -4h30q12 0 14 11z" />
    <glyph glyph-name="zero" unicode="0" horiz-adv-x="635" 
d="M319 740q132 0 192 -89t60 -291q0 -196 -61 -283t-194 -87q-132 0 -192 87t-60 283q0 202 60.5 291t194.5 89zM318 685q-99 0 -145 -76.5t-46 -248.5q0 -166 46 -240.5t145 -74.5q98 0 143.5 74.5t45.5 240.5q0 172 -45.5 248.5t-143.5 76.5z" />
    <glyph glyph-name="one" unicode="1" horiz-adv-x="454" 
d="M50 36q0 13 12 13h149v616l-136 -35q-24 -6 -24 18v15q0 18 18 24l153 41q5 2 15 2h17q18 0 18 -19v-662h149q13 0 13 -13v-23q0 -13 -13 -13h-359q-12 0 -12 13v23z" />
    <glyph glyph-name="two" unicode="2" horiz-adv-x="556" 
d="M498 155q13 0 13 -13v-121q0 -21 -21 -21h-404q-21 0 -21 21v10q0 8 5 15l227 260q5 6 23 26.5t23 26.5l20 24t19.5 26.5t15.5 25t14.5 28t9 27.5t7.5 31.5t2 32.5q0 131 -152 131q-88 -2 -144 -49l1 -70q0 -13 -13 -13h-32q-12 0 -12 13v55q0 48 56.5 83.5t143.5 35.5
q97 0 153.5 -46.5t56.5 -138.5q0 -40 -9.5 -74.5t-33.5 -71.5t-44 -61.5t-61 -71.5l-198 -227h309v93q0 13 13 13h33z" />
    <glyph glyph-name="three" unicode="3" horiz-adv-x="549" 
d="M250 740q210 0 210 -186q0 -66 -40.5 -112.5t-115.5 -65.5q78 -9 132.5 -54.5t54.5 -126.5q0 -98 -66 -151.5t-183 -53.5q-101 0 -179 37q-18 10 -10 28l6 16q9 18 29 9q71 -36 159 -36q86 0 133 39.5t47 112.5t-58 112.5t-142 39.5h-15q-12 0 -12 13v26q0 12 12 12
q14 1 46 4q66 14 105.5 51.5t39.5 99.5q0 65 -39.5 98.5t-113.5 33.5q-84 0 -130 -36v-74q0 -13 -13 -13h-31q-13 0 -13 13v53q0 47 47.5 79t139.5 32z" />
    <glyph glyph-name="four" unicode="4" horiz-adv-x="557" 
d="M505 241q13 0 13 -13v-28q0 -13 -13 -13h-83v-174q0 -13 -13 -13h-33q-12 0 -12 13v174h-323q-21 0 -21 21v13q0 8 4 15l296 479q9 15 25 15h56q21 0 21 -21v-468h83zM88 240h278l-1 438z" />
    <glyph glyph-name="five" unicode="5" horiz-adv-x="558" 
d="M455 730q13 0 13 -13v-27q0 -13 -13 -13h-294l-22 -278q69 51 166 51q200 0 200 -230q0 -112 -60 -171t-170 -59q-100 0 -158 27.5t-58 76.5v49q0 13 13 13l34 -1q12 0 12 -13v-64q50 -34 159 -34q78 0 121.5 45.5t43.5 129.5q0 90 -36.5 133.5t-111.5 43.5
q-88 0 -149 -49q-6 -5 -15 -5h-19q-33 0 -30 35l26 333q2 20 21 20h327z" />
    <glyph glyph-name="six" unicode="6" horiz-adv-x="578" 
d="M322 740q79 0 142 -26q21 -9 11 -28l-5 -11q-9 -18 -27 -10q-55 21 -122 21q-92 0 -143 -86.5t-51 -218.5q83 65 190 65q100 1 156 -53.5t56 -161.5q0 -120 -59 -180.5t-168 -60.5q-130 0 -185 80.5t-54 264.5q3 405 259 405zM308 392q-102 0 -181 -66
q0 -153 40.5 -217.5t136.5 -64.5q76 0 119 45.5t43 133.5q0 169 -158 169z" />
    <glyph glyph-name="seven" unicode="7" horiz-adv-x="524" 
d="M435 675h-344v-83q0 -12 -13 -12h-31q-13 0 -13 12v117q0 21 21 21h418q21 0 21 -21v-25q0 -4 -2 -14l-281 -660q-4 -10 -15 -10h-23q-12 0 -16.5 6.5t-0.5 17.5z" />
    <glyph glyph-name="eight" unicode="8" horiz-adv-x="578" 
d="M293 740q102 0 157.5 -46t55.5 -130q0 -119 -155 -190q91 -41 134 -88t43 -113q0 -88 -61.5 -135.5t-174.5 -47.5q-116 0 -179 48t-63 136q0 121 181 193q-159 79 -159 197q0 85 57.5 130.5t163.5 45.5zM292 685q-76 0 -117.5 -31.5t-41.5 -90.5q0 -50 42 -90t126 -76
q73 34 108.5 73.5t35.5 92.5q0 59 -39.5 90.5t-113.5 31.5zM278 344q-164 -75 -164 -169q0 -63 46 -97t132 -34q83 0 127.5 33.5t44.5 96.5q0 54 -44 91.5t-142 78.5z" />
    <glyph glyph-name="nine" unicode="9" horiz-adv-x="572" 
d="M271 740q57 0 96.5 -13.5t73 -49.5t50.5 -107t17 -178q0 -156 -28 -245.5t-78.5 -123t-134.5 -33.5q-87 0 -155 28q-19 7 -11 28l6 14q8 20 28 10q61 -26 133 -26q90 0 133 63t43 227q-30 -26 -78 -42t-96 -17q-220 0 -220 225q0 117 56 178.5t165 61.5zM270 686
q-158 0 -158 -178q2 -182 158 -182q96 0 174 65q2 160 -41.5 227.5t-132.5 67.5z" />
    <glyph glyph-name="colon" unicode=":" horiz-adv-x="238" 
d="M118 293q-19 0 -33 14.5t-14 34.5q0 18 14 32t33 14q20 0 34.5 -14t14.5 -32q0 -20 -14.5 -34.5t-34.5 -14.5zM118 -10q-19 0 -33 14.5t-14 34.5q0 18 14 31.5t33 13.5q20 0 34.5 -13.5t14.5 -31.5q0 -20 -14.5 -34.5t-34.5 -14.5z" />
    <glyph glyph-name="semicolon" unicode=";" horiz-adv-x="256" 
d="M130 294q-20 0 -34 14t-14 34q0 18 14.5 32t33.5 14q20 0 34 -14t14 -32q0 -20 -14 -34t-34 -14zM101 -94q-11 -4 -18 5l-5 8q-7 10 6 18q38 21 44 51q-21 0 -36 13.5t-15 32.5q0 21 14 35t37 14q24 0 39 -16.5t15 -42.5q0 -78 -81 -118z" />
    <glyph glyph-name="less" unicode="&#x3c;" horiz-adv-x="463" 
d="M347 562q9 7 18 -2l20 -19q10 -10 -1 -18l-264 -190l264 -190q11 -8 1 -18l-20 -21q-9 -9 -18 -1l-285 209q-10 8 -10 21t10 20z" />
    <glyph glyph-name="equal" unicode="=" horiz-adv-x="422" 
d="M349 389q0 -13 -12 -13h-252q-13 0 -13 13v25q0 13 13 13h252q12 0 12 -13v-25zM349 252q0 -13 -12 -13h-252q-13 0 -13 13v26q0 13 13 13h252q12 0 12 -13v-26z" />
    <glyph glyph-name="greater" unicode="&#x3e;" horiz-adv-x="459" 
d="M116 562l285 -209q11 -7 11 -20t-11 -21l-285 -209q-9 -8 -18 1l-20 21q-10 10 1 18l264 190l-264 190q-11 8 -1 18l20 19q9 9 18 2z" />
    <glyph glyph-name="question" unicode="?" horiz-adv-x="477" 
d="M231 739q100 0 153.5 -46t53.5 -133q0 -45 -19.5 -84.5t-48 -68t-57 -55t-48.5 -58t-21 -64.5l-1 -53q0 -13 -13 -13h-35q-13 0 -13 13l1 54q1 36 21.5 70t49.5 62t58 56.5t49.5 64.5t20.5 76q0 60 -39.5 92.5t-110.5 32.5q-86 0 -137 -35v-82q0 -13 -13 -13h-31
q-13 0 -13 13v63q0 42 50.5 75t142.5 33zM213 -10q-19 0 -33.5 14t-14.5 34q0 19 14 32.5t34 13.5q21 0 35 -13.5t14 -32.5q0 -20 -14 -34t-35 -14z" />
    <glyph glyph-name="at" unicode="@" horiz-adv-x="727" 
d="M379 609q141 0 222 -83t80 -198q0 -31 -6 -60.5t-20 -58.5t-41.5 -47t-66.5 -18q-61 0 -89 54q-14 -23 -43 -36.5t-65 -13.5q-47 0 -75.5 24t-28.5 64q0 38 29.5 61t79.5 23h86v11q0 62 -75 62q-36 0 -73 -17q-12 -5 -17 5l-8 15q-8 12 5 17q50 25 96 25q59 0 91 -27.5
t32 -77.5v-79q0 -31 15 -48.5t43 -17.5q78 0 78 135q0 95 -67.5 165.5t-182.5 70.5q-120 0 -193 -77.5t-73 -185.5q0 -111 75 -183.5t209 -72.5q60 0 123 22q14 7 16 -8l5 -26q3 -13 -9 -17q-73 -22 -135 -22q-151 0 -244.5 82.5t-93.5 224.5q0 128 87.5 220.5t233.5 92.5z
M441 283h-82q-63 0 -63 -46q0 -47 66 -47q55 0 79 45v48z" />
    <glyph glyph-name="A" unicode="A" horiz-adv-x="724" 
d="M712 49q17 0 17 -17v-16q0 -16 -17 -16h-204q-17 0 -17 16v16q0 17 17 17h78l-56 156h-340l-57 -156h83q16 0 16 -17v-16q0 -16 -16 -16h-205q-16 0 -16 16v16q0 17 16 17h63l245 665q6 16 23 16h38q18 0 24 -16l246 -665h62zM208 255h303l-151 418z" />
    <glyph glyph-name="B" unicode="B" horiz-adv-x="691" 
d="M54 714q0 16 16 16h303q232 0 232 -182q0 -65 -36.5 -108t-95.5 -57q80 -6 129.5 -51.5t49.5 -134.5q0 -99 -62.5 -148t-176.5 -49h-343q-16 0 -16 16v16q0 17 16 17h76v632h-76q-16 0 -16 17v16zM206 681v-280h171q69 0 117 40t48 107q0 133 -167 133h-169zM206 351
v-302h216q82 0 124 37t42 118q0 71 -54 110t-137 38z" />
    <glyph glyph-name="C" unicode="C" horiz-adv-x="668" 
d="M563 648q-50 38 -178 38q-126 0 -195 -84t-69 -237q0 -154 68 -237.5t193 -83.5q132 0 182 41v52q0 17 17 17h23q16 0 16 -17v-42q0 -43 -63 -74t-177 -31q-155 0 -238.5 97.5t-83.5 277.5t85.5 277.5t241.5 97.5q114 0 174.5 -31t60.5 -70v-73q0 -16 -16 -16h-25
q-16 0 -16 16v82z" />
    <glyph glyph-name="D" unicode="D" horiz-adv-x="759" 
d="M54 714q0 16 16 16h236q202 0 298 -88.5t96 -274.5q0 -367 -381 -367h-249q-16 0 -16 16v16q0 17 16 17h75v632h-75q-16 0 -16 17v16zM638 367q0 161 -80 237.5t-248 76.5h-104v-632h112q320 2 320 318z" />
    <glyph glyph-name="E" unicode="E" horiz-adv-x="650" 
d="M537 681h-330v-303h300q16 0 16 -17v-17q0 -16 -16 -16h-300v-279h346v48q0 16 16 16h19q16 0 16 -16v-69q0 -28 -28 -28h-506q-16 0 -16 16v16q0 17 16 17h76v632h-76q-16 0 -16 17v16q0 16 16 16h496q28 0 28 -28v-90q0 -16 -16 -16h-24q-17 0 -17 16v69z" />
    <glyph glyph-name="F" unicode="F" horiz-adv-x="651" 
d="M560 681h-353v-299h280q19 0 19 -20v-13q0 -20 -19 -20h-280v-283h114q19 0 19 -19v-7q0 -20 -19 -20h-247q-20 0 -20 20v7q0 19 20 19h72v635h-72q-20 0 -20 20v9q0 20 20 20h515q28 0 28 -28v-90q0 -19 -20 -19h-17q-20 0 -20 19v69z" />
    <glyph glyph-name="G" unicode="G" horiz-adv-x="668" 
d="M379 740q115 0 173 -32t58 -70v-67q0 -20 -20 -20h-17q-19 0 -19 20v79q-59 36 -173 36q-122 0 -191 -87.5t-69 -233.5t66 -233.5t182 -87.5q115 0 191 35v197h-118q-20 0 -20 20v15q0 20 20 20h151q27 0 27 -28v-229q0 -24 -19 -34q-91 -50 -230 -50q-147 0 -230 101.5
t-83 273.5t85 273.5t236 101.5z" />
    <glyph glyph-name="H" unicode="H" horiz-adv-x="845" 
d="M698 681v-632h82q13 0 13 -13v-23q0 -13 -13 -13h-227q-13 0 -13 13v23q0 13 13 13h84v288h-431v-288h83q13 0 13 -13v-23q0 -13 -13 -13h-222q-13 0 -13 13v23q0 13 13 13h79v632h-79q-13 0 -13 13v23q0 13 13 13h222q13 0 13 -13v-23q0 -13 -13 -13h-83v-292h431v292
h-84q-13 0 -13 13v23q0 13 13 13h227q13 0 13 -13v-23q0 -13 -13 -13h-82z" />
    <glyph glyph-name="I" unicode="I" horiz-adv-x="362" 
d="M54 717q0 13 13 13h230q13 0 13 -13v-23q0 -13 -13 -13h-84v-632h84q13 0 13 -13v-23q0 -13 -13 -13h-230q-13 0 -13 13v23q0 13 13 13h85v632h-85q-13 0 -13 13v23z" />
    <glyph glyph-name="J" unicode="J" horiz-adv-x="476" 
d="M178 718q0 13 12 13h236q13 0 13 -13v-23q0 -13 -13 -13h-86v-514q0 -82 -50.5 -130t-133.5 -48q-66 0 -118 22q-22 8 -19 30l2 8q7 27 34 14q52 -22 102 -22q58 0 90.5 33.5t32.5 95.5v511h-90q-12 0 -12 13v23z" />
    <glyph glyph-name="K" unicode="K" horiz-adv-x="715" 
d="M712 49q13 0 13 -13v-23q0 -13 -13 -13h-255q-13 0 -13 13v23q0 13 13 13h111l-230 324l-132 -162v-162h75q13 0 13 -13v-23q0 -13 -13 -13h-214q-13 0 -13 13v23q0 13 13 13h79v632h-79q-13 0 -13 13v23q0 13 13 13h222q13 0 13 -13v-23q0 -13 -13 -13h-83v-394l318 394
h-82q-13 0 -13 13v23q0 13 13 13h221q12 0 12 -13v-23q0 -13 -12 -13h-72l-215 -262l259 -370h77z" />
    <glyph glyph-name="L" unicode="L" horiz-adv-x="600" 
d="M54 717q0 13 13 13h224q13 0 13 -13v-23q0 -13 -13 -13h-81v-632h311v73q0 13 12 13h29q13 0 13 -13v-94q0 -28 -28 -28h-480q-13 0 -13 13v23q0 13 13 13h83v632h-83q-13 0 -13 13v23z" />
    <glyph glyph-name="M" unicode="M" horiz-adv-x="995" 
d="M939 49q13 0 13 -13v-23q0 -13 -13 -13h-217q-13 0 -13 13v23q0 13 13 13h80l-64 639l-196 -615q-4 -18 -23 -18h-42q-19 0 -23 18l-197 615l-63 -639h85q13 0 13 -13v-23q0 -13 -13 -13h-223q-13 0 -13 13v23q0 13 13 13h81l63 632h-80q-12 0 -12 13v23q0 13 12 13h164
q17 0 23 -18l191 -606l192 606q4 18 23 18h162q13 0 13 -13v-23q0 -13 -13 -13h-80l62 -632h82z" />
    <glyph glyph-name="N" unicode="N" horiz-adv-x="821" 
d="M765 730q13 0 13 -13v-23q0 -13 -13 -13h-83v-660q0 -21 -21 -21h-44q-17 0 -25 14l-384 659v-624h82q13 0 13 -13v-23q0 -13 -13 -13h-223q-13 0 -13 13v23q0 13 13 13h83v632h-83q-13 0 -13 13v23q0 13 13 13h152q16 0 24 -14l382 -655v620h-83q-13 0 -13 13v23
q0 13 13 13h223z" />
    <glyph glyph-name="O" unicode="O" horiz-adv-x="768" 
d="M383 740q157 0 242 -97.5t85 -276.5q0 -180 -85.5 -278t-241.5 -98q-155 0 -240 98t-85 278t84 277t241 97zM385 686q-126 0 -194.5 -83t-68.5 -236q0 -155 67.5 -239t193.5 -84t194.5 84t68.5 239q0 153 -68 236t-193 83z" />
    <glyph glyph-name="P" unicode="P" horiz-adv-x="641" 
d="M332 730q133 0 205.5 -56.5t72.5 -169.5q0 -117 -74 -175.5t-212 -58.5h-118v-221h100q12 0 12 -13v-23q0 -13 -12 -13h-239q-13 0 -13 13v23q0 13 13 13h78v632h-78q-13 0 -13 13v23q0 13 13 13h265zM326 322q105 0 162.5 45.5t57.5 136.5q0 89 -54.5 133.5t-152.5 43.5
h-133v-359h120z" />
    <glyph glyph-name="Q" unicode="Q" horiz-adv-x="762" 
d="M693 -14q10 -10 -1 -21l-19 -20q-10 -10 -21 1l-90 91q-74 -47 -182 -47q-155 0 -238.5 97.5t-83.5 278.5q0 179 84.5 276.5t241.5 97.5q154 0 237 -96.5t83 -275.5q0 -198 -98 -296zM382 43q79 0 138 36l-82 83q-12 9 0 20l19 19q9 9 20 -1l86 -85q78 84 78 252
q0 153 -67.5 236t-191.5 83q-125 0 -192.5 -83t-67.5 -236q0 -156 67.5 -240t192.5 -84z" />
    <glyph glyph-name="R" unicode="R" horiz-adv-x="727" 
d="M692 49q13 0 13 -13v-23q0 -13 -13 -13h-231q-13 0 -13 13v23q0 13 13 13h85l-149 258q-32 -2 -50 -2h-140v-256h82q12 0 12 -13v-23q0 -13 -12 -13h-222q-13 0 -13 13v23q0 13 13 13h79v632h-79q-13 0 -13 13v23q0 13 13 13h294q271 0 271 -208q0 -171 -175 -207
l155 -266h80zM207 357h142q220 0 220 165q0 159 -207 159h-155v-324z" />
    <glyph glyph-name="S" unicode="S" horiz-adv-x="582" 
d="M289 740q96 0 153 -27.5t57 -67.5v-67q0 -13 -13 -13h-30q-13 0 -13 13v74q-61 34 -154 34q-72 0 -116 -35.5t-44 -92.5q0 -49 22.5 -81.5t58.5 -49t79 -28.5t86.5 -25.5t79.5 -34t58.5 -60.5t22.5 -98q0 -87 -68.5 -139t-183.5 -52q-103 0 -165 31.5t-62 80.5v50
q0 19 13 19h33q13 0 13 -19v-70q64 -38 168 -38q86 0 137.5 36.5t51.5 100.5q0 49 -22.5 81t-58.5 48t-79.5 27t-87 24.5t-79.5 34t-58.5 61.5t-22.5 101q0 81 62 131.5t162 50.5z" />
    <glyph glyph-name="T" unicode="T" horiz-adv-x="660" 
d="M31 709q0 21 20 21h557q21 0 21 -21v-120q0 -13 -13 -13h-27q-13 0 -13 13v92h-216v-632h107q13 0 13 -13v-23q0 -13 -13 -13h-276q-13 0 -13 13v23q0 13 13 13h108v632h-216v-92q0 -13 -13 -13h-27q-12 0 -12 13v120z" />
    <glyph glyph-name="U" unicode="U" horiz-adv-x="783" 
d="M40 717q0 13 12 13h221q13 0 13 -13v-23q0 -13 -13 -13h-81v-477q0 -77 52 -119t148 -42q95 0 147 42.5t52 119.5v476h-82q-13 0 -13 13v23q0 13 13 13h221q12 0 12 -13v-23q0 -13 -12 -13h-79v-473q0 -105 -68 -161.5t-193 -56.5t-192 56.5t-67 161.5v473h-79
q-12 0 -12 13v23z" />
    <glyph glyph-name="V" unicode="V" horiz-adv-x="761" 
d="M753 730q13 0 13 -13v-23q0 -13 -13 -13h-83l-246 -668q-6 -16 -24 -16h-46q-18 0 -24 16l-243 668h-78q-12 0 -12 13v23q0 13 12 13h233q12 0 12 -13v-23q0 -13 -12 -13h-90l226 -634l229 634h-86q-13 0 -13 13v23q0 13 13 13h232z" />
    <glyph glyph-name="W" unicode="W" horiz-adv-x="1053" 
d="M1046 730q12 0 12 -13v-23q0 -13 -12 -13h-79l-187 -663q-6 -18 -24 -18h-46q-18 0 -23 18l-158 609l-159 -609q-4 -18 -23 -18h-46q-17 0 -23 18l-191 663h-78q-12 0 -12 13v23q0 13 12 13h229q12 0 12 -13v-23q0 -13 -12 -13h-92l177 -633l157 606q4 18 23 18h49
q20 0 24 -18l158 -604l174 631h-88q-13 0 -13 13v23q0 13 13 13h226z" />
    <glyph glyph-name="X" unicode="X" horiz-adv-x="712" 
d="M697 49q12 0 12 -13v-23q0 -13 -12 -13h-232q-12 0 -12 13v23q0 13 12 13h83l-191 274l-199 -274h95q13 0 13 -13v-23q0 -13 -13 -13h-241q-13 0 -13 13v23q0 13 13 13h84l230 320l-219 312h-85q-13 0 -13 13v23q0 13 13 13h236q13 0 13 -13v-23q0 -13 -13 -13h-84
l187 -267l185 267h-87q-13 0 -13 13v23q0 13 13 13h235q12 0 12 -13v-23q0 -13 -12 -13h-85l-220 -311l226 -321h82z" />
    <glyph glyph-name="Y" unicode="Y" horiz-adv-x="693" 
d="M676 730q13 0 13 -13v-23q0 -13 -13 -13h-79l-220 -398v-237h81q13 0 13 -12v-21q0 -13 -13 -13h-224q-13 0 -13 13v21q0 12 13 12h83v235l-222 400h-81q-13 0 -13 13v23q0 13 13 13h228q13 0 13 -13v-23q0 -13 -13 -13h-77l182 -341l183 341h-77q-13 0 -13 13v23
q0 13 13 13h223z" />
    <glyph glyph-name="Z" unicode="Z" horiz-adv-x="580" 
d="M528 112q13 0 13 -12v-79q0 -21 -21 -21h-457q-21 0 -21 21v17q0 7 4 14l427 629h-366v-66q0 -13 -13 -13h-27q-12 0 -12 13v94q0 21 20 21h437q20 0 20 -21v-23q0 -7 -4 -14l-426 -623h386v51q0 12 13 12h27z" />
    <glyph glyph-name="bracketleft" unicode="[" horiz-adv-x="295" 
d="M261 -216q12 0 12 12v24q0 12 -12 12h-130v852h130q12 0 12 13v23q0 13 -12 13h-165q-21 0 -21 -21v-907q0 -21 21 -21h165z" />
    <glyph glyph-name="backslash" unicode="\" horiz-adv-x="358" 
d="M309 -216q6 0 9 4t2 10l-227 924q-3 11 -14 11h-30q-6 0 -9 -4t-2 -10l226 -924q3 -11 14 -11h31z" />
    <glyph glyph-name="bracketright" unicode="]" horiz-adv-x="295" 
d="M199 733q21 0 21 -21v-907q0 -21 -21 -21h-165q-12 0 -12 12v24q0 12 12 12h130v852h-130q-12 0 -12 13v23q0 13 12 13h165z" />
    <glyph glyph-name="asciicircum" unicode="^" horiz-adv-x="413" 
d="M325 538q8 0 10 4.5t-4 10.5l-107 107q-5 6 -15 6h-4q-9 0 -15 -6l-109 -107q-5 -6 -3 -10.5t10 -4.5h33q9 0 16 6l67 67l71 -67q7 -6 16 -6h34z" />
    <glyph glyph-name="underscore" unicode="_" horiz-adv-x="696" 
d="M625 53q13 0 13 -13v-27q0 -13 -13 -13h-554q-13 0 -13 13v27q0 13 13 13h554z" />
    <glyph glyph-name="grave" unicode="`" horiz-adv-x="502" 
d="M351 524q6 12 -3 18l-163 95q-10 7 -17 -5l-18 -32q-6 -12 6 -17l171 -73q11 -5 18 5z" />
    <glyph glyph-name="a" unicode="a" horiz-adv-x="503" 
d="M456 43q22 0 22 -18v-9q0 -18 -16 -22q-12 -4 -29 -4q-34 0 -58 19t-28 51q-48 -70 -151 -70q-70 0 -109 34.5t-39 95.5q0 63 47 99t130 36h110v57q0 37 -28 62t-73 25q-61 0 -117 -27q-16 -7 -26 10l-6 9q-11 18 8 27q64 32 138 32t118.5 -37.5t44.5 -100.5v-215
q0 -27 16 -42t46 -12zM207 40q35 0 70.5 16.5t57.5 43.5v109h-99q-62 0 -96.5 -23.5t-34.5 -65.5q0 -38 27 -59t75 -21z" />
    <glyph glyph-name="b" unicode="b" horiz-adv-x="531" 
d="M315 450q86 0 127 -56.5t41 -173.5t-46 -173.5t-141 -56.5q-88 0 -155 76l-5 -10l-7 -47q-1 -9 -10 -9h-20q-12 0 -12 13v668h-81q-13 0 -13 13v23q0 13 13 13h106q35 0 35 -32v-317q64 69 168 69zM296 40q66 0 97.5 44t31.5 136q0 180 -123 180q-84 0 -155 -73v-213
q72 -74 149 -74z" />
    <glyph glyph-name="c" unicode="c" horiz-adv-x="456" 
d="M266 450q66 0 109.5 -25t43.5 -65v-39q0 -13 -13 -13h-30q-13 0 -13 13v56q-37 23 -96 23q-160 0 -160 -180q0 -96 40.5 -138t123.5 -42q61 0 110 29q12 7 17 -5l12 -23q5 -12 -6 -17q-57 -34 -134 -34q-110 0 -166 54.5t-56 175.5q0 230 218 230z" />
    <glyph glyph-name="d" unicode="d" horiz-adv-x="548" 
d="M506 44q22 2 22 -18v-10q0 -18 -15 -22q-13 -4 -29 -4q-36 0 -61 19.5t-27 58.5q-68 -78 -160 -78q-96 0 -142 56.5t-46 173.5q0 118 43.5 174t139.5 56q89 0 154 -67v298h-83q-13 0 -13 13v23q0 12 13 12h108q34 0 34 -29v-605q0 -27 17 -40.5t45 -10.5zM236 40
q78 0 149 71v218q-71 71 -155 71q-63 0 -93.5 -44t-30.5 -136t31.5 -136t98.5 -44z" />
    <glyph glyph-name="e" unicode="e" horiz-adv-x="473" 
d="M250 450q173 0 175 -212v-13q0 -22 -22 -22h-296q6 -90 45.5 -126.5t113.5 -36.5q55 0 106 24q17 9 26 -8l4 -8q9 -19 -8 -27q-54 -31 -128 -31q-108 0 -163 54.5t-55 175.5q0 113 51.5 171.5t150.5 58.5zM107 249h262q0 151 -122 151q-132 0 -140 -151z" />
    <glyph glyph-name="f" unicode="f" horiz-adv-x="336" 
d="M34 36q0 13 13 13h80v341h-64q-13 0 -13 13v24q0 13 13 13h64v141q0 158 151 158q25 0 55 -7q20 -5 14 -25l-2 -9q-3 -19 -24 -14q-23 5 -44 5q-43 0 -66.5 -25.5t-23.5 -74.5v-149h107q13 0 13 -13v-24q0 -13 -13 -13h-107v-341h84q13 0 13 -13v-23q0 -13 -13 -13h-224
q-13 0 -13 13v23z" />
    <glyph glyph-name="g" unicode="g" horiz-adv-x="525" 
d="M429 451q18 0 18 -20v-470q0 -161 -176 -161q-75 0 -138 30q-17 8 -9 26l5 12q6 19 25 9q61 -26 117 -26q117 0 117 99v110q-66 -70 -152 -70q-96 0 -142 56.5t-46 173.5q0 118 43.5 174t139.5 56q91 0 157 -70v6l17 55q3 10 14 10h10zM236 40q78 0 152 74v212
q-75 75 -158 75q-124 0 -124 -181q0 -92 31.5 -136t98.5 -44z" />
    <glyph glyph-name="h" unicode="h" horiz-adv-x="590" 
d="M566 49q13 0 13 -13v-23q0 -13 -13 -13h-108q-33 0 -33 30v272q0 98 -104 98q-79 0 -150 -70v-281h78q13 0 13 -13v-23q0 -13 -13 -13h-219q-13 0 -13 13v23q0 13 13 13h81v632h-81q-13 0 -13 13v23q0 13 13 13h107q34 0 34 -30v-318q30 32 74 50t88 18q152 0 152 -144
v-257h81z" />
    <glyph glyph-name="i" unicode="i" horiz-adv-x="294" 
d="M100 591q0 18 12.5 30t31.5 12q20 0 33 -12t13 -30t-13 -30t-33 -12q-19 0 -31.5 12t-12.5 30zM34 36q0 13 13 13h81v342h-81q-13 0 -13 13v23q0 13 13 13h108q33 0 33 -31v-360h77q13 0 13 -13v-23q0 -13 -13 -13h-218q-13 0 -13 13v23z" />
    <glyph glyph-name="j" unicode="j" horiz-adv-x="249" 
d="M92 591q0 18 12.5 30t31.5 12q20 0 33 -12t13 -30t-13 -30t-33 -12q-19 0 -31.5 12t-12.5 30zM172 -90q0 -53 -29.5 -81.5t-86.5 -28.5q-34 0 -63 13q-18 7 -10 27l3 6q6 17 26 12q21 -7 44 -7q56 0 56 55v485h-80q-13 0 -13 13v23q0 13 13 13h107q33 0 33 -29v-501z" />
    <glyph glyph-name="k" unicode="k" horiz-adv-x="541" 
d="M515 49q13 0 13 -13v-23q0 -13 -13 -13h-83q-27 0 -41 21l-138 202l-82 -75v-99h68q13 0 13 -13v-23q0 -13 -13 -13h-209q-13 0 -13 13v23q0 13 13 13h82v635h-82q-12 0 -12 12v23q0 13 12 13h108q33 0 33 -29v-491l202 179h-83q-13 0 -13 13v23q0 13 13 13h213
q12 0 12 -13v-23q0 -13 -12 -13h-64l-143 -130l145 -212h74z" />
    <glyph glyph-name="l" unicode="l" horiz-adv-x="280" 
d="M138 730q33 0 33 -29v-652h76q13 0 13 -13v-23q0 -13 -13 -13h-217q-13 0 -13 13v23q0 13 13 13h82v632h-82q-12 0 -12 13v23q0 13 12 13h108z" />
    <glyph glyph-name="m" unicode="m" horiz-adv-x="873" 
d="M849 49q13 0 13 -13v-23q0 -13 -13 -13h-107q-33 0 -33 30v286q0 84 -98 84q-70 0 -133 -51q2 -9 2 -29v-271h81q13 0 13 -13v-23q0 -13 -13 -13h-106q-33 0 -33 30v286q0 40 -24 62t-67 22q-74 0 -143 -65v-286h81q13 0 13 -13v-23q0 -13 -13 -13h-221q-12 0 -12 13v23
q0 13 12 13h81v342h-82q-13 0 -13 13v23q0 13 13 13h105q32 0 32 -29v-28q64 67 158 67q89 0 123 -61q64 61 158 61q71 0 108.5 -33t37.5 -97v-271h80z" />
    <glyph glyph-name="n" unicode="n" horiz-adv-x="607" 
d="M583 49q13 0 13 -13v-23q0 -13 -13 -13h-107q-33 0 -33 30v272q0 98 -103 98q-78 0 -152 -71v-280h82q13 0 13 -13v-23q0 -13 -13 -13h-221q-13 0 -13 13v23q0 13 13 13h80v342h-82q-13 0 -13 13v23q0 13 13 13h105q33 0 33 -28v-34q30 34 75 53t91 19q151 0 151 -144
v-257h81z" />
    <glyph glyph-name="o" unicode="o" horiz-adv-x="506" 
d="M253 450q205 0 205 -230t-205 -230t-205 230t205 230zM253 40q75 0 110.5 43t35.5 137t-35.5 137t-110.5 43t-111 -43t-36 -137t36 -137t111 -43z" />
    <glyph glyph-name="p" unicode="p" horiz-adv-x="556" 
d="M339 450q86 0 127.5 -56.5t41.5 -173.5t-46 -173.5t-143 -56.5q-84 0 -148 71v-212h96q13 0 13 -13v-23q0 -13 -13 -13h-237q-13 0 -13 13v23q0 13 13 13h81v542h-81q-13 0 -13 13v23q0 13 13 13h102q35 0 35 -31v-33q67 74 172 74zM320 40q66 0 97.5 44t31.5 136
t-30 136t-93 44q-83 0 -155 -74v-211q71 -75 149 -75z" />
    <glyph glyph-name="q" unicode="q" horiz-adv-x="531" 
d="M525 -151q13 0 13 -13v-23q0 -13 -13 -13h-228q-13 0 -13 13v23q0 13 13 13h89v209q-66 -68 -150 -68q-96 0 -142 56.5t-46 173.5q0 118 43.5 174t139.5 56q89 0 155 -68v7l17 52q3 10 15 10h9q18 0 18 -20v-582h80zM236 40q78 0 150 72v216q-72 72 -156 72
q-63 0 -93.5 -44t-30.5 -136t31.5 -136t98.5 -44z" />
    <glyph glyph-name="r" unicode="r" horiz-adv-x="379" 
d="M334 449q21 1 21 -20v-17q0 -19 -21 -21q-83 0 -145 -62v-280h97q12 0 12 -13v-23q0 -13 -12 -13h-238q-12 0 -12 13v23q0 13 12 13h81v342h-82q-13 0 -13 13v23q0 13 13 13h103q14 0 23.5 -8.5t9.5 -20.5v-41q54 71 151 79z" />
    <glyph glyph-name="s" unicode="s" horiz-adv-x="430" 
d="M313 383q-44 18 -97 18t-80.5 -19.5t-27.5 -51.5q0 -34 28 -54t68.5 -29.5t81 -21t68.5 -40t28 -75.5q0 -120 -166 -120q-82 0 -125 24t-43 64v22q0 20 19 20h17q20 0 20 -20v-38q46 -22 112 -22q107 0 107 71q0 34 -28 53t-68.5 28t-81 20.5t-68.5 40t-28 75.5
q0 58 42.5 90t126.5 32q77 0 114 -23.5t37 -63.5v-29q0 -19 -20 -19h-17q-19 0 -19 19v49z" />
    <glyph glyph-name="t" unicode="t" horiz-adv-x="324" 
d="M294 404q0 -13 -12 -13h-121v-291q0 -61 70 -59l47 1q13 0 13 -12v-21q0 -11 -12 -13q-40 -6 -65 -6q-110 0 -110 106v295h-65q-13 0 -13 13v23q0 13 13 13h65l16 126q3 17 20 17h10q12 0 12 -11v-132h120q12 0 12 -13v-23z" />
    <glyph glyph-name="u" unicode="u" horiz-adv-x="560" 
d="M17 420q0 20 20 20h93q34 0 34 -29v-274q0 -97 96 -97q78 0 132 64v316q0 20 19 20h21q19 0 19 -20v-324q0 -26 16.5 -40t45.5 -12q22 1 22 -17v-11q0 -18 -15 -22q-12 -4 -28 -4q-34 0 -60 19t-27 51q-52 -70 -155 -70q-69 0 -107 37t-38 107v257h-68q-20 0 -20 20v9z
" />
    <glyph glyph-name="v" unicode="v" horiz-adv-x="552" 
d="M529 440q13 0 13 -13v-23q0 -13 -13 -13h-64l-144 -374q-6 -17 -24 -17h-40q-18 0 -24 17l-144 374h-66q-12 0 -12 13v23q0 13 12 13h183q13 0 13 -13v-23q0 -13 -13 -13h-57l130 -345l126 345h-58q-13 0 -13 13v23q0 13 13 13h182z" />
    <glyph glyph-name="w" unicode="w" horiz-adv-x="784" 
d="M761 440q12 0 12 -13v-23q0 -13 -12 -13h-60l-113 -373q-4 -18 -23 -18h-50q-18 0 -24 18l-99 341l-98 -341q-6 -18 -24 -18h-50q-18 0 -24 18l-107 373h-66q-12 0 -12 13v23q0 13 12 13h180q13 0 13 -13v-23q0 -13 -13 -13h-57l100 -352l104 356q4 18 23 18h40
q19 0 23 -18l102 -354l107 350h-64q-13 0 -13 13v23q0 13 13 13h180z" />
    <glyph glyph-name="x" unicode="x" horiz-adv-x="520" 
d="M490 391h-63l-129 -169l129 -173h61q12 0 12 -13v-23q0 -13 -12 -13h-66q-25 0 -39 19l-121 165l-101 -135h68q12 0 12 -13v-23q0 -13 -12 -13h-197q-13 0 -13 13v23q0 13 13 13h65l133 176l-122 166h-70q-13 0 -13 13v23q0 13 13 13h76q25 0 39 -19l115 -159l97 129h-69
q-12 0 -12 13v23q0 13 12 13h194q13 0 13 -13v-23q0 -13 -13 -13z" />
    <glyph glyph-name="y" unicode="y" horiz-adv-x="562" 
d="M539 440q12 0 12 -13v-23q0 -13 -12 -13h-67l-200 -499q-18 -44 -52.5 -68t-78.5 -24q-19 0 -37 3q-21 4 -16 25l2 8q4 20 23 17q18 -2 26 -2q58 0 81 53l47 104h-7q-19 0 -28 19l-144 364h-65q-12 0 -12 13v23q0 13 12 13h191q13 0 13 -13v-23q0 -13 -13 -13h-62
l128 -336l131 336h-60q-12 0 -12 13v23q0 13 12 13h188z" />
    <glyph glyph-name="z" unicode="z" horiz-adv-x="424" 
d="M380 20q0 -20 -20 -20h-297q-21 0 -21 20v21q0 5 4 10l263 340h-211v-54q0 -13 -13 -13h-25q-12 0 -12 13v83q0 20 20 20h286q20 0 20 -20v-18q0 -4 -3 -10l-266 -343h225v51q0 13 13 13h25q12 0 12 -13v-80z" />
    <glyph glyph-name="braceleft" unicode="{" horiz-adv-x="316" 
d="M274 -224q-66 -1 -109.5 33t-43.5 109v249q0 27 -19 46t-58 19h-11q-12 0 -12 13v27q0 13 12 13h11q36 0 56.5 19t20.5 45v259q0 66 44 99.5t111 32.5q12 0 12 -13v-27q0 -13 -13 -14q-42 0 -69.5 -23t-27.5 -56v-268q0 -27 -21 -51t-58 -30q37 -6 58 -29.5t21 -50.5
v-264q0 -36 26 -59t70 -25q13 0 13 -13v-27q0 -13 -13 -14z" />
    <glyph glyph-name="bar" unicode="|" horiz-adv-x="203" 
d="M114 -215q13 0 13 12v924q0 13 -13 13h-26q-13 0 -13 -13v-924q0 -12 13 -12h26z" />
    <glyph glyph-name="braceright" unicode="}" horiz-adv-x="316" 
d="M42 -224q-13 1 -13 14v27q0 13 13 13q44 2 70 25t26 59v264q0 27 21 50.5t58 29.5q-37 6 -58 30t-21 51v268q0 33 -27.5 56t-69.5 23q-13 1 -13 14v27q0 13 12 13q67 1 111 -32.5t44 -99.5v-259q0 -26 20.5 -45t56.5 -19h11q12 0 12 -13v-27q0 -13 -12 -13h-11
q-38 0 -57.5 -19t-19.5 -46v-249q0 -75 -43.5 -109t-109.5 -33z" />
    <glyph glyph-name="asciitilde" unicode="~" horiz-adv-x="446" 
d="M162 332q29 0 65 -17q40 -19 59 -19q29 0 58 24q10 10 19 -1l14 -15q8 -11 -1 -20q-40 -40 -91 -40q-21 0 -67 18q-3 2 -12.5 6.5t-14.5 6.5t-14 4t-17 2q-29 0 -57 -24q-11 -11 -20 1l-13 16q-9 11 2 21q38 37 90 37z" />
    <glyph glyph-name="exclamdown" unicode="&#xa1;" horiz-adv-x="231" 
d="M114 730q20 0 34 -14.5t14 -34.5q0 -18 -14 -32t-34 -14t-34.5 14t-14.5 32q0 20 14.5 34.5t34.5 14.5zM126 538q12 0 12 -13l9 -522q0 -13 -13 -13h-36q-13 0 -13 13l8 522q0 13 13 13h20z" />
    <glyph glyph-name="cent" unicode="&#xa2;" horiz-adv-x="465" 
d="M298 506q57 -5 93.5 -29t36.5 -59v-40q0 -13 -13 -13h-33q-13 0 -13 13v57q-33 22 -95 22q-167 0 -167 -180q0 -93 43 -136t128 -43q59 0 112 29q12 7 17 -5l12 -24q5 -12 -6 -17q-56 -32 -129 -34v-57q0 -13 -13 -13h-28q-12 0 -12 13v60q-183 22 -183 227
q0 215 197 229v53q0 13 13 13h27q13 0 13 -13v-53z" />
    <glyph glyph-name="sterling" unicode="&#xa3;" horiz-adv-x="610" 
d="M348 739q72 0 127 -25.5t55 -65.5v-76q0 -12 -12 -12h-34q-13 0 -13 12v89q-48 24 -126 24q-70 0 -107.5 -25t-37.5 -72v-264h224q13 0 13 -13v-25q0 -13 -13 -13h-224v-224h307v54q0 12 13 12h26q12 0 12 -12v-75q0 -28 -27 -28h-477q-12 0 -12 13v23q0 13 12 13h87v224
h-70q-13 0 -13 13v25q0 13 13 13h70v255q0 77 54 118.5t153 41.5z" />
    <glyph glyph-name="currency" unicode="&#xa4;" horiz-adv-x="634" 
d="M490 425q18 -44 18 -106q0 -60 -16 -101l65 -52q10 -8 1 -15l-26 -24q-6 -7 -15 -1l-50 39q-51 -59 -151 -59t-150 58l-49 -38q-8 -6 -15 1l-25 24q-9 6 0 15l64 50q-18 44 -18 103q0 65 19 109l-65 52q-9 9 0 15l25 24q7 6 15 1l53 -41q52 55 146 55q96 0 147 -57l54 43
q9 5 15 -1l26 -24q9 -7 -1 -15zM316 157q133 0 133 163q0 162 -133 162t-133 -162q0 -163 133 -163z" />
    <glyph glyph-name="yen" unicode="&#xa5;" horiz-adv-x="666" 
d="M650 730q12 0 12 -13v-23q0 -13 -12 -13h-79l-207 -356v-1h158q12 0 12 -13v-26q0 -13 -12 -13h-158v-68h158q12 0 12 -12v-27q0 -13 -12 -13h-158v-106h81q13 0 13 -12v-21q0 -13 -13 -13h-224q-13 0 -13 13v21q0 12 13 12h83v106h-154q-13 0 -13 13v27q0 12 13 12h154
v68h-154q-13 0 -13 13v26q0 13 13 13h154v1l-209 356h-81q-13 0 -13 13v23q0 13 13 13h228q13 0 13 -13v-23q0 -13 -13 -13h-76l170 -304l166 304h-75q-13 0 -13 13v23q0 13 13 13h223z" />
    <glyph glyph-name="brokenbar" unicode="&#xa6;" horiz-adv-x="209" 
d="M117 319q13 0 13 13v389q0 13 -13 13h-26q-13 0 -13 -13v-389q0 -13 13 -13h26zM117 -214q13 0 13 13v382q0 13 -13 13h-26q-13 0 -13 -13v-382q0 -13 13 -13h26z" />
    <glyph glyph-name="section" unicode="&#xa7;" horiz-adv-x="491" 
d="M254 667q75 0 116 -26t41 -61v-41q0 -13 -13 -13l-32 -1q-13 0 -13 13v54q-35 25 -102 25q-44 0 -72.5 -17t-28.5 -46t28.5 -48t93.5 -46q4 -1 6 -2t5.5 -2.5t6.5 -2.5q37 -16 53.5 -23.5t43 -24.5t37.5 -36t11 -44q0 -77 -104 -111q69 -39 69 -97q0 -59 -49.5 -92.5
t-122.5 -33.5q-74 0 -118 23t-44 63v34q0 13 13 13h28q13 0 13 -13v-47q39 -23 110 -23q52 0 82.5 18.5t30.5 51.5q0 12 -4.5 22t-15 19.5t-19 16t-26 14t-25.5 11t-27 10.5t-23 8q-69 26 -106.5 53.5t-37.5 72.5q0 38 29 68t79 41q-75 44 -75 101t44.5 88t117.5 31z
M219 420q-45 -4 -73.5 -25.5t-28.5 -48.5q0 -36 64 -62q57 -26 105 -44q92 22 92 78q0 17 -13 32.5t-40.5 28.5t-48.5 21t-57 20z" />
    <glyph glyph-name="dieresis" unicode="&#xa8;" horiz-adv-x="351" 
d="M99 635q19 0 33 -12.5t14 -29.5q0 -16 -14 -28.5t-33 -12.5q-17 0 -31 12.5t-14 28.5t14 29t31 13zM271 635q18 0 32 -13t14 -29t-14 -28.5t-32 -12.5t-32 12.5t-14 28.5t14 29t32 13z" />
    <glyph glyph-name="copyright" unicode="&#xa9;" horiz-adv-x="839" 
d="M419 746q-155 0 -259 -111.5t-104 -269.5q0 -162 103.5 -270t259.5 -108q151 0 257.5 107.5t106.5 270.5q0 157 -104.5 269t-259.5 112zM419 696q134 0 222.5 -98t88.5 -233q0 -133 -92.5 -230.5t-218.5 -97.5q-127 0 -218.5 97t-91.5 231q0 136 87.5 233.5t222.5 97.5z
M435 558q58 0 91 -18t33 -49v-45q0 -13 -12 -13h-24q-13 0 -13 13v49q-33 14 -75 14q-123 0 -123 -140q0 -137 128 -137q54 0 93 20q12 7 17 -5l7 -21q6 -13 -5 -17q-43 -27 -113 -27q-85 0 -132.5 50t-47.5 136q0 93 46 141.5t130 48.5z" />
    <glyph glyph-name="ordfeminine" unicode="&#xaa;" horiz-adv-x="446" 
d="M390 449q14 0 14 -12v-21q0 -12 -11 -15q-17 -5 -33 -5q-29 0 -49.5 14.5t-21.5 39.5q-37 -54 -118 -54q-58 0 -91.5 27.5t-33.5 75.5q0 49 36 75.5t104 26.5h93v31q0 54 -76 54q-51 0 -94 -21q-12 -6 -17 6l-13 23q-7 12 5 17q53 28 118 28q136 0 136 -107v-145
q0 -43 52 -38zM180 448q65 0 99 43v65h-84q-44 0 -67.5 -14.5t-22.5 -41.5q0 -25 20 -38.5t55 -13.5z" />
    <glyph glyph-name="guillemotleft" unicode="&#xab;" horiz-adv-x="388" 
d="M156 38q-16 0 -23 13l-86 137q-7 14 0 28l86 136q7 13 23 13h22q12 0 16 -6.5t-3 -17.5l-90 -139l90 -140q7 -10 3 -17t-16 -7h-22zM311 38q-15 0 -24 13l-85 137q-8 14 0 28l85 136q9 13 24 13h22q11 0 15 -6.5t-2 -17.5l-90 -139l90 -140q6 -10 2 -17t-15 -7h-22z" />
    <glyph glyph-name="registered" unicode="&#xae;" horiz-adv-x="570" 
d="M285 740q118 0 196 -84t78 -195q0 -116 -82.5 -197t-191.5 -81q-116 0 -195 83.5t-79 194.5q0 110 78 194.5t196 84.5zM284 225q91 0 163 71t72 165q0 91 -67 164t-168 73t-167 -73t-66 -164q0 -96 70.5 -166t162.5 -70zM406 366q8 0 8 -8v-16q0 -8 -8 -8h-71q-9 0 -9 8
v16q0 8 9 8h9l-43 71h-1h-63v-71h17q9 0 9 -8v-16q0 -8 -9 -8h-75q-8 0 -8 8v16q0 8 8 8h19v198h-19q-8 0 -8 9v20q0 8 8 8h127q42 0 64.5 -21t22.5 -60q0 -61 -54 -78l48 -76h19zM237 564v-91h63q55 0 55 46q0 45 -48 45h-70z" />
    <glyph glyph-name="macron" unicode="&#xaf;" horiz-adv-x="496" 
d="M383 528q13 0 13 13v24q0 13 -13 13h-270q-13 0 -13 -13v-24q0 -13 13 -13h270z" />
    <glyph glyph-name="degree" unicode="&#xb0;" horiz-adv-x="384" 
d="M333 603q0 54 -39 89.5t-102 35.5q-59 0 -99.5 -34t-40.5 -91q0 -56 39.5 -91t100.5 -35t101 34.5t40 91.5zM279 603q0 -35 -23.5 -58.5t-63.5 -23.5q-39 0 -62.5 23t-23.5 59t23 59t63 23q37 0 62 -22.5t25 -59.5z" />
    <glyph glyph-name="plusminus" unicode="&#xb1;" horiz-adv-x="519" 
d="M274 489q13 0 13 -13v-118h149q13 0 13 -12v-26q0 -13 -13 -13h-149v-118q0 -12 -13 -12h-30q-13 0 -13 12v118h-148q-13 0 -13 13v26q0 12 13 12h148v118q0 13 13 13h30zM418 116q13 0 13 -13v-25q0 -13 -13 -13h-317q-13 0 -13 13v25q0 13 13 13h317z" />
    <glyph glyph-name="acute" unicode="&#xb4;" horiz-adv-x="470" 
d="M323 586q12 7 5 16l-16 30q-7 10 -16 4l-152 -88q-9 -6 -3 -16l7 -10q4 -9 15 -5z" />
    <glyph glyph-name="paragraph" unicode="&#xb6;" horiz-adv-x="579" 
d="M336 666q64 1 134 -7q27 -1 27 -29v-688q0 -13 -13 -13h-30q-12 0 -12 13v674q-61 4 -95 3v-677q0 -13 -13 -13h-29q-13 0 -13 13v249q-114 2 -184.5 62.5t-70.5 164.5q0 119 79 182.5t220 65.5zM291 616q-196 -16 -196 -200q0 -83 53.5 -127.5t143.5 -47.5z" />
    <glyph glyph-name="periodcentered" unicode="&#xb7;" horiz-adv-x="235" 
d="M67 209q0 20 14.5 33t37.5 13q22 0 36 -13t14 -33q0 -22 -14 -35t-36 -13q-23 0 -37.5 13t-14.5 35z" />
    <glyph glyph-name="cedilla" unicode="&#xb8;" horiz-adv-x="510" 
d="M363 -126q0 -76 -106 -76q-52 0 -100 25q-13 6 -6 19l5 12q6 9 18 5q42 -21 84 -21q55 0 55 34q0 41 -89 49q-20 3 -15 21l23 72l41 -10l-17 -49q52 -6 80 -25t27 -56z" />
    <glyph glyph-name="ordmasculine" unicode="&#xba;" horiz-adv-x="439" 
d="M220 735q80 0 125.5 -46t45.5 -128t-45.5 -128t-126.5 -46t-125.5 46t-44.5 128t45 128t126 46zM220 682q-53 0 -81 -32t-28 -89q0 -56 28 -88t81 -33q52 1 80 33t28 88q0 57 -28 89t-80 32z" />
    <glyph glyph-name="guillemotright" unicode="&#xbb;" horiz-adv-x="405" 
d="M66 38q-12 0 -16 7t2 17l90 140l-90 139q-6 11 -2 17.5t16 6.5h22q16 0 23 -13l86 -136q7 -14 0 -28l-86 -137q-7 -13 -23 -13h-22zM228 38q-12 0 -16 7t3 17l90 140l-90 139q-7 11 -3 17.5t16 6.5h22q16 0 23 -13l86 -136q7 -14 0 -28l-86 -137q-7 -13 -23 -13h-22z" />
    <glyph glyph-name="onequarter" unicode="&#xbc;" horiz-adv-x="667" 
d="M603 657q12 -6 4 -18l-506 -644q-6 -10 -17 -5l-19 10q-12 6 -3 18l505 645q7 10 17 4zM93 341q-13 0 -13 13v17q0 13 13 13h39v226l-34 -11q-14 -5 -14 11v20q0 11 10 14l55 21q6 3 15 3h5q12 0 12 -12v-271h38q13 0 13 -13v-18q0 -13 -13 -13h-126zM580 123
q12 0 12 -13v-16q0 -12 -12 -12h-29v-69q0 -13 -13 -13h-17q-12 0 -12 13v69h-116q-21 0 -21 21v6q0 7 3 15l95 189q6 14 21 14h39q21 0 21 -21v-183h29zM419 123h89v172z" />
    <glyph glyph-name="onehalf" unicode="&#xbd;" horiz-adv-x="674" 
d="M603 657q12 -6 4 -18l-506 -644q-6 -10 -17 -5l-19 10q-12 6 -3 18l505 645q7 10 17 4zM93 341q-13 0 -13 13v17q0 13 13 13h39v226l-34 -11q-14 -5 -14 11v20q0 11 10 14l55 21q6 3 15 3h4q13 0 13 -12v-271h38q13 0 13 -13v-18q0 -13 -13 -13h-126zM591 78q12 0 12 -12
v-52q0 -14 -14 -14h-178q-13 0 -13 13v8q0 7 5 14l93 106q49 58 49 96q0 43 -51 43q-32 0 -49 -21v-37q0 -13 -13 -13h-19q-13 0 -13 13v24q0 32 25 53t70 21t69.5 -21.5t24.5 -61.5q0 -53 -49 -107l-77 -89h101v25q0 12 13 12h14z" />
    <glyph glyph-name="threequarters" unicode="&#xbe;" horiz-adv-x="682" 
d="M86 575q-13 0 -13 13v23q0 26 25 44t63 18q46 0 71 -22t25 -62q0 -60 -66 -79q76 -17 76 -83q0 -44 -28.5 -69t-80.5 -25q-36 0 -74 16q-10 5 -8 17l6 19q3 9 12 5q26 -12 68 -12q26 0 41 13t15 36q0 27 -15.5 42.5t-44.5 15.5h-2q-15 0 -15 13v21q0 12 15 12
q3 0 8.5 0.5t8.5 1.5q36 6 36 56q0 46 -48 46q-32 0 -48 -18v-29q0 -13 -13 -13h-14zM619 657q12 -6 3 -18l-505 -644q-6 -10 -17 -5l-19 10q-12 6 -4 18l506 645q7 10 16 4zM596 123q13 0 13 -13v-16q0 -12 -13 -12h-30v-69q0 -13 -12 -13h-17q-13 0 -13 13v69h-122
q-14 0 -14 14v13q0 7 3 15l98 194q5 9 13 9h50q14 0 14 -14v-190h30zM434 123h90l-1 173z" />
    <glyph glyph-name="questiondown" unicode="&#xbf;" horiz-adv-x="476" 
d="M263 743q20 0 34 -14t14 -34q0 -19 -14 -32.5t-34 -13.5t-34.5 13.5t-14.5 32.5q0 20 14.5 34t34.5 14zM245 -6q-100 0 -153.5 46t-53.5 133q0 45 19.5 84.5t48 68t57 55t48.5 58t21 64.5l2 53q0 13 12 13h35q13 0 13 -13l-1 -54q0 -36 -20.5 -70t-49.5 -62t-58 -56.5
t-49.5 -64.5t-20.5 -76q0 -60 39 -92.5t111 -32.5q87 0 136 35v82q0 13 13 13h31q13 0 13 -13v-63q0 -42 -50.5 -75t-142.5 -33z" />
    <glyph glyph-name="Agrave" unicode="&#xc0;" horiz-adv-x="724" 
d="M248 852q-12 5 -6 17l18 32q7 12 17 5l163 -95q9 -6 3 -18l-6 -9q-7 -10 -18 -5zM712 49q17 0 17 -17v-16q0 -16 -17 -16h-204q-17 0 -17 16v16q0 17 17 17h78l-56 156h-340l-57 -156h83q16 0 16 -17v-16q0 -16 -16 -16h-205q-16 0 -16 16v16q0 17 16 17h63l245 665
q6 16 23 16h38q18 0 24 -16l246 -665h62zM208 255h303l-151 418z" />
    <glyph glyph-name="Aacute" unicode="&#xc1;" horiz-adv-x="724" 
d="M299 773l-7 10q-6 10 3 16l155 90q9 6 16 -4l17 -31q7 -9 -5 -16l-163 -70q-12 -4 -16 5zM712 49q17 0 17 -17v-16q0 -16 -17 -16h-204q-17 0 -17 16v16q0 17 17 17h78l-56 156h-340l-57 -156h83q16 0 16 -17v-16q0 -16 -16 -16h-205q-16 0 -16 16v16q0 17 16 17h63
l245 665q6 16 23 16h38q18 0 24 -16l246 -665h62zM208 255h303l-151 418z" />
    <glyph glyph-name="Acircumflex" unicode="&#xc2;" horiz-adv-x="724" 
d="M244 777q-8 0 -10 4.5t3 10.5l110 108q5 6 15 6h4q9 0 14 -6l109 -108q5 -6 3 -10.5t-10 -4.5h-31q-10 0 -17 7l-73 69l-71 -69q-7 -7 -17 -7h-29zM712 49q17 0 17 -17v-16q0 -16 -17 -16h-204q-17 0 -17 16v16q0 17 17 17h78l-56 156h-340l-57 -156h83q16 0 16 -17v-16
q0 -16 -16 -16h-205q-16 0 -16 16v16q0 17 16 17h63l245 665q6 16 23 16h38q18 0 24 -16l246 -665h62zM208 255h303l-151 418z" />
    <glyph glyph-name="Atilde" unicode="&#xc3;" horiz-adv-x="724" 
d="M233 801l-13 14q-8 10 0 18q39 37 87 37q27 0 61 -17q32 -18 55 -18q26 0 55 24q10 8 17 -1l13 -15q9 -11 -1 -18q-39 -36 -84 -36q-28 0 -64 16q-36 18 -54 18q-27 0 -54 -24q-10 -8 -18 2zM712 49q17 0 17 -17v-16q0 -16 -17 -16h-204q-17 0 -17 16v16q0 17 17 17h78
l-56 156h-340l-57 -156h83q16 0 16 -17v-16q0 -16 -16 -16h-205q-16 0 -16 16v16q0 17 16 17h63l245 665q6 16 23 16h38q18 0 24 -16l246 -665h62zM208 255h303l-151 418z" />
    <glyph glyph-name="Adieresis" unicode="&#xc4;" horiz-adv-x="724" 
d="M276 791q-17 0 -31 12.5t-14 28.5t14 28.5t31 12.5q19 0 33 -12.5t14 -28.5t-14 -28.5t-33 -12.5zM448 791q-18 0 -32 12.5t-14 28.5t14 28.5t32 12.5t32 -12.5t14 -28.5t-14 -28.5t-32 -12.5zM712 49q17 0 17 -17v-16q0 -16 -17 -16h-204q-17 0 -17 16v16q0 17 17 17h78
l-56 156h-340l-57 -156h83q16 0 16 -17v-16q0 -16 -16 -16h-205q-16 0 -16 16v16q0 17 16 17h63l245 665q6 16 23 16h38q18 0 24 -16l246 -665h62zM208 255h303l-151 418z" />
    <glyph glyph-name="Aring" unicode="&#xc5;" horiz-adv-x="724" 
d="M364 762q-50 0 -75.5 25t-25.5 69q0 43 25.5 67.5t75.5 24.5q49 0 74.5 -25t25.5 -67q0 -43 -25.5 -68.5t-74.5 -25.5zM364 908q-52 0 -52 -52q0 -54 52 -54q51 0 51 54q0 52 -51 52zM712 49q17 0 17 -17v-16q0 -16 -17 -16h-204q-17 0 -17 16v16q0 17 17 17h78l-56 156
h-340l-57 -156h83q16 0 16 -17v-16q0 -16 -16 -16h-205q-16 0 -16 16v16q0 17 16 17h63l245 665q6 16 23 16h38q18 0 24 -16l246 -665h62zM208 255h303l-151 418z" />
    <glyph glyph-name="AE" unicode="&#xc6;" horiz-adv-x="1043" 
d="M984 113q13 0 13 -13v-79q0 -21 -21 -21h-398q-21 0 -21 21v198h-276l-114 -170h78q13 0 13 -13v-23q0 -13 -13 -13h-237q-13 0 -13 13v23q0 13 13 13h92l430 632h-77q-13 0 -13 13v23q0 13 13 13h512q21 0 21 -21v-90q0 -13 -13 -13h-31q-13 0 -13 13v62h-315v-304h289
q13 0 13 -12v-24q0 -13 -13 -13h-289v-279h331v51q0 13 13 13h26zM315 269h242v361z" />
    <glyph glyph-name="Ccedilla" unicode="&#xc7;" horiz-adv-x="668" 
d="M604 154q16 0 16 -17v-42q0 -43 -61.5 -73.5t-171.5 -31.5l-12 -35q52 -6 80 -25t27 -56q0 -76 -106 -76q-52 0 -100 25q-13 6 -6 19l5 12q6 9 18 5q42 -21 84 -21q55 0 55 34q0 41 -89 49q-20 3 -15 21l16 49q-138 12 -212 108.5t-74 265.5q0 180 85.5 277.5t241.5 97.5
q114 0 174.5 -31t60.5 -70v-73q0 -16 -16 -16h-25q-16 0 -16 16v82q-50 38 -178 38q-126 0 -195 -84t-69 -237q0 -154 68 -237.5t193 -83.5q132 0 182 41v52q0 17 17 17h23z" />
    <glyph glyph-name="Egrave" unicode="&#xc8;" horiz-adv-x="650" 
d="M437 793q6 12 -3 18l-163 95q-10 7 -17 -5l-18 -32q-6 -12 6 -17l171 -73q11 -5 18 5zM537 681h-330v-303h300q16 0 16 -17v-17q0 -16 -16 -16h-300v-279h346v48q0 16 16 16h19q16 0 16 -16v-69q0 -28 -28 -28h-506q-16 0 -16 16v16q0 17 16 17h76v632h-76q-16 0 -16 17
v16q0 16 16 16h496q28 0 28 -28v-90q0 -16 -16 -16h-24q-17 0 -17 16v69z" />
    <glyph glyph-name="Eacute" unicode="&#xc9;" horiz-adv-x="650" 
d="M471 838q12 7 5 16l-17 31q-7 10 -16 4l-155 -90q-9 -6 -3 -16l7 -10q4 -9 16 -5zM537 681h-330v-303h300q16 0 16 -17v-17q0 -16 -16 -16h-300v-279h346v48q0 16 16 16h19q16 0 16 -16v-69q0 -28 -28 -28h-506q-16 0 -16 16v16q0 17 16 17h76v632h-76q-16 0 -16 17v16
q0 16 16 16h496q28 0 28 -28v-90q0 -16 -16 -16h-24q-17 0 -17 16v69z" />
    <glyph glyph-name="Ecircumflex" unicode="&#xca;" horiz-adv-x="650" 
d="M231 792q-5 -6 -3 -10.5t10 -4.5h29q10 0 17 7l71 69l73 -69q7 -7 17 -7h31q8 0 10 4.5t-3 10.5l-109 108q-5 6 -14 6h-4q-10 0 -15 -6zM537 681h-330v-303h300q16 0 16 -17v-17q0 -16 -16 -16h-300v-279h346v48q0 16 16 16h19q16 0 16 -16v-69q0 -28 -28 -28h-506
q-16 0 -16 16v16q0 17 16 17h76v632h-76q-16 0 -16 17v16q0 16 16 16h496q28 0 28 -28v-90q0 -16 -16 -16h-24q-17 0 -17 16v69z" />
    <glyph glyph-name="Edieresis" unicode="&#xcb;" horiz-adv-x="650" 
d="M269 873q19 0 33 -12.5t14 -28.5t-14 -28.5t-33 -12.5q-17 0 -31 12.5t-14 28.5t14 28.5t31 12.5zM441 873q18 0 32 -12.5t14 -28.5t-14 -28.5t-32 -12.5t-32 12.5t-14 28.5t14 28.5t32 12.5zM537 681h-330v-303h300q16 0 16 -17v-17q0 -16 -16 -16h-300v-279h346v48
q0 16 16 16h19q16 0 16 -16v-69q0 -28 -28 -28h-506q-16 0 -16 16v16q0 17 16 17h76v632h-76q-16 0 -16 17v16q0 16 16 16h496q28 0 28 -28v-90q0 -16 -16 -16h-24q-17 0 -17 16v69z" />
    <glyph glyph-name="Igrave" unicode="&#xcc;" horiz-adv-x="362" 
d="M261 793q6 12 -3 18l-163 95q-10 7 -17 -5l-18 -32q-6 -12 6 -17l171 -73q11 -5 18 5zM54 717q0 13 13 13h230q13 0 13 -13v-23q0 -13 -13 -13h-84v-632h84q13 0 13 -13v-23q0 -13 -13 -13h-230q-13 0 -13 13v23q0 13 13 13h85v632h-85q-13 0 -13 13v23z" />
    <glyph glyph-name="Iacute" unicode="&#xcd;" horiz-adv-x="362" 
d="M296 838q12 7 5 16l-17 31q-7 10 -16 4l-155 -90q-9 -6 -3 -16l7 -10q4 -9 16 -5zM54 717q0 13 13 13h230q13 0 13 -13v-23q0 -13 -13 -13h-84v-632h84q13 0 13 -13v-23q0 -13 -13 -13h-230q-13 0 -13 13v23q0 13 13 13h85v632h-85q-13 0 -13 13v23z" />
    <glyph glyph-name="Icircumflex" unicode="&#xce;" horiz-adv-x="362" 
d="M55 792q-5 -6 -3 -10.5t10 -4.5h29q10 0 17 7l71 69l73 -69q7 -7 17 -7h31q8 0 10 4.5t-3 10.5l-109 108q-5 6 -14 6h-4q-10 0 -15 -6zM54 717q0 13 13 13h230q13 0 13 -13v-23q0 -13 -13 -13h-84v-632h84q13 0 13 -13v-23q0 -13 -13 -13h-230q-13 0 -13 13v23
q0 13 13 13h85v632h-85q-13 0 -13 13v23z" />
    <glyph glyph-name="Idieresis" unicode="&#xcf;" horiz-adv-x="362" 
d="M94 873q19 0 33 -12.5t14 -28.5t-14 -28.5t-33 -12.5q-17 0 -31 12.5t-14 28.5t14 28.5t31 12.5zM266 873q18 0 32 -12.5t14 -28.5t-14 -28.5t-32 -12.5t-32 12.5t-14 28.5t14 28.5t32 12.5zM54 717q0 13 13 13h230q13 0 13 -13v-23q0 -13 -13 -13h-84v-632h84
q13 0 13 -13v-23q0 -13 -13 -13h-230q-13 0 -13 13v23q0 13 13 13h85v632h-85q-13 0 -13 13v23z" />
    <glyph glyph-name="Eth" unicode="&#xd0;" horiz-adv-x="759" 
d="M306 730q202 0 298 -88.5t96 -274.5q0 -367 -381 -367h-249q-16 0 -16 16v16q0 17 16 17h75v299h-58q-13 0 -13 13v20q0 13 13 13h58v287h-75q-16 0 -16 17v16q0 16 16 16h236zM318 49q320 2 320 318q0 161 -80 237.5t-248 76.5h-104v-287h142q13 0 13 -13v-20
q0 -13 -13 -13h-142v-299h112z" />
    <glyph glyph-name="Ntilde" unicode="&#xd1;" horiz-adv-x="821" 
d="M292 801l-13 14q-8 10 0 18q39 37 87 37q27 0 61 -17q32 -18 55 -18q26 0 55 24q10 8 17 -1l13 -15q9 -11 -1 -18q-39 -36 -84 -36q-28 0 -64 16q-36 18 -54 18q-27 0 -54 -24q-10 -8 -18 2zM765 730q13 0 13 -13v-23q0 -13 -13 -13h-83v-660q0 -21 -21 -21h-44
q-17 0 -25 14l-384 659v-624h82q13 0 13 -13v-23q0 -13 -13 -13h-223q-13 0 -13 13v23q0 13 13 13h83v632h-83q-13 0 -13 13v23q0 13 13 13h152q16 0 24 -14l382 -655v620h-83q-13 0 -13 13v23q0 13 13 13h223z" />
    <glyph glyph-name="Ograve" unicode="&#xd2;" horiz-adv-x="768" 
d="M467 793q6 12 -3 18l-163 95q-10 7 -17 -5l-18 -32q-6 -12 6 -17l171 -73q11 -5 18 5zM383 740q157 0 242 -97.5t85 -276.5q0 -180 -85.5 -278t-241.5 -98q-155 0 -240 98t-85 278t84 277t241 97zM385 686q-126 0 -194.5 -83t-68.5 -236q0 -155 67.5 -239t193.5 -84
t194.5 84t68.5 239q0 153 -68 236t-193 83z" />
    <glyph glyph-name="Oacute" unicode="&#xd3;" horiz-adv-x="768" 
d="M501 838q12 7 5 16l-17 31q-7 10 -16 4l-155 -90q-9 -6 -3 -16l7 -10q4 -9 16 -5zM383 740q157 0 242 -97.5t85 -276.5q0 -180 -85.5 -278t-241.5 -98q-155 0 -240 98t-85 278t84 277t241 97zM385 686q-126 0 -194.5 -83t-68.5 -236q0 -155 67.5 -239t193.5 -84t194.5 84
t68.5 239q0 153 -68 236t-193 83z" />
    <glyph glyph-name="Ocircumflex" unicode="&#xd4;" horiz-adv-x="768" 
d="M261 792q-5 -6 -3 -10.5t10 -4.5h29q10 0 17 7l71 69l73 -69q7 -7 17 -7h31q8 0 10 4.5t-3 10.5l-109 108q-5 6 -14 6h-4q-10 0 -15 -6zM383 740q157 0 242 -97.5t85 -276.5q0 -180 -85.5 -278t-241.5 -98q-155 0 -240 98t-85 278t84 277t241 97zM385 686
q-126 0 -194.5 -83t-68.5 -236q0 -155 67.5 -239t193.5 -84t194.5 84t68.5 239q0 153 -68 236t-193 83z" />
    <glyph glyph-name="Otilde" unicode="&#xd5;" horiz-adv-x="768" 
d="M518 858q-7 9 -17 1q-29 -24 -55 -24q-23 0 -55 18q-34 17 -61 17q-48 0 -87 -37q-8 -8 0 -18l13 -14q8 -10 18 -2q27 24 54 24q18 0 54 -18q36 -16 64 -16q45 0 84 36q10 7 1 18zM383 740q157 0 242 -97.5t85 -276.5q0 -180 -85.5 -278t-241.5 -98q-155 0 -240 98
t-85 278t84 277t241 97zM385 686q-126 0 -194.5 -83t-68.5 -236q0 -155 67.5 -239t193.5 -84t194.5 84t68.5 239q0 153 -68 236t-193 83z" />
    <glyph glyph-name="Odieresis" unicode="&#xd6;" horiz-adv-x="768" 
d="M299 873q19 0 33 -12.5t14 -28.5t-14 -28.5t-33 -12.5q-17 0 -31 12.5t-14 28.5t14 28.5t31 12.5zM471 873q18 0 32 -12.5t14 -28.5t-14 -28.5t-32 -12.5t-32 12.5t-14 28.5t14 28.5t32 12.5zM383 740q157 0 242 -97.5t85 -276.5q0 -180 -85.5 -278t-241.5 -98
q-155 0 -240 98t-85 278t84 277t241 97zM385 686q-126 0 -194.5 -83t-68.5 -236q0 -155 67.5 -239t193.5 -84t194.5 84t68.5 239q0 153 -68 236t-193 83z" />
    <glyph glyph-name="multiply" unicode="&#xd7;" horiz-adv-x="482" 
d="M82 468q-9 -9 1 -18l119 -93l-119 -92q-9 -9 -1 -18l20 -19q9 -9 18 -1l121 94l122 -94q9 -7 17 1l20 19q9 8 -1 18l-120 92l120 93q11 10 1 18l-20 19q-8 8 -17 1l-122 -94l-121 94q-9 8 -18 -1z" />
    <glyph glyph-name="Oslash" unicode="&#xd8;" horiz-adv-x="780" 
d="M718 721q10 -8 1 -17l-75 -86q66 -95 66 -252q0 -180 -85.5 -278t-241.5 -98q-140 0 -223 80l-62 -70q-8 -8 -18 -2l-19 14q-11 8 -2 18l69 78q-70 96 -70 258q0 180 84 277t241 97q147 0 230 -85l69 78q8 9 18 2zM122 367q0 -131 48 -211l403 454q-67 76 -188 76
q-126 0 -194.5 -83t-68.5 -236zM646 367q0 125 -45 203l-401 -454q67 -72 183 -72q126 0 194.5 84t68.5 239z" />
    <glyph glyph-name="Ugrave" unicode="&#xd9;" horiz-adv-x="783" 
d="M477 793q6 12 -3 18l-163 95q-10 7 -17 -5l-18 -32q-6 -12 6 -17l171 -73q11 -5 18 5zM40 717q0 13 12 13h221q13 0 13 -13v-23q0 -13 -13 -13h-81v-477q0 -77 52 -119t148 -42q95 0 147 42.5t52 119.5v476h-82q-13 0 -13 13v23q0 13 13 13h221q12 0 12 -13v-23
q0 -13 -12 -13h-79v-473q0 -105 -68 -161.5t-193 -56.5t-192 56.5t-67 161.5v473h-79q-12 0 -12 13v23z" />
    <glyph glyph-name="Uacute" unicode="&#xda;" horiz-adv-x="783" 
d="M512 838q12 7 5 16l-17 31q-7 10 -16 4l-155 -90q-9 -6 -3 -16l7 -10q4 -9 16 -5zM40 717q0 13 12 13h221q13 0 13 -13v-23q0 -13 -13 -13h-81v-477q0 -77 52 -119t148 -42q95 0 147 42.5t52 119.5v476h-82q-13 0 -13 13v23q0 13 13 13h221q12 0 12 -13v-23
q0 -13 -12 -13h-79v-473q0 -105 -68 -161.5t-193 -56.5t-192 56.5t-67 161.5v473h-79q-12 0 -12 13v23z" />
    <glyph glyph-name="Ucircumflex" unicode="&#xdb;" horiz-adv-x="783" 
d="M271 792q-5 -6 -3 -10.5t10 -4.5h29q10 0 17 7l71 69l73 -69q7 -7 17 -7h31q8 0 10 4.5t-3 10.5l-109 108q-5 6 -14 6h-4q-10 0 -15 -6zM40 717q0 13 12 13h221q13 0 13 -13v-23q0 -13 -13 -13h-81v-477q0 -77 52 -119t148 -42q95 0 147 42.5t52 119.5v476h-82
q-13 0 -13 13v23q0 13 13 13h221q12 0 12 -13v-23q0 -13 -12 -13h-79v-473q0 -105 -68 -161.5t-193 -56.5t-192 56.5t-67 161.5v473h-79q-12 0 -12 13v23z" />
    <glyph glyph-name="Udieresis" unicode="&#xdc;" horiz-adv-x="783" 
d="M310 873q19 0 33 -12.5t14 -28.5t-14 -28.5t-33 -12.5q-17 0 -31 12.5t-14 28.5t14 28.5t31 12.5zM482 873q18 0 32 -12.5t14 -28.5t-14 -28.5t-32 -12.5t-32 12.5t-14 28.5t14 28.5t32 12.5zM40 717q0 13 12 13h221q13 0 13 -13v-23q0 -13 -13 -13h-81v-477
q0 -77 52 -119t148 -42q95 0 147 42.5t52 119.5v476h-82q-13 0 -13 13v23q0 13 13 13h221q12 0 12 -13v-23q0 -13 -12 -13h-79v-473q0 -105 -68 -161.5t-193 -56.5t-192 56.5t-67 161.5v473h-79q-12 0 -12 13v23z" />
    <glyph glyph-name="Yacute" unicode="&#xdd;" horiz-adv-x="693" 
d="M293 773l-7 10q-6 10 3 16l155 90q9 6 16 -4l17 -31q7 -9 -5 -16l-163 -70q-12 -4 -16 5zM676 730q13 0 13 -13v-23q0 -13 -13 -13h-79l-220 -398v-237h81q13 0 13 -12v-21q0 -13 -13 -13h-224q-13 0 -13 13v21q0 12 13 12h83v235l-222 400h-81q-13 0 -13 13v23
q0 13 13 13h228q13 0 13 -13v-23q0 -13 -13 -13h-77l182 -341l183 341h-77q-13 0 -13 13v23q0 13 13 13h223z" />
    <glyph glyph-name="Thorn" unicode="&#xde;" horiz-adv-x="624" 
d="M66 733q-12 0 -12 -13v-23q0 -13 12 -13h84v-635h-84q-12 0 -12 -13v-23q0 -13 12 -13h222q12 0 12 13v23q0 13 -12 13h-77v96q39 -3 89 -3q129 0 207 60t77 178q-2 113 -78 171t-207 58q-39 0 -88 -3v78h75q13 0 13 13v23q0 13 -13 13h-220zM211 550q47 4 91 4
q102 0 160.5 -43.5t58.5 -133.5q0 -91 -60 -137t-159 -44q-52 0 -91 3v351z" />
    <glyph glyph-name="germandbls" unicode="&#xdf;" horiz-adv-x="590" 
d="M383 408q165 -49 165 -221q0 -197 -189 -197q-60 0 -99.5 25t-39.5 64v23q0 19 20 19h17q19 0 19 -19v-39q32 -23 84 -23q128 0 128 147q0 76 -41.5 127.5t-121.5 62.5q-1 0 -26 3q-12 2 -12 13v24q0 13 12 13q4 1 13 2.5t13 1.5q60 14 92.5 47.5t32.5 84.5
q0 121 -133 121q-136 0 -136 -145v-514q0 -28 -27 -28h-114q-13 0 -13 13v23q0 13 13 13h82v341h-65q-12 0 -12 13v24q0 13 12 13h65v97q0 95 49 149t146 54q91 0 140 -45.5t49 -128.5q0 -52 -32 -92.5t-91 -65.5z" />
    <glyph glyph-name="agrave" unicode="&#xe0;" horiz-adv-x="503" 
d="M142 583q-12 5 -6 17l18 32q7 12 17 5l163 -95q9 -6 3 -18l-6 -9q-7 -10 -18 -5zM456 43q22 0 22 -18v-9q0 -18 -16 -22q-12 -4 -29 -4q-34 0 -58 19t-28 51q-48 -70 -151 -70q-70 0 -109 34.5t-39 95.5q0 63 47 99t130 36h110v57q0 37 -28 62t-73 25q-61 0 -117 -27
q-16 -7 -26 10l-6 9q-11 18 8 27q64 32 138 32t118.5 -37.5t44.5 -100.5v-215q0 -27 16 -42t46 -12zM207 40q35 0 70.5 16.5t57.5 43.5v109h-99q-62 0 -96.5 -23.5t-34.5 -65.5q0 -38 27 -59t75 -21z" />
    <glyph glyph-name="aacute" unicode="&#xe1;" horiz-adv-x="503" 
d="M159 522l-7 10q-6 10 3 16l152 88q9 6 16 -4l16 -30q7 -9 -5 -16l-160 -69q-11 -4 -15 5zM456 43q22 0 22 -18v-9q0 -18 -16 -22q-12 -4 -29 -4q-34 0 -58 19t-28 51q-48 -70 -151 -70q-70 0 -109 34.5t-39 95.5q0 63 47 99t130 36h110v57q0 37 -28 62t-73 25
q-61 0 -117 -27q-16 -7 -26 10l-6 9q-11 18 8 27q64 32 138 32t118.5 -37.5t44.5 -100.5v-215q0 -27 16 -42t46 -12zM207 40q35 0 70.5 16.5t57.5 43.5v109h-99q-62 0 -96.5 -23.5t-34.5 -65.5q0 -38 27 -59t75 -21z" />
    <glyph glyph-name="acircumflex" unicode="&#xe2;" horiz-adv-x="503" 
d="M118 519q-8 0 -10 4.5t3 10.5l109 108q5 6 14 6h4q10 0 15 -6l110 -108q5 -6 3 -10.5t-10 -4.5h-29q-10 0 -17 7l-71 69l-73 -69q-7 -7 -17 -7h-31zM456 43q22 0 22 -18v-9q0 -18 -16 -22q-12 -4 -29 -4q-34 0 -58 19t-28 51q-48 -70 -151 -70q-70 0 -109 34.5t-39 95.5
q0 63 47 99t130 36h110v57q0 37 -28 62t-73 25q-61 0 -117 -27q-16 -7 -26 10l-6 9q-11 18 8 27q64 32 138 32t118.5 -37.5t44.5 -100.5v-215q0 -27 16 -42t46 -12zM207 40q35 0 70.5 16.5t57.5 43.5v109h-99q-62 0 -96.5 -23.5t-34.5 -65.5q0 -38 27 -59t75 -21z" />
    <glyph glyph-name="atilde" unicode="&#xe3;" horiz-adv-x="503" 
d="M106 533l-13 14q-8 10 0 18q39 37 87 37q27 0 61 -17q32 -18 55 -18q26 0 55 24q10 8 17 -1l13 -15q9 -11 -1 -18q-39 -36 -84 -36q-28 0 -64 16q-36 18 -54 18q-27 0 -54 -24q-10 -8 -18 2zM456 43q22 0 22 -18v-9q0 -18 -16 -22q-12 -4 -29 -4q-34 0 -58 19t-28 51
q-48 -70 -151 -70q-70 0 -109 34.5t-39 95.5q0 63 47 99t130 36h110v57q0 37 -28 62t-73 25q-61 0 -117 -27q-16 -7 -26 10l-6 9q-11 18 8 27q64 32 138 32t118.5 -37.5t44.5 -100.5v-215q0 -27 16 -42t46 -12zM207 40q35 0 70.5 16.5t57.5 43.5v109h-99q-62 0 -96.5 -23.5
t-34.5 -65.5q0 -38 27 -59t75 -21z" />
    <glyph glyph-name="adieresis" unicode="&#xe4;" horiz-adv-x="503" 
d="M150 552q-17 0 -31 12.5t-14 28.5t14 29t31 13q19 0 33 -12.5t14 -29.5q0 -16 -14 -28.5t-33 -12.5zM322 552q-18 0 -32 12.5t-14 28.5t14 29t32 13t32 -13t14 -29t-14 -28.5t-32 -12.5zM456 43q22 0 22 -18v-9q0 -18 -16 -22q-12 -4 -29 -4q-34 0 -58 19t-28 51
q-48 -70 -151 -70q-70 0 -109 34.5t-39 95.5q0 63 47 99t130 36h110v57q0 37 -28 62t-73 25q-61 0 -117 -27q-16 -7 -26 10l-6 9q-11 18 8 27q64 32 138 32t118.5 -37.5t44.5 -100.5v-215q0 -27 16 -42t46 -12zM207 40q35 0 70.5 16.5t57.5 43.5v109h-99q-62 0 -96.5 -23.5
t-34.5 -65.5q0 -38 27 -59t75 -21z" />
    <glyph glyph-name="aring" unicode="&#xe5;" horiz-adv-x="503" 
d="M238 483q-50 0 -75.5 25t-25.5 69q0 43 25.5 67.5t75.5 24.5q49 0 74.5 -25t25.5 -67q0 -43 -25.5 -68.5t-74.5 -25.5zM238 629q-52 0 -52 -52q0 -54 52 -54q51 0 51 54q0 52 -51 52zM456 43q22 0 22 -18v-9q0 -18 -16 -22q-12 -4 -29 -4q-34 0 -58 19t-28 51
q-48 -70 -151 -70q-70 0 -109 34.5t-39 95.5q0 63 47 99t130 36h110v57q0 37 -28 62t-73 25q-61 0 -117 -27q-16 -7 -26 10l-6 9q-11 18 8 27q64 32 138 32t118.5 -37.5t44.5 -100.5v-215q0 -27 16 -42t46 -12zM207 40q35 0 70.5 16.5t57.5 43.5v109h-99q-62 0 -96.5 -23.5
t-34.5 -65.5q0 -38 27 -59t75 -21z" />
    <glyph glyph-name="ae" unicode="&#xe6;" horiz-adv-x="743" 
d="M519 450q177 0 180 -212v-11q0 -24 -25 -24h-293q6 -87 46.5 -124.5t114.5 -37.5q56 0 109 27q12 7 17 -6l10 -20q5 -12 -4 -18q-59 -34 -131 -34q-135 0 -187 84q-57 -84 -170 -84q-70 0 -109.5 34t-39.5 96t47 98t130 36h109q0 3 0.5 9t0.5 8v39q0 89 -106 89
q-60 0 -113 -28q-12 -6 -18 5l-11 21q-6 11 3 16q63 37 141 37q114 0 149 -65q50 65 150 65zM380 249h264q0 150 -127 150q-55 0 -89 -30.5t-44 -87.5v-12h-2q-1 -3 -1.5 -10t-0.5 -10zM197 41q84 0 138 77q-13 41 -14 90h-93q-62 0 -97 -22.5t-35 -65.5q0 -79 101 -79z" />
    <glyph glyph-name="ccedilla" unicode="&#xe7;" horiz-adv-x="456" 
d="M266 450q66 0 109.5 -25t43.5 -65v-39q0 -13 -13 -13h-30q-13 0 -13 13v56q-37 23 -96 23q-160 0 -160 -180q0 -96 40.5 -138t123.5 -42q61 0 110 29q12 7 17 -5l12 -23q5 -12 -6 -17q-57 -34 -134 -34h-2l-12 -35q52 -6 80 -25t27 -56q0 -76 -106 -76q-52 0 -100 25
q-13 6 -6 19l5 12q6 9 18 5q42 -21 84 -21q55 0 55 34q0 41 -89 49q-20 3 -15 21l16 50q-177 22 -177 228q0 230 218 230z" />
    <glyph glyph-name="egrave" unicode="&#xe8;" horiz-adv-x="473" 
d="M152 583q-12 5 -6 17l18 32q7 12 17 5l163 -95q9 -6 3 -18l-6 -9q-7 -10 -18 -5zM250 450q173 0 175 -212v-13q0 -22 -22 -22h-296q6 -90 45.5 -126.5t113.5 -36.5q55 0 106 24q17 9 26 -8l4 -8q9 -19 -8 -27q-54 -31 -128 -31q-108 0 -163 54.5t-55 175.5
q0 113 51.5 171.5t150.5 58.5zM107 249h262q0 151 -122 151q-132 0 -140 -151z" />
    <glyph glyph-name="eacute" unicode="&#xe9;" horiz-adv-x="473" 
d="M169 522l-7 10q-6 10 3 16l152 88q9 6 16 -4l16 -30q7 -9 -5 -16l-160 -69q-11 -4 -15 5zM250 450q173 0 175 -212v-13q0 -22 -22 -22h-296q6 -90 45.5 -126.5t113.5 -36.5q55 0 106 24q17 9 26 -8l4 -8q9 -19 -8 -27q-54 -31 -128 -31q-108 0 -163 54.5t-55 175.5
q0 113 51.5 171.5t150.5 58.5zM107 249h262q0 151 -122 151q-132 0 -140 -151z" />
    <glyph glyph-name="ecircumflex" unicode="&#xea;" horiz-adv-x="473" 
d="M129 519q-8 0 -10 4.5t3 10.5l109 108q5 6 14 6h4q10 0 15 -6l110 -108q5 -6 3 -10.5t-10 -4.5h-29q-10 0 -17 7l-71 69l-73 -69q-7 -7 -17 -7h-31zM250 450q173 0 175 -212v-13q0 -22 -22 -22h-296q6 -90 45.5 -126.5t113.5 -36.5q55 0 106 24q17 9 26 -8l4 -8
q9 -19 -8 -27q-54 -31 -128 -31q-108 0 -163 54.5t-55 175.5q0 113 51.5 171.5t150.5 58.5zM107 249h262q0 151 -122 151q-132 0 -140 -151z" />
    <glyph glyph-name="edieresis" unicode="&#xeb;" horiz-adv-x="473" 
d="M160 552q-17 0 -31 12.5t-14 28.5t14 29t31 13q19 0 33 -12.5t14 -29.5q0 -16 -14 -28.5t-33 -12.5zM332 552q-18 0 -32 12.5t-14 28.5t14 29t32 13t32 -13t14 -29t-14 -28.5t-32 -12.5zM250 450q173 0 175 -212v-13q0 -22 -22 -22h-296q6 -90 45.5 -126.5t113.5 -36.5
q55 0 106 24q17 9 26 -8l4 -8q9 -19 -8 -27q-54 -31 -128 -31q-108 0 -163 54.5t-55 175.5q0 113 51.5 171.5t150.5 58.5zM107 249h262q0 151 -122 151q-132 0 -140 -151z" />
    <glyph glyph-name="igrave" unicode="&#xec;" horiz-adv-x="294" 
d="M245 524q6 12 -3 18l-163 95q-10 7 -17 -5l-18 -32q-6 -12 6 -17l171 -73q11 -5 18 5zM34 36q0 13 13 13h81v342h-81q-13 0 -13 13v23q0 13 13 13h108q33 0 33 -31v-360h77q13 0 13 -13v-23q0 -13 -13 -13h-218q-13 0 -13 13v23z" />
    <glyph glyph-name="iacute" unicode="&#xed;" horiz-adv-x="294" 
d="M241 586q12 7 5 16l-16 30q-7 10 -16 4l-152 -88q-9 -6 -3 -16l7 -10q4 -9 15 -5zM34 36q0 13 13 13h81v342h-81q-13 0 -13 13v23q0 13 13 13h108q33 0 33 -31v-360h77q13 0 13 -13v-23q0 -13 -13 -13h-218q-13 0 -13 13v23z" />
    <glyph glyph-name="icircumflex" unicode="&#xee;" horiz-adv-x="294" 
d="M271 534l-110 108q-5 6 -15 6h-4q-9 0 -14 -6l-109 -108q-5 -6 -3 -10.5t10 -4.5h31q10 0 17 7l73 69l71 -69q7 -7 17 -7h29q8 0 10 4.5t-3 10.5zM34 36q0 13 13 13h81v342h-81q-13 0 -13 13v23q0 13 13 13h108q33 0 33 -31v-360h77q13 0 13 -13v-23q0 -13 -13 -13h-218
q-13 0 -13 13v23z" />
    <glyph glyph-name="idieresis" unicode="&#xef;" horiz-adv-x="294" 
d="M57 635q19 0 33 -12.5t14 -29.5q0 -16 -14 -28.5t-33 -12.5q-17 0 -31 12.5t-14 28.5t14 29t31 13zM229 635q18 0 32 -13t14 -29t-14 -28.5t-32 -12.5t-32 12.5t-14 28.5t14 29t32 13zM34 36q0 13 13 13h81v342h-81q-13 0 -13 13v23q0 13 13 13h108q33 0 33 -31v-360h77
q13 0 13 -13v-23q0 -13 -13 -13h-218q-13 0 -13 13v23z" />
    <glyph glyph-name="eth" unicode="&#xf0;" horiz-adv-x="508" 
d="M131 720q7 10 18 3q59 -34 85 -57l72 49q10 7 18 -2l16 -18q9 -10 -2 -18l-69 -46q191 -168 191 -397q0 -243 -206 -243t-206 229q0 227 187 227q105 0 157 -83q-38 136 -163 232l-79 -54q-10 -7 -18 3l-15 17q-9 9 2 18l77 51q-44 32 -77 51q-12 7 -3 17zM242 396
q-136 0 -136 -177t148 -177q149 0 148 176q-1 41 -15.5 79.5t-52.5 68.5t-92 30z" />
    <glyph glyph-name="ntilde" unicode="&#xf1;" horiz-adv-x="607" 
d="M193 533l-13 14q-8 10 0 18q39 37 87 37q27 0 61 -17q32 -18 55 -18q26 0 55 24q10 8 17 -1l13 -15q9 -11 -1 -18q-39 -36 -84 -36q-28 0 -64 16q-36 18 -54 18q-27 0 -54 -24q-10 -8 -18 2zM583 49q13 0 13 -13v-23q0 -13 -13 -13h-107q-33 0 -33 30v272q0 98 -103 98
q-78 0 -152 -71v-280h82q13 0 13 -13v-23q0 -13 -13 -13h-221q-13 0 -13 13v23q0 13 13 13h80v342h-82q-13 0 -13 13v23q0 13 13 13h105q33 0 33 -28v-34q30 34 75 53t91 19q151 0 151 -144v-257h81z" />
    <glyph glyph-name="ograve" unicode="&#xf2;" horiz-adv-x="506" 
d="M352 524q6 12 -3 18l-163 95q-10 7 -17 -5l-18 -32q-6 -12 6 -17l171 -73q11 -5 18 5zM253 450q205 0 205 -230t-205 -230t-205 230t205 230zM253 40q75 0 110.5 43t35.5 137t-35.5 137t-110.5 43t-111 -43t-36 -137t36 -137t111 -43z" />
    <glyph glyph-name="oacute" unicode="&#xf3;" horiz-adv-x="506" 
d="M349 586q12 7 5 16l-16 30q-7 10 -16 4l-152 -88q-9 -6 -3 -16l7 -10q4 -9 15 -5zM253 450q205 0 205 -230t-205 -230t-205 230t205 230zM253 40q75 0 110.5 43t35.5 137t-35.5 137t-110.5 43t-111 -43t-36 -137t36 -137t111 -43z" />
    <glyph glyph-name="ocircumflex" unicode="&#xf4;" horiz-adv-x="506" 
d="M378 534l-110 108q-5 6 -15 6h-4q-9 0 -14 -6l-109 -108q-5 -6 -3 -10.5t10 -4.5h31q10 0 17 7l73 69l71 -69q7 -7 17 -7h29q8 0 10 4.5t-3 10.5zM253 450q205 0 205 -230t-205 -230t-205 230t205 230zM253 40q75 0 110.5 43t35.5 137t-35.5 137t-110.5 43t-111 -43
t-36 -137t36 -137t111 -43z" />
    <glyph glyph-name="otilde" unicode="&#xf5;" horiz-adv-x="506" 
d="M383 590q-7 9 -17 1q-29 -24 -55 -24q-23 0 -55 18q-34 17 -61 17q-48 0 -87 -37q-8 -8 0 -18l13 -14q8 -10 18 -2q27 24 54 24q18 0 54 -18q36 -16 64 -16q45 0 84 36q10 7 1 18zM253 450q205 0 205 -230t-205 -230t-205 230t205 230zM253 40q75 0 110.5 43t35.5 137
t-35.5 137t-110.5 43t-111 -43t-36 -137t36 -137t111 -43z" />
    <glyph glyph-name="odieresis" unicode="&#xf6;" horiz-adv-x="506" 
d="M165 635q19 0 33 -12.5t14 -29.5q0 -16 -14 -28.5t-33 -12.5q-17 0 -31 12.5t-14 28.5t14 29t31 13zM337 635q18 0 32 -13t14 -29t-14 -28.5t-32 -12.5t-32 12.5t-14 28.5t14 29t32 13zM253 450q205 0 205 -230t-205 -230t-205 230t205 230zM253 40q75 0 110.5 43
t35.5 137t-35.5 137t-110.5 43t-111 -43t-36 -137t36 -137t111 -43z" />
    <glyph glyph-name="divide" unicode="&#xf7;" horiz-adv-x="511" 
d="M299 482q0 -17 -12.5 -28.5t-30.5 -11.5q-19 0 -32 11.5t-13 28.5q0 16 13 27t32 11q17 0 30 -11t13 -27zM67 344q0 -13 13 -13h353q12 0 12 13v26q0 13 -12 13h-353q-13 0 -13 -13v-26zM299 236q0 -16 -13 -28t-30 -12q-19 0 -32 11.5t-13 28.5q0 16 13 27.5t32 11.5
q17 0 30 -11.5t13 -27.5z" />
    <glyph glyph-name="oslash" unicode="&#xf8;" horiz-adv-x="529" 
d="M475 444q12 -8 2 -18l-45 -51q38 -56 38 -155q0 -230 -205 -230q-87 0 -137 41l-42 -47q-7 -10 -18 -3l-14 10q-13 7 -3 19l47 53q-39 57 -39 157q0 230 206 230q90 0 139 -43l38 43q9 11 19 3zM118 220q0 -69 20 -112l229 258q-35 34 -102 34q-75 0 -111 -43t-36 -137z
M411 220q0 70 -19 109l-227 -257q35 -32 100 -32q75 0 110.5 43t35.5 137z" />
    <glyph glyph-name="ugrave" unicode="&#xf9;" horiz-adv-x="560" 
d="M378 524q6 12 -3 18l-163 95q-10 7 -17 -5l-18 -32q-6 -12 6 -17l171 -73q11 -5 18 5zM17 420q0 20 20 20h93q34 0 34 -29v-274q0 -97 96 -97q78 0 132 64v316q0 20 19 20h21q19 0 19 -20v-324q0 -26 16.5 -40t45.5 -12q22 1 22 -17v-11q0 -18 -15 -22q-12 -4 -28 -4
q-34 0 -60 19t-27 51q-52 -70 -155 -70q-69 0 -107 37t-38 107v257h-68q-20 0 -20 20v9z" />
    <glyph glyph-name="uacute" unicode="&#xfa;" horiz-adv-x="560" 
d="M375 586q12 7 5 16l-16 30q-7 10 -16 4l-152 -88q-9 -6 -3 -16l7 -10q4 -9 15 -5zM17 420q0 20 20 20h93q34 0 34 -29v-274q0 -97 96 -97q78 0 132 64v316q0 20 19 20h21q19 0 19 -20v-324q0 -26 16.5 -40t45.5 -12q22 1 22 -17v-11q0 -18 -15 -22q-12 -4 -28 -4
q-34 0 -60 19t-27 51q-52 -70 -155 -70q-69 0 -107 37t-38 107v257h-68q-20 0 -20 20v9z" />
    <glyph glyph-name="ucircumflex" unicode="&#xfb;" horiz-adv-x="560" 
d="M404 534l-110 108q-5 6 -15 6h-4q-9 0 -14 -6l-109 -108q-5 -6 -3 -10.5t10 -4.5h31q10 0 17 7l73 69l71 -69q7 -7 17 -7h29q8 0 10 4.5t-3 10.5zM17 420q0 20 20 20h93q34 0 34 -29v-274q0 -97 96 -97q78 0 132 64v316q0 20 19 20h21q19 0 19 -20v-324q0 -26 16.5 -40
t45.5 -12q22 1 22 -17v-11q0 -18 -15 -22q-12 -4 -28 -4q-34 0 -60 19t-27 51q-52 -70 -155 -70q-69 0 -107 37t-38 107v257h-68q-20 0 -20 20v9z" />
    <glyph glyph-name="udieresis" unicode="&#xfc;" horiz-adv-x="560" 
d="M191 635q19 0 33 -12.5t14 -29.5q0 -16 -14 -28.5t-33 -12.5q-17 0 -31 12.5t-14 28.5t14 29t31 13zM363 635q18 0 32 -13t14 -29t-14 -28.5t-32 -12.5t-32 12.5t-14 28.5t14 29t32 13zM17 420q0 20 20 20h93q34 0 34 -29v-274q0 -97 96 -97q78 0 132 64v316q0 20 19 20
h21q19 0 19 -20v-324q0 -26 16.5 -40t45.5 -12q22 1 22 -17v-11q0 -18 -15 -22q-12 -4 -28 -4q-34 0 -60 19t-27 51q-52 -70 -155 -70q-69 0 -107 37t-38 107v257h-68q-20 0 -20 20v9z" />
    <glyph glyph-name="yacute" unicode="&#xfd;" horiz-adv-x="562" 
d="M206 522l-7 10q-6 10 3 16l152 88q9 6 16 -4l16 -30q7 -9 -5 -16l-160 -69q-11 -4 -15 5zM539 440q12 0 12 -13v-23q0 -13 -12 -13h-67l-200 -499q-18 -44 -52.5 -68t-78.5 -24q-19 0 -37 3q-21 4 -16 25l2 8q4 20 23 17q18 -2 26 -2q58 0 81 53l47 104h-7q-19 0 -28 19
l-144 364h-65q-12 0 -12 13v23q0 13 12 13h191q13 0 13 -13v-23q0 -13 -13 -13h-62l128 -336l131 336h-60q-12 0 -12 13v23q0 13 12 13h188z" />
    <glyph glyph-name="thorn" unicode="&#xfe;" horiz-adv-x="527" 
d="M310 450q87 0 128.5 -56.5t41.5 -173.5t-46 -173.5t-143 -56.5q-83 0 -147 69l1 -209h78q12 0 12 -13v-23q0 -13 -12 -13h-219q-13 0 -13 13v23q0 13 13 13h82v834h-82q-12 0 -12 12v23q0 13 12 13h219q13 0 13 -13v-23q0 -12 -13 -12h-80l1 -303q64 69 166 69zM292 40
q66 0 97.5 44t31.5 136t-30 136t-93 44q-83 0 -154 -73v-214q71 -73 148 -73z" />
    <glyph glyph-name="ydieresis" unicode="&#xff;" horiz-adv-x="562" 
d="M197 552q-17 0 -31 12.5t-14 28.5t14 29t31 13q19 0 33 -12.5t14 -29.5q0 -16 -14 -28.5t-33 -12.5zM369 552q-18 0 -32 12.5t-14 28.5t14 29t32 13t32 -13t14 -29t-14 -28.5t-32 -12.5zM539 440q12 0 12 -13v-23q0 -13 -12 -13h-67l-200 -499q-18 -44 -52.5 -68
t-78.5 -24q-19 0 -37 3q-21 4 -16 25l2 8q4 20 23 17q18 -2 26 -2q58 0 81 53l47 104h-7q-19 0 -28 19l-144 364h-65q-12 0 -12 13v23q0 13 12 13h191q13 0 13 -13v-23q0 -13 -13 -13h-62l128 -336l131 336h-60q-12 0 -12 13v23q0 13 12 13h188z" />
    <glyph glyph-name="Amacron" unicode="&#x100;" horiz-adv-x="724" 
d="M228 818q-13 0 -13 13v24q0 13 13 13h270q13 0 13 -13v-24q0 -13 -13 -13h-270zM712 49q17 0 17 -17v-16q0 -16 -17 -16h-204q-17 0 -17 16v16q0 17 17 17h78l-56 156h-340l-57 -156h83q16 0 16 -17v-16q0 -16 -16 -16h-205q-16 0 -16 16v16q0 17 16 17h63l245 665
q6 16 23 16h38q18 0 24 -16l246 -665h62zM208 255h303l-151 418z" />
    <glyph glyph-name="amacron" unicode="&#x101;" horiz-adv-x="503" 
d="M102 528q-13 0 -13 13v24q0 13 13 13h270q13 0 13 -13v-24q0 -13 -13 -13h-270zM456 43q22 0 22 -18v-9q0 -18 -16 -22q-12 -4 -29 -4q-34 0 -58 19t-28 51q-48 -70 -151 -70q-70 0 -109 34.5t-39 95.5q0 63 47 99t130 36h110v57q0 37 -28 62t-73 25q-61 0 -117 -27
q-16 -7 -26 10l-6 9q-11 18 8 27q64 32 138 32t118.5 -37.5t44.5 -100.5v-215q0 -27 16 -42t46 -12zM207 40q35 0 70.5 16.5t57.5 43.5v109h-99q-62 0 -96.5 -23.5t-34.5 -65.5q0 -38 27 -59t75 -21z" />
    <glyph glyph-name="Abreve" unicode="&#x102;" horiz-adv-x="724" 
d="M361 784q-43 0 -73.5 20.5t-38.5 60.5q-2 14 6 14l17 2q6 0 10 -12q5 -28 27.5 -43t51.5 -15q70 0 80 57q2 6 4 9.5t6 2.5l18 -1q8 -2 7 -14q-7 -40 -38 -60.5t-77 -20.5zM712 49q17 0 17 -17v-16q0 -16 -17 -16h-204q-17 0 -17 16v16q0 17 17 17h78l-56 156h-340
l-57 -156h83q16 0 16 -17v-16q0 -16 -16 -16h-205q-16 0 -16 16v16q0 17 16 17h63l245 665q6 16 23 16h38q18 0 24 -16l246 -665h62zM208 255h303l-151 418z" />
    <glyph glyph-name="abreve" unicode="&#x103;" horiz-adv-x="503" 
d="M236 527q-43 0 -73.5 20.5t-38.5 60.5q-2 14 6 14l17 2q6 0 10 -12q5 -28 27.5 -43t51.5 -15q70 0 80 57q2 6 4 9.5t6 2.5l18 -1q8 -2 7 -14q-7 -40 -38 -60.5t-77 -20.5zM456 43q22 0 22 -18v-9q0 -18 -16 -22q-12 -4 -29 -4q-34 0 -58 19t-28 51q-48 -70 -151 -70
q-70 0 -109 34.5t-39 95.5q0 63 47 99t130 36h110v57q0 37 -28 62t-73 25q-61 0 -117 -27q-16 -7 -26 10l-6 9q-11 18 8 27q64 32 138 32t118.5 -37.5t44.5 -100.5v-215q0 -27 16 -42t46 -12zM207 40q35 0 70.5 16.5t57.5 43.5v109h-99q-62 0 -96.5 -23.5t-34.5 -65.5
q0 -38 27 -59t75 -21z" />
    <glyph glyph-name="Aogonek" unicode="&#x104;" horiz-adv-x="724" 
d="M712 49q17 0 17 -17v-16q0 -16 -17 -16h-71q-28 -27 -39.5 -39.5t-26 -35.5t-14.5 -42q0 -17 10.5 -28t30.5 -11q22 0 41 13q10 7 18 -2l8 -8q9 -9 -1 -18q-34 -27 -74 -27q-32 0 -57 17.5t-25 54.5q0 54 78 126h-82q-17 0 -17 16v16q0 17 17 17h78l-56 156h-340
l-57 -156h83q16 0 16 -17v-16q0 -16 -16 -16h-205q-16 0 -16 16v16q0 17 16 17h63l245 665q6 16 23 16h38q18 0 24 -16l246 -665h62zM208 255h303l-151 418z" />
    <glyph glyph-name="aogonek" unicode="&#x105;" horiz-adv-x="503" 
d="M482 -167q8 -9 -1 -18q-34 -27 -74 -27q-32 0 -57 17.5t-25 54.5q0 34 22.5 65t62.5 68q-25 5 -42 23t-21 44q-48 -70 -151 -70q-70 0 -109 34.5t-39 95.5q0 63 47 99t130 36h110v57q0 37 -28 62t-73 25q-61 0 -117 -27q-16 -7 -26 10l-6 9q-11 18 8 27q64 32 138 32
t118.5 -37.5t44.5 -100.5v-215q0 -27 16 -42t46 -12q22 0 22 -18v-9q0 -18 -16 -22q-3 -3 -13.5 -13t-14 -13.5t-12.5 -13t-13 -14.5t-11 -13.5t-10 -14.5t-7 -13.5t-5.5 -15t-1.5 -14.5q0 -17 10.5 -28t30.5 -11q21 0 41 13q10 7 18 -2zM207 40q35 0 70.5 16.5t57.5 43.5
v109h-99q-62 0 -96.5 -23.5t-34.5 -65.5q0 -38 27 -59t75 -21z" />
    <glyph glyph-name="Cacute" unicode="&#x106;" horiz-adv-x="668" 
d="M502 840q12 7 5 16l-17 31q-7 10 -16 4l-155 -90q-9 -6 -3 -16l7 -10q4 -9 16 -5zM563 648q-50 38 -178 38q-126 0 -195 -84t-69 -237q0 -154 68 -237.5t193 -83.5q132 0 182 41v52q0 17 17 17h23q16 0 16 -17v-42q0 -43 -63 -74t-177 -31q-155 0 -238.5 97.5
t-83.5 277.5t85.5 277.5t241.5 97.5q114 0 174.5 -31t60.5 -70v-73q0 -16 -16 -16h-25q-16 0 -16 16v82z" />
    <glyph glyph-name="cacute" unicode="&#x107;" horiz-adv-x="456" 
d="M362 586q12 7 5 16l-16 30q-7 10 -16 4l-152 -88q-9 -6 -3 -16l7 -10q4 -9 15 -5zM266 450q66 0 109.5 -25t43.5 -65v-39q0 -13 -13 -13h-30q-13 0 -13 13v56q-37 23 -96 23q-160 0 -160 -180q0 -96 40.5 -138t123.5 -42q61 0 110 29q12 7 17 -5l12 -23q5 -12 -6 -17
q-57 -34 -134 -34q-110 0 -166 54.5t-56 175.5q0 230 218 230z" />
    <glyph glyph-name="Ccircumflex" unicode="&#x108;" horiz-adv-x="668" 
d="M262 794q-5 -6 -3 -10.5t10 -4.5h29q10 0 17 7l71 69l73 -69q7 -7 17 -7h31q8 0 10 4.5t-3 10.5l-109 108q-5 6 -14 6h-4q-10 0 -15 -6zM563 648q-50 38 -178 38q-126 0 -195 -84t-69 -237q0 -154 68 -237.5t193 -83.5q132 0 182 41v52q0 17 17 17h23q16 0 16 -17v-42
q0 -43 -63 -74t-177 -31q-155 0 -238.5 97.5t-83.5 277.5t85.5 277.5t241.5 97.5q114 0 174.5 -31t60.5 -70v-73q0 -16 -16 -16h-25q-16 0 -16 16v82z" />
    <glyph glyph-name="ccircumflex" unicode="&#x109;" horiz-adv-x="456" 
d="M391 534l-110 108q-5 6 -15 6h-4q-9 0 -14 -6l-109 -108q-5 -6 -3 -10.5t10 -4.5h31q10 0 17 7l73 69l71 -69q7 -7 17 -7h29q8 0 10 4.5t-3 10.5zM266 450q66 0 109.5 -25t43.5 -65v-39q0 -13 -13 -13h-30q-13 0 -13 13v56q-37 23 -96 23q-160 0 -160 -180
q0 -96 40.5 -138t123.5 -42q61 0 110 29q12 7 17 -5l12 -23q5 -12 -6 -17q-57 -34 -134 -34q-110 0 -166 54.5t-56 175.5q0 230 218 230z" />
    <glyph glyph-name="Cdot" unicode="&#x10a;" horiz-adv-x="668" 
d="M342 835q0 17 13.5 29t31.5 12q19 0 32.5 -12t13.5 -29t-13.5 -28.5t-32.5 -11.5q-18 0 -31.5 12t-13.5 28zM563 648q-50 38 -178 38q-126 0 -195 -84t-69 -237q0 -154 68 -237.5t193 -83.5q132 0 182 41v52q0 17 17 17h23q16 0 16 -17v-42q0 -43 -63 -74t-177 -31
q-155 0 -238.5 97.5t-83.5 277.5t85.5 277.5t241.5 97.5q114 0 174.5 -31t60.5 -70v-73q0 -16 -16 -16h-25q-16 0 -16 16v82z" />
    <glyph glyph-name="cdot" unicode="&#x10b;" horiz-adv-x="456" 
d="M220 591q0 18 12.5 30t31.5 12q20 0 33 -12t13 -30t-13 -30t-33 -12q-19 0 -31.5 12t-12.5 30zM266 450q66 0 109.5 -25t43.5 -65v-39q0 -13 -13 -13h-30q-13 0 -13 13v56q-37 23 -96 23q-160 0 -160 -180q0 -96 40.5 -138t123.5 -42q61 0 110 29q12 7 17 -5l12 -23
q5 -12 -6 -17q-57 -34 -134 -34q-110 0 -166 54.5t-56 175.5q0 230 218 230z" />
    <glyph glyph-name="Ccaron" unicode="&#x10c;" horiz-adv-x="668" 
d="M513 886q6 7 4 11.5t-10 4.5h-30q-7 0 -16 -7l-71 -69l-74 69q-7 7 -16 7h-31q-8 0 -10.5 -4.5t3.5 -11.5l109 -108q6 -6 14 -6h4q9 0 14 6zM563 648q-50 38 -178 38q-126 0 -195 -84t-69 -237q0 -154 68 -237.5t193 -83.5q132 0 182 41v52q0 17 17 17h23q16 0 16 -17
v-42q0 -43 -63 -74t-177 -31q-155 0 -238.5 97.5t-83.5 277.5t85.5 277.5t241.5 97.5q114 0 174.5 -31t60.5 -70v-73q0 -16 -16 -16h-25q-16 0 -16 16v82z" />
    <glyph glyph-name="ccaron" unicode="&#x10d;" horiz-adv-x="456" 
d="M390 623q6 7 4 11.5t-10 4.5h-30q-7 0 -16 -7l-71 -69l-74 69q-7 7 -16 7h-31q-8 0 -10.5 -4.5t3.5 -11.5l109 -108q6 -6 14 -6h4q10 0 14 6zM266 450q66 0 109.5 -25t43.5 -65v-39q0 -13 -13 -13h-30q-13 0 -13 13v56q-37 23 -96 23q-160 0 -160 -180q0 -96 40.5 -138
t123.5 -42q61 0 110 29q12 7 17 -5l12 -23q5 -12 -6 -17q-57 -34 -134 -34q-110 0 -166 54.5t-56 175.5q0 230 218 230z" />
    <glyph glyph-name="Dcaron" unicode="&#x10e;" horiz-adv-x="759" 
d="M506 884q6 7 4 11.5t-10 4.5h-30q-7 0 -16 -7l-71 -69l-74 69q-7 7 -16 7h-31q-8 0 -10.5 -4.5t3.5 -11.5l109 -108q6 -6 14 -6h4q10 0 14 6zM54 714q0 16 16 16h236q202 0 298 -88.5t96 -274.5q0 -367 -381 -367h-249q-16 0 -16 16v16q0 17 16 17h75v632h-75
q-16 0 -16 17v16zM638 367q0 161 -80 237.5t-248 76.5h-104v-632h112q320 2 320 318z" />
    <glyph glyph-name="dcaron" unicode="&#x10f;" horiz-adv-x="548" 
d="M578 799q23 -108 -29 -189q-6 -9 -18 -7l-11 2q-13 4 -6 17q30 72 10 167q-4 13 10 15l29 5q12 1 15 -10zM506 44q22 2 22 -18v-10q0 -18 -15 -22q-13 -4 -29 -4q-36 0 -61 19.5t-27 58.5q-68 -78 -160 -78q-96 0 -142 56.5t-46 173.5q0 118 43.5 174t139.5 56
q89 0 154 -67v298h-83q-13 0 -13 13v23q0 12 13 12h108q34 0 34 -29v-605q0 -27 17 -40.5t45 -10.5zM236 40q78 0 149 71v218q-71 71 -155 71q-63 0 -93.5 -44t-30.5 -136t31.5 -136t98.5 -44z" />
    <glyph glyph-name="Dcroat" unicode="&#x110;" horiz-adv-x="759" 
d="M306 730q202 0 298 -88.5t96 -274.5q0 -367 -381 -367h-249q-16 0 -16 16v16q0 17 16 17h75v299h-58q-13 0 -13 13v20q0 13 13 13h58v287h-75q-16 0 -16 17v16q0 16 16 16h236zM318 49q320 2 320 318q0 161 -80 237.5t-248 76.5h-104v-287h142q13 0 13 -13v-20
q0 -13 -13 -13h-142v-299h112z" />
    <glyph glyph-name="dcroat" unicode="&#x111;" horiz-adv-x="552" 
d="M506 44q22 2 22 -18v-10q0 -18 -15 -22q-13 -4 -29 -4q-36 0 -61 19.5t-27 58.5q-68 -78 -160 -78q-96 0 -142 56.5t-46 173.5q0 118 43.5 174t139.5 56q89 0 154 -67v152h-127q-13 0 -13 13v20q0 13 13 13h127v100h-83q-13 0 -13 13v23q0 12 13 12h108q34 0 34 -29v-119
h56q13 0 13 -13v-20q0 -13 -13 -13h-56v-440q0 -27 17 -40.5t45 -10.5zM236 40q78 0 149 71v218q-71 71 -155 71q-63 0 -93.5 -44t-30.5 -136t31.5 -136t98.5 -44z" />
    <glyph glyph-name="Emacron" unicode="&#x112;" horiz-adv-x="650" 
d="M491 818q13 0 13 13v24q0 13 -13 13h-270q-13 0 -13 -13v-24q0 -13 13 -13h270zM537 681h-330v-303h300q16 0 16 -17v-17q0 -16 -16 -16h-300v-279h346v48q0 16 16 16h19q16 0 16 -16v-69q0 -28 -28 -28h-506q-16 0 -16 16v16q0 17 16 17h76v632h-76q-16 0 -16 17v16
q0 16 16 16h496q28 0 28 -28v-90q0 -16 -16 -16h-24q-17 0 -17 16v69z" />
    <glyph glyph-name="emacron" unicode="&#x113;" horiz-adv-x="473" 
d="M112 528q-13 0 -13 13v24q0 13 13 13h270q13 0 13 -13v-24q0 -13 -13 -13h-270zM250 450q173 0 175 -212v-13q0 -22 -22 -22h-296q6 -90 45.5 -126.5t113.5 -36.5q55 0 106 24q17 9 26 -8l4 -8q9 -19 -8 -27q-54 -31 -128 -31q-108 0 -163 54.5t-55 175.5
q0 113 51.5 171.5t150.5 58.5zM107 249h262q0 151 -122 151q-132 0 -140 -151z" />
    <glyph glyph-name="Ebreve" unicode="&#x114;" horiz-adv-x="650" 
d="M445 880q-4 1 -6 -2.5t-4 -9.5q-10 -57 -80 -57q-29 0 -51.5 15t-27.5 43q-4 12 -10 12l-17 -2q-8 0 -6 -14q8 -40 38.5 -60.5t73.5 -20.5q46 0 77 20.5t38 60.5q1 12 -7 14zM537 681h-330v-303h300q16 0 16 -17v-17q0 -16 -16 -16h-300v-279h346v48q0 16 16 16h19
q16 0 16 -16v-69q0 -28 -28 -28h-506q-16 0 -16 16v16q0 17 16 17h76v632h-76q-16 0 -16 17v16q0 16 16 16h496q28 0 28 -28v-90q0 -16 -16 -16h-24q-17 0 -17 16v69z" />
    <glyph glyph-name="ebreve" unicode="&#x115;" horiz-adv-x="473" 
d="M246 527q-43 0 -73.5 20.5t-38.5 60.5q-2 14 6 14l17 2q6 0 10 -12q5 -28 27.5 -43t51.5 -15q70 0 80 57q2 6 4 9.5t6 2.5l18 -1q8 -2 7 -14q-7 -40 -38 -60.5t-77 -20.5zM250 450q173 0 175 -212v-13q0 -22 -22 -22h-296q6 -90 45.5 -126.5t113.5 -36.5q55 0 106 24
q17 9 26 -8l4 -8q9 -19 -8 -27q-54 -31 -128 -31q-108 0 -163 54.5t-55 175.5q0 113 51.5 171.5t150.5 58.5zM107 249h262q0 151 -122 151q-132 0 -140 -151z" />
    <glyph glyph-name="Edot" unicode="&#x116;" horiz-adv-x="650" 
d="M311 833q0 17 13.5 29t31.5 12q19 0 32.5 -12t13.5 -29t-13.5 -28.5t-32.5 -11.5q-18 0 -31.5 12t-13.5 28zM537 681h-330v-303h300q16 0 16 -17v-17q0 -16 -16 -16h-300v-279h346v48q0 16 16 16h19q16 0 16 -16v-69q0 -28 -28 -28h-506q-16 0 -16 16v16q0 17 16 17h76
v632h-76q-16 0 -16 17v16q0 16 16 16h496q28 0 28 -28v-90q0 -16 -16 -16h-24q-17 0 -17 16v69z" />
    <glyph glyph-name="edot" unicode="&#x117;" horiz-adv-x="473" 
d="M246 549q-19 0 -31.5 12t-12.5 30t12.5 30t31.5 12q20 0 33 -12t13 -30t-13 -30t-33 -12zM250 450q173 0 175 -212v-13q0 -22 -22 -22h-296q6 -90 45.5 -126.5t113.5 -36.5q55 0 106 24q17 9 26 -8l4 -8q9 -19 -8 -27q-54 -31 -128 -31q-108 0 -163 54.5t-55 175.5
q0 113 51.5 171.5t150.5 58.5zM107 249h262q0 151 -122 151q-132 0 -140 -151z" />
    <glyph glyph-name="Eogonek" unicode="&#x118;" horiz-adv-x="650" 
d="M614 -157q8 -9 -1 -18q-34 -27 -74 -27q-32 0 -57 17.5t-25 54.5q0 54 82 130h-469q-16 0 -16 16v16q0 17 16 17h76v632h-76q-16 0 -16 17v16q0 16 16 16h496q28 0 28 -28v-90q0 -16 -16 -16h-24q-17 0 -17 16v69h-330v-303h300q16 0 16 -17v-17q0 -16 -16 -16h-300v-279
h346v48q0 16 16 16h19q16 0 16 -16v-69q0 -16 -10 -22l1 -1q-4 -4 -17 -16.5t-18.5 -18.5t-16 -17t-15.5 -18.5t-11 -17.5t-8.5 -19.5t-2.5 -18.5q0 -17 10.5 -28t30.5 -11q21 0 41 13q10 7 18 -2z" />
    <glyph glyph-name="eogonek" unicode="&#x119;" horiz-adv-x="473" 
d="M250 450q173 0 175 -212v-13q0 -22 -22 -22h-296q6 -90 45.5 -126.5t113.5 -36.5q55 0 106 24q17 9 26 -8l4 -8q9 -19 -8 -27l-19.5 -19.5l-21.5 -21.5t-18 -19.5t-16.5 -22t-9 -20t-4.5 -22.5q0 -17 10.5 -28t30.5 -11q22 0 41 13q10 6 18 -2l8 -8q9 -8 -1 -18
q-36 -27 -74 -27q-32 0 -57 17.5t-25 54.5q0 48 59 107q-21 -4 -49 -4q-108 0 -163 54.5t-55 175.5q0 113 51.5 171.5t150.5 58.5zM107 249h262q0 151 -122 151q-132 0 -140 -151z" />
    <glyph glyph-name="Ecaron" unicode="&#x11a;" horiz-adv-x="650" 
d="M482 884q6 7 4 11.5t-10 4.5h-30q-7 0 -16 -7l-71 -69l-74 69q-7 7 -16 7h-31q-8 0 -10.5 -4.5t3.5 -11.5l109 -108q6 -6 14 -6h4q10 0 14 6zM537 681h-330v-303h300q16 0 16 -17v-17q0 -16 -16 -16h-300v-279h346v48q0 16 16 16h19q16 0 16 -16v-69q0 -28 -28 -28h-506
q-16 0 -16 16v16q0 17 16 17h76v632h-76q-16 0 -16 17v16q0 16 16 16h496q28 0 28 -28v-90q0 -16 -16 -16h-24q-17 0 -17 16v69z" />
    <glyph glyph-name="ecaron" unicode="&#x11b;" horiz-adv-x="473" 
d="M230 515l-109 108q-6 7 -3.5 11.5t10.5 4.5h31q9 0 16 -7l74 -69l71 69q9 7 16 7h30q8 0 10 -4.5t-4 -11.5l-110 -108q-4 -6 -14 -6h-4q-8 0 -14 6zM250 450q173 0 175 -212v-13q0 -22 -22 -22h-296q6 -90 45.5 -126.5t113.5 -36.5q55 0 106 24q17 9 26 -8l4 -8
q9 -19 -8 -27q-54 -31 -128 -31q-108 0 -163 54.5t-55 175.5q0 113 51.5 171.5t150.5 58.5zM107 249h262q0 151 -122 151q-132 0 -140 -151z" />
    <glyph glyph-name="Gcircumflex" unicode="&#x11c;" horiz-adv-x="668" 
d="M259 792q-5 -6 -3 -10.5t10 -4.5h29q10 0 17 7l71 69l73 -69q7 -7 17 -7h31q8 0 10 4.5t-3 10.5l-109 108q-5 6 -14 6h-4q-10 0 -15 -6zM379 740q115 0 173 -32t58 -70v-67q0 -20 -20 -20h-17q-19 0 -19 20v79q-59 36 -173 36q-122 0 -191 -87.5t-69 -233.5t66 -233.5
t182 -87.5q115 0 191 35v197h-118q-20 0 -20 20v15q0 20 20 20h151q27 0 27 -28v-229q0 -24 -19 -34q-91 -50 -230 -50q-147 0 -230 101.5t-83 273.5t85 273.5t236 101.5z" />
    <glyph glyph-name="gcircumflex" unicode="&#x11d;" horiz-adv-x="525" 
d="M154 519q-8 0 -10 4.5t3 10.5l109 108q5 6 14 6h4q10 0 15 -6l110 -108q5 -6 3 -10.5t-10 -4.5h-29q-10 0 -17 7l-71 69l-73 -69q-7 -7 -17 -7h-31zM429 451q18 0 18 -20v-470q0 -161 -176 -161q-75 0 -138 30q-17 8 -9 26l5 12q6 19 25 9q61 -26 117 -26q117 0 117 99
v110q-66 -70 -152 -70q-96 0 -142 56.5t-46 173.5q0 118 43.5 174t139.5 56q91 0 157 -70v6l17 55q3 10 14 10h10zM236 40q78 0 152 74v212q-75 75 -158 75q-124 0 -124 -181q0 -92 31.5 -136t98.5 -44z" />
    <glyph glyph-name="Gbreve" unicode="&#x11e;" horiz-adv-x="668" 
d="M473 880q-4 1 -6 -2.5t-4 -9.5q-10 -57 -80 -57q-29 0 -51.5 15t-27.5 43q-4 12 -10 12l-17 -2q-8 0 -6 -14q8 -40 38.5 -60.5t73.5 -20.5q46 0 77 20.5t38 60.5q1 12 -7 14zM379 740q115 0 173 -32t58 -70v-67q0 -20 -20 -20h-17q-19 0 -19 20v79q-59 36 -173 36
q-122 0 -191 -87.5t-69 -233.5t66 -233.5t182 -87.5q115 0 191 35v197h-118q-20 0 -20 20v15q0 20 20 20h151q27 0 27 -28v-229q0 -24 -19 -34q-91 -50 -230 -50q-147 0 -230 101.5t-83 273.5t85 273.5t236 101.5z" />
    <glyph glyph-name="gbreve" unicode="&#x11f;" horiz-adv-x="525" 
d="M271 527q-43 0 -73.5 20.5t-38.5 60.5q-2 14 6 14l17 2q6 0 10 -12q5 -28 27.5 -43t51.5 -15q70 0 80 57q2 6 4 9.5t6 2.5l18 -1q8 -2 7 -14q-7 -40 -38 -60.5t-77 -20.5zM429 451q18 0 18 -20v-470q0 -161 -176 -161q-75 0 -138 30q-17 8 -9 26l5 12q6 19 25 9
q61 -26 117 -26q117 0 117 99v110q-66 -70 -152 -70q-96 0 -142 56.5t-46 173.5q0 118 43.5 174t139.5 56q91 0 157 -70v6l17 55q3 10 14 10h10zM236 40q78 0 152 74v212q-75 75 -158 75q-124 0 -124 -181q0 -92 31.5 -136t98.5 -44z" />
    <glyph glyph-name="Gdot" unicode="&#x120;" horiz-adv-x="668" 
d="M339 833q0 17 13.5 29t31.5 12q19 0 32.5 -12t13.5 -29t-13.5 -28.5t-32.5 -11.5q-18 0 -31.5 12t-13.5 28zM379 740q115 0 173 -32t58 -70v-67q0 -20 -20 -20h-17q-19 0 -19 20v79q-59 36 -173 36q-122 0 -191 -87.5t-69 -233.5t66 -233.5t182 -87.5q115 0 191 35v197
h-118q-20 0 -20 20v15q0 20 20 20h151q27 0 27 -28v-229q0 -24 -19 -34q-91 -50 -230 -50q-147 0 -230 101.5t-83 273.5t85 273.5t236 101.5z" />
    <glyph glyph-name="gdot" unicode="&#x121;" horiz-adv-x="525" 
d="M272 551q-19 0 -32 12.5t-13 30.5t13 30.5t32 12.5q20 0 33.5 -12.5t13.5 -30.5t-13.5 -30.5t-33.5 -12.5zM429 451q18 0 18 -20v-470q0 -161 -176 -161q-75 0 -138 30q-17 8 -9 26l5 12q6 19 25 9q61 -26 117 -26q117 0 117 99v110q-66 -70 -152 -70q-96 0 -142 56.5
t-46 173.5q0 118 43.5 174t139.5 56q91 0 157 -70v6l17 55q3 10 14 10h10zM236 40q78 0 152 74v212q-75 75 -158 75q-124 0 -124 -181q0 -92 31.5 -136t98.5 -44z" />
    <glyph glyph-name="Gcedilla" unicode="&#x122;" horiz-adv-x="668" 
d="M379 740q115 0 173 -32t58 -70v-67q0 -20 -20 -20h-17q-19 0 -19 20v79q-59 36 -173 36q-122 0 -191 -87.5t-69 -233.5t66 -233.5t182 -87.5q115 0 191 35v197h-118q-20 0 -20 20v15q0 20 20 20h151q27 0 27 -28v-229q0 -24 -19 -34q-91 -50 -230 -50q-147 0 -230 101.5
t-83 273.5t85 273.5t236 101.5zM436 -86q0 25 -13.5 39.5t-36.5 14.5q-20 0 -33 -12.5t-13 -32.5q0 -18 14 -30t32 -12q-5 -31 -40 -48q-11 -6 -4 -16l4 -6q7 -10 21 -3q69 38 69 106z" />
    <glyph glyph-name="gcedilla" unicode="&#x123;" horiz-adv-x="525" 
d="M265 514q-20 0 -32.5 14t-12.5 36q0 63 63 98q13 5 20 -3l4 -5q5 -11 -5 -15q-32 -17 -37 -45q18 0 31 -11.5t13 -27.5q0 -17 -12.5 -29t-31.5 -12zM429 451q18 0 18 -20v-470q0 -161 -176 -161q-75 0 -138 30q-17 8 -9 26l5 12q6 19 25 9q61 -26 117 -26q117 0 117 99
v110q-66 -70 -152 -70q-96 0 -142 56.5t-46 173.5q0 118 43.5 174t139.5 56q91 0 157 -70v6l17 55q3 10 14 10h10zM236 40q78 0 152 74v212q-75 75 -158 75q-124 0 -124 -181q0 -92 31.5 -136t98.5 -44z" />
    <glyph glyph-name="Hcircumflex" unicode="&#x124;" horiz-adv-x="845" 
d="M298 792q-5 -6 -3 -10.5t10 -4.5h29q10 0 17 7l71 69l73 -69q7 -7 17 -7h31q8 0 10 4.5t-3 10.5l-109 108q-5 6 -14 6h-4q-10 0 -15 -6zM698 681v-632h82q13 0 13 -13v-23q0 -13 -13 -13h-227q-13 0 -13 13v23q0 13 13 13h84v288h-431v-288h83q13 0 13 -13v-23
q0 -13 -13 -13h-222q-13 0 -13 13v23q0 13 13 13h79v632h-79q-13 0 -13 13v23q0 13 13 13h222q13 0 13 -13v-23q0 -13 -13 -13h-83v-292h431v292h-84q-13 0 -13 13v23q0 13 13 13h227q13 0 13 -13v-23q0 -13 -13 -13h-82z" />
    <glyph glyph-name="hcircumflex" unicode="&#x125;" horiz-adv-x="590" 
d="M57 784q-7 -7 -17 -7h-29q-8 0 -10 4.5t3 10.5l110 108q5 6 15 6h4q9 0 14 -6l109 -108q5 -6 3 -10.5t-10 -4.5h-31q-10 0 -17 7l-73 69zM566 49q13 0 13 -13v-23q0 -13 -13 -13h-108q-33 0 -33 30v272q0 98 -104 98q-79 0 -150 -70v-281h78q13 0 13 -13v-23
q0 -13 -13 -13h-219q-13 0 -13 13v23q0 13 13 13h81v632h-81q-13 0 -13 13v23q0 13 13 13h107q34 0 34 -30v-318q30 32 74 50t88 18q152 0 152 -144v-257h81z" />
    <glyph glyph-name="Hbar" unicode="&#x126;" horiz-adv-x="845" 
d="M780 681h-82v-104h58q16 0 16 -12v-23q0 -13 -13 -13h-61v-480h82q13 0 13 -13v-23q0 -13 -13 -13h-227q-13 0 -13 13v23q0 13 13 13h84v288h-431v-288h83q13 0 13 -13v-23q0 -13 -13 -13h-222q-13 0 -13 13v23q0 13 13 13h79v480h-56q-13 0 -13 13v23q0 12 13 12h56v104
h-79q-13 0 -13 13v23q0 13 13 13h222q13 0 13 -13v-23q0 -13 -13 -13h-83v-104h431v104h-84q-13 0 -13 13v23q0 13 13 13h227q13 0 13 -13v-23q0 -13 -13 -13zM637 389v140h-431v-140h431z" />
    <glyph glyph-name="hbar" unicode="&#x127;" horiz-adv-x="585" 
d="M566 49q13 0 13 -13v-23q0 -13 -13 -13h-108q-33 0 -33 30v272q0 98 -104 98q-79 0 -150 -70v-281h78q13 0 13 -13v-23q0 -13 -13 -13h-219q-13 0 -13 13v23q0 13 13 13h81v487h-67q-12 0 -12 13v22q0 13 12 13h67v97h-81q-13 0 -13 13v23q0 13 13 13h107q34 0 34 -30
v-116h126q13 0 13 -13v-22q0 -13 -13 -13h-126v-154q30 32 74 50t88 18q152 0 152 -144v-257h81z" />
    <glyph glyph-name="Itilde" unicode="&#x128;" horiz-adv-x="362" 
d="M313 858q-7 9 -17 1q-29 -24 -55 -24q-23 0 -55 18q-34 17 -61 17q-48 0 -87 -37q-8 -8 0 -18l13 -14q8 -10 18 -2q27 24 54 24q18 0 54 -18q36 -16 64 -16q45 0 84 36q10 7 1 18zM54 717q0 13 13 13h230q13 0 13 -13v-23q0 -13 -13 -13h-84v-632h84q13 0 13 -13v-23
q0 -13 -13 -13h-230q-13 0 -13 13v23q0 13 13 13h85v632h-85q-13 0 -13 13v23z" />
    <glyph glyph-name="itilde" unicode="&#x129;" horiz-adv-x="294" 
d="M270 590q-8 9 -18 1q-27 -24 -54 -24q-23 0 -55 18q-34 17 -62 17q-47 0 -86 -37q-8 -8 0 -18l12 -14q8 -10 18 -2q29 24 54 24q19 0 55 -18q36 -16 63 -16q45 0 84 36q10 7 2 18zM34 36q0 13 13 13h81v342h-81q-13 0 -13 13v23q0 13 13 13h108q33 0 33 -31v-360h77
q13 0 13 -13v-23q0 -13 -13 -13h-218q-13 0 -13 13v23z" />
    <glyph glyph-name="Imacron" unicode="&#x12a;" horiz-adv-x="362" 
d="M316 818q13 0 13 13v24q0 13 -13 13h-270q-13 0 -13 -13v-24q0 -13 13 -13h270zM54 717q0 13 13 13h230q13 0 13 -13v-23q0 -13 -13 -13h-84v-632h84q13 0 13 -13v-23q0 -13 -13 -13h-230q-13 0 -13 13v23q0 13 13 13h85v632h-85q-13 0 -13 13v23z" />
    <glyph glyph-name="imacron" unicode="&#x12b;" horiz-adv-x="294" 
d="M260 528q12 0 12 13v24q0 13 -12 13h-232q-11 0 -11 -13v-24q0 -13 11 -13h232zM34 36q0 13 13 13h81v342h-81q-13 0 -13 13v23q0 13 13 13h108q33 0 33 -31v-360h77q13 0 13 -13v-23q0 -13 -13 -13h-218q-13 0 -13 13v23z" />
    <glyph glyph-name="Ibreve" unicode="&#x12c;" horiz-adv-x="362" 
d="M270 880q-4 1 -6 -2.5t-4 -9.5q-10 -57 -80 -57q-29 0 -51.5 15t-27.5 43q-4 12 -10 12l-17 -2q-8 0 -6 -14q8 -40 38.5 -60.5t73.5 -20.5q46 0 77 20.5t38 60.5q1 12 -7 14zM54 717q0 13 13 13h230q13 0 13 -13v-23q0 -13 -13 -13h-84v-632h84q13 0 13 -13v-23
q0 -13 -13 -13h-230q-13 0 -13 13v23q0 13 13 13h85v632h-85q-13 0 -13 13v23z" />
    <glyph glyph-name="Iogonek" unicode="&#x12e;" horiz-adv-x="362" 
d="M297 681h-84v-632h84q13 0 13 -13v-23q0 -13 -13 -13h-101q-27 -26 -39.5 -39t-26 -35.5t-13.5 -41.5q0 -17 10.5 -28t30.5 -11q22 0 41 13q10 7 18 -2l8 -8q9 -8 -1 -18q-34 -27 -74 -27q-32 0 -57 17.5t-25 54.5q0 54 77 125h-78q-13 0 -13 13v23q0 13 13 13h85v632
h-85q-13 0 -13 13v23q0 13 13 13h230q13 0 13 -13v-23q0 -13 -13 -13z" />
    <glyph glyph-name="iogonek" unicode="&#x12f;" horiz-adv-x="294" 
d="M144 549q-19 0 -31.5 12t-12.5 30t12.5 30t31.5 12q20 0 33 -12t13 -30t-13 -30t-33 -12zM265 49q13 0 13 -13v-23q0 -13 -13 -13h-91q-27 -26 -39.5 -39t-26 -35.5t-13.5 -41.5q0 -17 10.5 -28t30.5 -11q22 0 41 13q10 7 18 -2l8 -8q9 -8 -1 -18q-34 -27 -74 -27
q-32 0 -57 17.5t-25 54.5q0 54 77 125h-76q-13 0 -13 13v23q0 13 13 13h81v342h-81q-13 0 -13 13v23q0 13 13 13h108q33 0 33 -31v-360h77z" />
    <glyph glyph-name="Idotaccent" unicode="&#x130;" horiz-adv-x="362" 
d="M135 833q0 17 13.5 29t31.5 12q19 0 32.5 -12t13.5 -29t-13.5 -28.5t-32.5 -11.5q-18 0 -31.5 12t-13.5 28zM54 717q0 13 13 13h230q13 0 13 -13v-23q0 -13 -13 -13h-84v-632h84q13 0 13 -13v-23q0 -13 -13 -13h-230q-13 0 -13 13v23q0 13 13 13h85v632h-85q-13 0 -13 13
v23z" />
    <glyph glyph-name="dotlessi" unicode="&#x131;" horiz-adv-x="294" 
d="M34 36q0 13 13 13h81v342h-81q-13 0 -13 13v23q0 13 13 13h108q33 0 33 -31v-360h77q13 0 13 -13v-23q0 -13 -13 -13h-218q-13 0 -13 13v23z" />
    <glyph glyph-name="IJ" unicode="&#x132;" horiz-adv-x="838" 
d="M540 718q0 13 12 13h236q13 0 13 -13v-23q0 -13 -13 -13h-86v-514q0 -82 -50.5 -130t-133.5 -48q-66 0 -118 22q-22 8 -19 30l2 8q7 27 34 14q52 -22 102 -22q58 0 90.5 33.5t32.5 95.5v511h-90q-12 0 -12 13v23zM54 717q0 13 13 13h230q13 0 13 -13v-23q0 -13 -13 -13
h-84v-632h84q13 0 13 -13v-23q0 -13 -13 -13h-230q-13 0 -13 13v23q0 13 13 13h85v632h-85q-13 0 -13 13v23z" />
    <glyph glyph-name="ij" unicode="&#x133;" horiz-adv-x="543" 
d="M105 591q0 18 12.5 30t31.5 12q20 0 33 -12t13 -30t-13 -30t-33 -12q-19 0 -31.5 12t-12.5 30zM386 591q0 18 12.5 30t31.5 12q20 0 33 -12t13 -30t-13 -30t-33 -12q-19 0 -31.5 12t-12.5 30zM34 36q0 13 13 13h81v342h-81q-13 0 -13 13v23q0 13 13 13h108q33 0 33 -31
v-360h77q13 0 13 -13v-23q0 -13 -13 -13h-218q-13 0 -13 13v23zM466 -90q0 -53 -29.5 -81.5t-86.5 -28.5q-34 0 -63 13q-18 7 -10 27l3 6q6 17 26 12q21 -7 44 -7q56 0 56 55v485h-80q-13 0 -13 13v23q0 13 13 13h107q33 0 33 -29v-501z" />
    <glyph glyph-name="Jcircumflex" unicode="&#x134;" horiz-adv-x="476" 
d="M187 792q-5 -6 -3 -10.5t10 -4.5h29q10 0 17 7l71 69l73 -69q7 -7 17 -7h31q8 0 10 4.5t-3 10.5l-109 108q-5 6 -14 6h-4q-10 0 -15 -6zM178 718q0 13 12 13h236q13 0 13 -13v-23q0 -13 -13 -13h-86v-514q0 -82 -50.5 -130t-133.5 -48q-66 0 -118 22q-22 8 -19 30l2 8
q7 27 34 14q52 -22 102 -22q58 0 90.5 33.5t32.5 95.5v511h-90q-12 0 -12 13v23z" />
    <glyph glyph-name="jcircumflex" unicode="&#x135;" horiz-adv-x="249" 
d="M263 534l-110 108q-5 6 -15 6h-4q-9 0 -14 -6l-109 -108q-5 -6 -3 -10.5t10 -4.5h31q10 0 17 7l73 69l71 -69q7 -7 17 -7h29q8 0 10 4.5t-3 10.5zM172 -90q0 -53 -29.5 -81.5t-86.5 -28.5q-34 0 -63 13q-18 7 -10 27l3 6q6 17 26 12q21 -7 44 -7q56 0 56 55v485h-80
q-13 0 -13 13v23q0 13 13 13h107q33 0 33 -29v-501z" />
    <glyph glyph-name="Kcedilla" unicode="&#x136;" horiz-adv-x="715" 
d="M712 49q13 0 13 -13v-23q0 -13 -13 -13h-255q-13 0 -13 13v23q0 13 13 13h111l-230 324l-132 -162v-162h75q13 0 13 -13v-23q0 -13 -13 -13h-214q-13 0 -13 13v23q0 13 13 13h79v632h-79q-13 0 -13 13v23q0 13 13 13h222q13 0 13 -13v-23q0 -13 -13 -13h-83v-394l318 394
h-82q-13 0 -13 13v23q0 13 13 13h221q12 0 12 -13v-23q0 -13 -12 -13h-72l-215 -262l259 -370h77zM374 -32q23 0 36.5 -14.5t13.5 -39.5q0 -68 -69 -106q-14 -7 -21 3l-4 6q-7 10 4 16q35 17 40 48q-18 0 -32 12t-14 30q0 20 13 32.5t33 12.5z" />
    <glyph glyph-name="kcedilla" unicode="&#x137;" horiz-adv-x="541" 
d="M515 49q13 0 13 -13v-23q0 -13 -13 -13h-83q-27 0 -41 21l-138 202l-82 -75v-99h68q13 0 13 -13v-23q0 -13 -13 -13h-209q-13 0 -13 13v23q0 13 13 13h82v635h-82q-12 0 -12 12v23q0 13 12 13h108q33 0 33 -29v-491l202 179h-83q-13 0 -13 13v23q0 13 13 13h213
q12 0 12 -13v-23q0 -13 -12 -13h-64l-143 -130l145 -212h74zM273 -46q23 0 36.5 -14.5t13.5 -39.5q0 -68 -69 -106q-14 -7 -21 3l-4 6q-7 10 4 16q35 17 40 48q-18 0 -32 12t-14 30q0 20 13 32.5t33 12.5z" />
    <glyph glyph-name="kgreenlandic" unicode="&#x138;" horiz-adv-x="558" 
d="M538 49q13 0 13 -13v-23q0 -13 -13 -13h-127q-13 0 -13 13v33l-128 177l-83 -75v-99h68q13 0 13 -13v-23q0 -13 -13 -13h-209q-13 0 -13 13v23q0 13 13 13h82v342h-82q-12 0 -12 13v23q0 13 12 13h108q33 0 33 -29v-197l201 177h-85q-13 0 -13 13v23q0 13 13 13h216
q12 0 12 -13v-23q0 -13 -12 -13h-64l-146 -132l153 -210h76z" />
    <glyph glyph-name="Lacute" unicode="&#x139;" horiz-adv-x="600" 
d="M292 838q12 7 5 16l-17 31q-7 10 -16 4l-155 -90q-9 -6 -3 -16l7 -10q4 -9 16 -5zM54 717q0 13 13 13h224q13 0 13 -13v-23q0 -13 -13 -13h-81v-632h311v73q0 13 12 13h29q13 0 13 -13v-94q0 -28 -28 -28h-480q-13 0 -13 13v23q0 13 13 13h83v632h-83q-13 0 -13 13v23z
" />
    <glyph glyph-name="lacute" unicode="&#x13a;" horiz-adv-x="280" 
d="M234 841q12 7 5 16l-17 31q-7 10 -16 4l-155 -90q-9 -6 -3 -16l7 -10q4 -9 16 -5zM138 730q33 0 33 -29v-652h76q13 0 13 -13v-23q0 -13 -13 -13h-217q-13 0 -13 13v23q0 13 13 13h82v632h-82q-12 0 -12 13v23q0 13 12 13h108z" />
    <glyph glyph-name="Lcedilla" unicode="&#x13b;" horiz-adv-x="600" 
d="M54 717q0 13 13 13h224q13 0 13 -13v-23q0 -13 -13 -13h-81v-632h311v73q0 13 12 13h29q13 0 13 -13v-94q0 -28 -28 -28h-480q-13 0 -13 13v23q0 13 13 13h83v632h-83q-13 0 -13 13v23zM389 -86q0 25 -13.5 39.5t-36.5 14.5q-20 0 -33 -12.5t-13 -32.5q0 -18 14 -30
t32 -12q-5 -31 -40 -48q-11 -6 -4 -16l4 -6q7 -10 21 -3q69 38 69 106z" />
    <glyph glyph-name="lcedilla" unicode="&#x13c;" horiz-adv-x="280" 
d="M138 730q33 0 33 -29v-652h76q13 0 13 -13v-23q0 -13 -13 -13h-217q-13 0 -13 13v23q0 13 13 13h82v632h-82q-12 0 -12 13v23q0 13 12 13h108zM183 -100q0 25 -13.5 39.5t-36.5 14.5q-20 0 -33 -12.5t-13 -32.5q0 -18 14 -30t32 -12q-5 -31 -40 -48q-11 -6 -4 -16l4 -6
q7 -10 21 -3q69 38 69 106z" />
    <glyph glyph-name="Lcaron" unicode="&#x13d;" horiz-adv-x="600" 
d="M388 804q-14 -2 -10 -15q20 -95 -10 -167q-7 -13 6 -17l11 -2q12 -2 18 7q52 81 29 189q-3 11 -15 10zM54 717q0 13 13 13h224q13 0 13 -13v-23q0 -13 -13 -13h-81v-632h311v73q0 13 12 13h29q13 0 13 -13v-94q0 -28 -28 -28h-480q-13 0 -13 13v23q0 13 13 13h83v632h-83
q-13 0 -13 13v23z" />
    <glyph glyph-name="lcaron" unicode="&#x13e;" horiz-adv-x="336" 
d="M262 804q-14 -2 -11 -15q22 -95 -10 -167q-5 -14 6 -17l11 -2q13 -2 18 7q54 83 29 189q-2 12 -14 10zM138 730q33 0 33 -29v-652h76q13 0 13 -13v-23q0 -13 -13 -13h-217q-13 0 -13 13v23q0 13 13 13h82v632h-82q-12 0 -12 13v23q0 13 12 13h108z" />
    <glyph glyph-name="Ldot" unicode="&#x13f;" horiz-adv-x="563" 
d="M53 720q0 13 12 13h225q13 0 13 -13v-23q0 -13 -13 -13h-82v-635h276l-1 53q0 13 13 13h29q12 0 12 -13v-74q0 -28 -27 -28h-444q-13 0 -13 13v23q0 13 13 13h81v635h-82q-12 0 -12 13v23zM321 342q0 19 15.5 32.5t37.5 13.5q20 0 35 -13.5t15 -32.5t-15 -33.5t-35 -14.5
q-22 0 -37.5 14t-15.5 34z" />
    <glyph glyph-name="ldot" unicode="&#x140;" horiz-adv-x="280" 
d="M138 730q33 0 33 -29v-652h76q13 0 13 -13v-23q0 -13 -13 -13h-217q-13 0 -13 13v23q0 13 13 13h82v632h-82q-12 0 -12 13v23q0 13 12 13h108zM191 399q0 20 14.5 33t37.5 13q22 0 36 -13t14 -33q0 -22 -14 -35t-36 -13q-23 0 -37.5 13t-14.5 35z" />
    <glyph glyph-name="Lslash" unicode="&#x141;" horiz-adv-x="568" 
d="M564 135q13 0 13 -13v-94q0 -28 -28 -28h-480q-13 0 -13 13v23q0 13 13 13h83v277l-83 -31q-15 -7 -15 9v28q0 12 10 15l88 33v301h-83q-13 0 -13 13v23q0 13 13 13h225q13 0 13 -13v-23q0 -13 -13 -13h-82v-278l81 31q15 5 15 -10v-27q0 -11 -10 -15l-86 -33v-300h312
l-1 73q0 13 13 13h28z" />
    <glyph glyph-name="lslash" unicode="&#x142;" horiz-adv-x="293" 
d="M257 49q13 0 13 -13v-23q0 -13 -13 -13h-216q-13 0 -13 13v23q0 13 13 13h81v275l-69 -27q-14 -5 -14 10v32q0 11 10 14l73 28v300h-81q-13 0 -13 13v23q0 13 13 13h108q33 0 33 -29v-297l61 24q15 5 15 -10v-32q0 -11 -10 -14l-66 -25v-298h75z" />
    <glyph glyph-name="Nacute" unicode="&#x143;" horiz-adv-x="821" 
d="M358 773l-7 10q-6 10 3 16l155 90q9 6 16 -4l17 -31q7 -9 -5 -16l-163 -70q-12 -4 -16 5zM765 730q13 0 13 -13v-23q0 -13 -13 -13h-83v-660q0 -21 -21 -21h-44q-17 0 -25 14l-384 659v-624h82q13 0 13 -13v-23q0 -13 -13 -13h-223q-13 0 -13 13v23q0 13 13 13h83v632
h-83q-13 0 -13 13v23q0 13 13 13h152q16 0 24 -14l382 -655v620h-83q-13 0 -13 13v23q0 13 13 13h223z" />
    <glyph glyph-name="nacute" unicode="&#x144;" horiz-adv-x="607" 
d="M245 522l-7 10q-6 10 3 16l152 88q9 6 16 -4l16 -30q7 -9 -5 -16l-160 -69q-11 -4 -15 5zM583 49q13 0 13 -13v-23q0 -13 -13 -13h-107q-33 0 -33 30v272q0 98 -103 98q-78 0 -152 -71v-280h82q13 0 13 -13v-23q0 -13 -13 -13h-221q-13 0 -13 13v23q0 13 13 13h80v342
h-82q-13 0 -13 13v23q0 13 13 13h105q33 0 33 -28v-34q30 34 75 53t91 19q151 0 151 -144v-257h81z" />
    <glyph glyph-name="Ncedilla" unicode="&#x145;" horiz-adv-x="821" 
d="M765 730q13 0 13 -13v-23q0 -13 -13 -13h-83v-660q0 -21 -21 -21h-44q-17 0 -25 14l-384 659v-624h82q13 0 13 -13v-23q0 -13 -13 -13h-223q-13 0 -13 13v23q0 13 13 13h83v632h-83q-13 0 -13 13v23q0 13 13 13h152q16 0 24 -14l382 -655v620h-83q-13 0 -13 13v23
q0 13 13 13h223zM418 -32q23 0 36.5 -14.5t13.5 -39.5q0 -68 -69 -106q-14 -7 -21 3l-4 6q-7 10 4 16q35 17 40 48q-18 0 -32 12t-14 30q0 20 13 32.5t33 12.5z" />
    <glyph glyph-name="ncedilla" unicode="&#x146;" horiz-adv-x="607" 
d="M583 49q13 0 13 -13v-23q0 -13 -13 -13h-107q-33 0 -33 30v272q0 98 -103 98q-78 0 -152 -71v-280h82q13 0 13 -13v-23q0 -13 -13 -13h-221q-13 0 -13 13v23q0 13 13 13h80v342h-82q-13 0 -13 13v23q0 13 13 13h105q33 0 33 -28v-34q30 34 75 53t91 19q151 0 151 -144
v-257h81zM327 -39q23 0 36.5 -14.5t13.5 -39.5q0 -68 -69 -106q-14 -7 -21 3l-4 6q-7 10 4 16q35 17 40 48q-18 0 -32 12t-14 30q0 20 13 32.5t33 12.5z" />
    <glyph glyph-name="Ncaron" unicode="&#x147;" horiz-adv-x="821" 
d="M406 776l-109 108q-6 7 -3.5 11.5t10.5 4.5h31q9 0 16 -7l74 -69l71 69q9 7 16 7h30q8 0 10 -4.5t-4 -11.5l-110 -108q-4 -6 -14 -6h-4q-8 0 -14 6zM765 730q13 0 13 -13v-23q0 -13 -13 -13h-83v-660q0 -21 -21 -21h-44q-17 0 -25 14l-384 659v-624h82q13 0 13 -13v-23
q0 -13 -13 -13h-223q-13 0 -13 13v23q0 13 13 13h83v632h-83q-13 0 -13 13v23q0 13 13 13h152q16 0 24 -14l382 -655v620h-83q-13 0 -13 13v23q0 13 13 13h223z" />
    <glyph glyph-name="ncaron" unicode="&#x148;" horiz-adv-x="607" 
d="M306 515l-109 108q-6 7 -3.5 11.5t10.5 4.5h31q9 0 16 -7l74 -69l71 69q9 7 16 7h30q8 0 10 -4.5t-4 -11.5l-110 -108q-4 -6 -14 -6h-4q-8 0 -14 6zM583 49q13 0 13 -13v-23q0 -13 -13 -13h-107q-33 0 -33 30v272q0 98 -103 98q-78 0 -152 -71v-280h82q13 0 13 -13v-23
q0 -13 -13 -13h-221q-13 0 -13 13v23q0 13 13 13h80v342h-82q-13 0 -13 13v23q0 13 13 13h105q33 0 33 -28v-34q30 34 75 53t91 19q151 0 151 -144v-257h81z" />
    <glyph glyph-name="napostrophe" unicode="&#x149;" horiz-adv-x="607" 
d="M83 597q0 -67 -68 -104q-15 -8 -21 2l-4 7q-6 10 4 16q33 16 40 47q-18 0 -32 12t-14 30q0 19 13 31t33 12q22 0 35.5 -14.5t13.5 -38.5zM583 49q13 0 13 -13v-23q0 -13 -13 -13h-107q-33 0 -33 30v272q0 98 -103 98q-78 0 -152 -71v-280h82q13 0 13 -13v-23
q0 -13 -13 -13h-221q-13 0 -13 13v23q0 13 13 13h80v342h-82q-13 0 -13 13v23q0 13 13 13h105q33 0 33 -28v-34q30 34 75 53t91 19q151 0 151 -144v-257h81z" />
    <glyph glyph-name="Eng" unicode="&#x14a;" horiz-adv-x="809" 
d="M753 730q13 0 13 -13v-23q0 -13 -13 -13h-82v-684q0 -85 -51 -132t-140 -47q-62 0 -123 24q-13 6 -10 19l7 22q4 12 19 9q58 -22 108 -22q61 0 96.5 34.5t35.5 92.5v22l-405 640v-610h81q13 0 13 -13v-23q0 -13 -13 -13h-224q-13 0 -13 13v23q0 13 13 13h83v632h-83
q-13 0 -13 13v23q0 13 13 13h140q23 0 33 -19l373 -594v564h-81q-13 0 -13 13v23q0 13 13 13h223z" />
    <glyph glyph-name="eng" unicode="&#x14b;" horiz-adv-x="569" 
d="M354 450q148 0 148 -130v-271v-139q0 -53 -29.5 -81.5t-86.5 -28.5q-34 0 -63 13q-19 6 -10 27l3 6q6 17 26 12q21 -7 44 -7q56 0 56 55v194v216q0 83 -100 83q-83 0 -154 -70v-280h81q13 0 13 -13v-23q0 -13 -13 -13h-221q-12 0 -12 13v23q0 13 12 13h80v342h-82
q-12 0 -12 13v23q0 13 12 13h106q32 0 32 -28v-34q30 34 76 53t94 19z" />
    <glyph glyph-name="Omacron" unicode="&#x14c;" horiz-adv-x="768" 
d="M521 818q13 0 13 13v24q0 13 -13 13h-270q-13 0 -13 -13v-24q0 -13 13 -13h270zM383 740q157 0 242 -97.5t85 -276.5q0 -180 -85.5 -278t-241.5 -98q-155 0 -240 98t-85 278t84 277t241 97zM385 686q-126 0 -194.5 -83t-68.5 -236q0 -155 67.5 -239t193.5 -84t194.5 84
t68.5 239q0 153 -68 236t-193 83z" />
    <glyph glyph-name="omacron" unicode="&#x14d;" horiz-adv-x="506" 
d="M387 528q13 0 13 13v24q0 13 -13 13h-270q-13 0 -13 -13v-24q0 -13 13 -13h270zM253 450q205 0 205 -230t-205 -230t-205 230t205 230zM253 40q75 0 110.5 43t35.5 137t-35.5 137t-110.5 43t-111 -43t-36 -137t36 -137t111 -43z" />
    <glyph glyph-name="Obreve" unicode="&#x14e;" horiz-adv-x="768" 
d="M475 880q-4 1 -6 -2.5t-4 -9.5q-10 -57 -80 -57q-29 0 -51.5 15t-27.5 43q-4 12 -10 12l-17 -2q-8 0 -6 -14q8 -40 38.5 -60.5t73.5 -20.5q46 0 77 20.5t38 60.5q1 12 -7 14zM383 740q157 0 242 -97.5t85 -276.5q0 -180 -85.5 -278t-241.5 -98q-155 0 -240 98t-85 278
t84 277t241 97zM385 686q-126 0 -194.5 -83t-68.5 -236q0 -155 67.5 -239t193.5 -84t194.5 84t68.5 239q0 153 -68 236t-193 83z" />
    <glyph glyph-name="obreve" unicode="&#x14f;" horiz-adv-x="506" 
d="M341 623q-4 1 -6 -2.5t-4 -9.5q-10 -57 -80 -57q-29 0 -51.5 15t-27.5 43q-4 12 -10 12l-17 -2q-8 0 -6 -14q8 -40 38.5 -60.5t73.5 -20.5q46 0 77 20.5t38 60.5q1 12 -7 14zM253 450q205 0 205 -230t-205 -230t-205 230t205 230zM253 40q75 0 110.5 43t35.5 137
t-35.5 137t-110.5 43t-111 -43t-36 -137t36 -137t111 -43z" />
    <glyph glyph-name="Odblacute" unicode="&#x150;" horiz-adv-x="768" 
d="M395 903q10 10 -3 17l-29 17q-11 8 -18 -4l-79 -128q-7 -10 4 -17l9 -5q10 -6 17 2zM532 892q10 10 -3 17l-30 18q-12 7 -18 -4l-78 -128q-6 -10 5 -18l9 -5q11 -5 18 3zM383 740q157 0 242 -97.5t85 -276.5q0 -180 -85.5 -278t-241.5 -98q-155 0 -240 98t-85 278t84 277
t241 97zM385 686q-126 0 -194.5 -83t-68.5 -236q0 -155 67.5 -239t193.5 -84t194.5 84t68.5 239q0 153 -68 236t-193 83z" />
    <glyph glyph-name="odblacute" unicode="&#x151;" horiz-adv-x="506" 
d="M264 639q10 10 -3 17l-29 17q-11 8 -18 -4l-79 -128q-7 -10 4 -17l9 -5q10 -6 17 2zM401 628q10 10 -3 17l-30 18q-12 7 -18 -4l-78 -128q-6 -10 5 -18l9 -5q11 -5 18 3zM253 450q205 0 205 -230t-205 -230t-205 230t205 230zM253 40q75 0 110.5 43t35.5 137t-35.5 137
t-110.5 43t-111 -43t-36 -137t36 -137t111 -43z" />
    <glyph glyph-name="OE" unicode="&#x152;" horiz-adv-x="1019" 
d="M916 684h-308v-308h307q13 0 13 -13v-24q0 -13 -13 -13h-307v-277h312v51q0 13 13 13h27q13 0 13 -13v-79q0 -21 -21 -21h-386q-58 -7 -118 -7q-186 0 -288 97t-102 276q0 177 104.5 275t289.5 98q72 0 128 -6h369q21 0 21 -21v-92q0 -13 -13 -13h-28q-13 0 -13 13v64z
M121 367q0 -163 88.5 -241t244.5 -78q51 0 94 3v629q-43 5 -92 5q-164 0 -249.5 -80.5t-85.5 -237.5z" />
    <glyph glyph-name="oe" unicode="&#x153;" horiz-adv-x="827" 
d="M604 450q173 0 175 -212v-13q0 -22 -22 -22h-295q4 -89 44 -126t114 -37q55 0 106 24q17 9 26 -8l4 -8q9 -19 -8 -27q-54 -31 -128 -31q-140 0 -190 91q-47 -91 -177 -91q-205 0 -205 230t205 230q130 0 178 -92q49 92 173 92zM253 40q75 0 110.5 43t35.5 137t-35.5 137
t-110.5 43t-111 -43t-36 -137t36 -137t111 -43zM461 249h262q0 151 -122 151q-64 0 -100 -38.5t-40 -112.5z" />
    <glyph glyph-name="Racute" unicode="&#x154;" horiz-adv-x="727" 
d="M280 773l-7 10q-6 10 3 16l155 90q9 6 16 -4l17 -31q7 -9 -5 -16l-163 -70q-12 -4 -16 5zM692 49q13 0 13 -13v-23q0 -13 -13 -13h-231q-13 0 -13 13v23q0 13 13 13h85l-149 258q-32 -2 -50 -2h-140v-256h82q12 0 12 -13v-23q0 -13 -12 -13h-222q-13 0 -13 13v23
q0 13 13 13h79v632h-79q-13 0 -13 13v23q0 13 13 13h294q271 0 271 -208q0 -171 -175 -207l155 -266h80zM207 357h142q220 0 220 165q0 159 -207 159h-155v-324z" />
    <glyph glyph-name="racute" unicode="&#x155;" horiz-adv-x="379" 
d="M126 522l-7 10q-6 10 3 16l152 88q9 6 16 -4l16 -30q7 -9 -5 -16l-160 -69q-11 -4 -15 5zM334 449q21 1 21 -20v-17q0 -19 -21 -21q-83 0 -145 -62v-280h97q12 0 12 -13v-23q0 -13 -12 -13h-238q-12 0 -12 13v23q0 13 12 13h81v342h-82q-13 0 -13 13v23q0 13 13 13h103
q14 0 23.5 -8.5t9.5 -20.5v-41q54 71 151 79z" />
    <glyph glyph-name="Rcedilla" unicode="&#x156;" horiz-adv-x="727" 
d="M692 49q13 0 13 -13v-23q0 -13 -13 -13h-231q-13 0 -13 13v23q0 13 13 13h85l-149 258q-32 -2 -50 -2h-140v-256h82q12 0 12 -13v-23q0 -13 -12 -13h-222q-13 0 -13 13v23q0 13 13 13h79v632h-79q-13 0 -13 13v23q0 13 13 13h294q271 0 271 -208q0 -171 -175 -207
l155 -266h80zM207 357h142q220 0 220 165q0 159 -207 159h-155v-324zM372 -32q23 0 36.5 -14.5t13.5 -39.5q0 -68 -69 -106q-14 -7 -21 3l-4 6q-7 10 4 16q35 17 40 48q-18 0 -32 12t-14 30q0 20 13 32.5t33 12.5z" />
    <glyph glyph-name="rcedilla" unicode="&#x157;" horiz-adv-x="379" 
d="M334 449q21 1 21 -20v-17q0 -19 -21 -21q-83 0 -145 -62v-280h97q12 0 12 -13v-23q0 -13 -12 -13h-238q-12 0 -12 13v23q0 13 12 13h81v342h-82q-13 0 -13 13v23q0 13 13 13h103q14 0 23.5 -8.5t9.5 -20.5v-41q54 71 151 79zM155 -46q23 0 36.5 -14.5t13.5 -39.5
q0 -68 -69 -106q-14 -7 -21 3l-4 6q-7 10 4 16q35 17 40 48q-18 0 -32 12t-14 30q0 20 13 32.5t33 12.5z" />
    <glyph glyph-name="Rcaron" unicode="&#x158;" horiz-adv-x="727" 
d="M328 776l-109 108q-6 7 -3.5 11.5t10.5 4.5h31q9 0 16 -7l74 -69l71 69q9 7 16 7h30q8 0 10 -4.5t-4 -11.5l-110 -108q-4 -6 -14 -6h-4q-8 0 -14 6zM692 49q13 0 13 -13v-23q0 -13 -13 -13h-231q-13 0 -13 13v23q0 13 13 13h85l-149 258q-32 -2 -50 -2h-140v-256h82
q12 0 12 -13v-23q0 -13 -12 -13h-222q-13 0 -13 13v23q0 13 13 13h79v632h-79q-13 0 -13 13v23q0 13 13 13h294q271 0 271 -208q0 -171 -175 -207l155 -266h80zM207 357h142q220 0 220 165q0 159 -207 159h-155v-324z" />
    <glyph glyph-name="rcaron" unicode="&#x159;" horiz-adv-x="379" 
d="M187 515l-109 108q-6 7 -3.5 11.5t10.5 4.5h31q9 0 16 -7l74 -69l71 69q9 7 16 7h30q8 0 10 -4.5t-4 -11.5l-110 -108q-5 -6 -14 -6h-4q-8 0 -14 6zM334 449q21 1 21 -20v-17q0 -19 -21 -21q-83 0 -145 -62v-280h97q12 0 12 -13v-23q0 -13 -12 -13h-238q-12 0 -12 13v23
q0 13 12 13h81v342h-82q-13 0 -13 13v23q0 13 13 13h103q14 0 23.5 -8.5t9.5 -20.5v-41q54 71 151 79z" />
    <glyph glyph-name="Sacute" unicode="&#x15a;" horiz-adv-x="582" 
d="M417 838q12 7 5 16l-17 31q-7 10 -16 4l-155 -90q-9 -6 -3 -16l7 -10q4 -9 16 -5zM289 740q96 0 153 -27.5t57 -67.5v-67q0 -13 -13 -13h-30q-13 0 -13 13v74q-61 34 -154 34q-72 0 -116 -35.5t-44 -92.5q0 -49 22.5 -81.5t58.5 -49t79 -28.5t86.5 -25.5t79.5 -34
t58.5 -60.5t22.5 -98q0 -87 -68.5 -139t-183.5 -52q-103 0 -165 31.5t-62 80.5v50q0 19 13 19h33q13 0 13 -19v-70q64 -38 168 -38q86 0 137.5 36.5t51.5 100.5q0 49 -22.5 81t-58.5 48t-79.5 27t-87 24.5t-79.5 34t-58.5 61.5t-22.5 101q0 81 62 131.5t162 50.5z" />
    <glyph glyph-name="sacute" unicode="&#x15b;" horiz-adv-x="430" 
d="M316 586q12 7 5 16l-16 30q-7 10 -16 4l-152 -88q-9 -6 -3 -16l7 -10q4 -9 15 -5zM313 383q-44 18 -97 18t-80.5 -19.5t-27.5 -51.5q0 -34 28 -54t68.5 -29.5t81 -21t68.5 -40t28 -75.5q0 -120 -166 -120q-82 0 -125 24t-43 64v22q0 20 19 20h17q20 0 20 -20v-38
q46 -22 112 -22q107 0 107 71q0 34 -28 53t-68.5 28t-81 20.5t-68.5 40t-28 75.5q0 58 42.5 90t126.5 32q77 0 114 -23.5t37 -63.5v-29q0 -19 -20 -19h-17q-19 0 -19 19v49z" />
    <glyph glyph-name="Scircumflex" unicode="&#x15c;" horiz-adv-x="582" 
d="M177 792q-5 -6 -3 -10.5t10 -4.5h29q10 0 17 7l71 69l73 -69q7 -7 17 -7h31q8 0 10 4.5t-3 10.5l-109 108q-5 6 -14 6h-4q-10 0 -15 -6zM289 740q96 0 153 -27.5t57 -67.5v-67q0 -13 -13 -13h-30q-13 0 -13 13v74q-61 34 -154 34q-72 0 -116 -35.5t-44 -92.5
q0 -49 22.5 -81.5t58.5 -49t79 -28.5t86.5 -25.5t79.5 -34t58.5 -60.5t22.5 -98q0 -87 -68.5 -139t-183.5 -52q-103 0 -165 31.5t-62 80.5v50q0 19 13 19h33q13 0 13 -19v-70q64 -38 168 -38q86 0 137.5 36.5t51.5 100.5q0 49 -22.5 81t-58.5 48t-79.5 27t-87 24.5t-79.5 34
t-58.5 61.5t-22.5 101q0 81 62 131.5t162 50.5z" />
    <glyph glyph-name="scircumflex" unicode="&#x15d;" horiz-adv-x="430" 
d="M345 534l-110 108q-5 6 -15 6h-4q-9 0 -14 -6l-109 -108q-5 -6 -3 -10.5t10 -4.5h31q10 0 17 7l73 69l71 -69q7 -7 17 -7h29q8 0 10 4.5t-3 10.5zM313 383q-44 18 -97 18t-80.5 -19.5t-27.5 -51.5q0 -34 28 -54t68.5 -29.5t81 -21t68.5 -40t28 -75.5q0 -120 -166 -120
q-82 0 -125 24t-43 64v22q0 20 19 20h17q20 0 20 -20v-38q46 -22 112 -22q107 0 107 71q0 34 -28 53t-68.5 28t-81 20.5t-68.5 40t-28 75.5q0 58 42.5 90t126.5 32q77 0 114 -23.5t37 -63.5v-29q0 -19 -20 -19h-17q-19 0 -19 19v49z" />
    <glyph glyph-name="Scedilla" unicode="&#x15e;" horiz-adv-x="582" 
d="M536 181q0 -82 -60.5 -133t-164.5 -57l-12 -36q52 -6 80 -25t27 -56q0 -76 -106 -76q-52 0 -100 25q-13 6 -6 19l5 12q6 9 18 5q42 -21 84 -21q55 0 55 34q0 41 -89 49q-20 3 -15 21l15 48q-96 3 -153 34t-57 78v50q0 19 13 19h33q13 0 13 -19v-70q64 -38 168 -38
q86 0 137.5 36.5t51.5 100.5q0 49 -22.5 81t-58.5 48t-79.5 27t-87 24.5t-79.5 34t-58.5 61.5t-22.5 101q0 81 62 131.5t162 50.5q96 0 153 -27.5t57 -67.5v-67q0 -13 -13 -13h-30q-13 0 -13 13v74q-61 34 -154 34q-72 0 -116 -35.5t-44 -92.5q0 -49 22.5 -81.5t58.5 -49
t79 -28.5t86.5 -25.5t79.5 -34t58.5 -60.5t22.5 -98z" />
    <glyph glyph-name="scedilla" unicode="&#x15f;" horiz-adv-x="430" 
d="M382 110q0 -112 -145 -119l-12 -36q52 -6 80 -25t27 -56q0 -76 -106 -76q-52 0 -100 25q-13 6 -6 19l5 12q6 9 18 5q42 -21 84 -21q55 0 55 34q0 41 -89 49q-20 3 -15 21l15 49q-70 3 -107.5 26.5t-37.5 60.5v22q0 20 19 20h17q20 0 20 -20v-38q46 -22 112 -22
q107 0 107 71q0 34 -28 53t-68.5 28t-81 20.5t-68.5 40t-28 75.5q0 58 42.5 90t126.5 32q77 0 114 -23.5t37 -63.5v-29q0 -19 -20 -19h-17q-19 0 -19 19v49q-44 18 -97 18t-80.5 -19.5t-27.5 -51.5q0 -34 28 -54t68.5 -29.5t81 -21t68.5 -40t28 -75.5z" />
    <glyph glyph-name="Scaron" unicode="&#x160;" horiz-adv-x="582" 
d="M428 884q6 7 4 11.5t-10 4.5h-30q-7 0 -16 -7l-71 -69l-74 69q-7 7 -16 7h-31q-8 0 -10.5 -4.5t3.5 -11.5l109 -108q6 -6 14 -6h4q10 0 14 6zM289 740q96 0 153 -27.5t57 -67.5v-67q0 -13 -13 -13h-30q-13 0 -13 13v74q-61 34 -154 34q-72 0 -116 -35.5t-44 -92.5
q0 -49 22.5 -81.5t58.5 -49t79 -28.5t86.5 -25.5t79.5 -34t58.5 -60.5t22.5 -98q0 -87 -68.5 -139t-183.5 -52q-103 0 -165 31.5t-62 80.5v50q0 19 13 19h33q13 0 13 -19v-70q64 -38 168 -38q86 0 137.5 36.5t51.5 100.5q0 49 -22.5 81t-58.5 48t-79.5 27t-87 24.5t-79.5 34
t-58.5 61.5t-22.5 101q0 81 62 131.5t162 50.5z" />
    <glyph glyph-name="scaron" unicode="&#x161;" horiz-adv-x="430" 
d="M344 623q6 7 4 11.5t-10 4.5h-30q-7 0 -16 -7l-71 -69l-74 69q-7 7 -16 7h-31q-8 0 -10.5 -4.5t3.5 -11.5l109 -108q6 -6 14 -6h4q10 0 14 6zM313 383q-44 18 -97 18t-80.5 -19.5t-27.5 -51.5q0 -34 28 -54t68.5 -29.5t81 -21t68.5 -40t28 -75.5q0 -120 -166 -120
q-82 0 -125 24t-43 64v22q0 20 19 20h17q20 0 20 -20v-38q46 -22 112 -22q107 0 107 71q0 34 -28 53t-68.5 28t-81 20.5t-68.5 40t-28 75.5q0 58 42.5 90t126.5 32q77 0 114 -23.5t37 -63.5v-29q0 -19 -20 -19h-17q-19 0 -19 19v49z" />
    <glyph glyph-name="Tcedilla" unicode="&#x162;" horiz-adv-x="660" 
d="M608 730q21 0 21 -21v-120q0 -13 -13 -13h-27q-13 0 -13 13v92h-216v-632h107q13 0 13 -13v-23q0 -13 -13 -13h-116l-16 -45q52 -6 80 -25t27 -56q0 -76 -106 -76q-52 0 -100 25q-13 6 -6 19l5 12q6 9 18 5q42 -21 84 -21q55 0 55 34q0 41 -89 49q-20 3 -15 21l19 58
h-116q-13 0 -13 13v23q0 13 13 13h108v632h-216v-92q0 -13 -13 -13h-27q-12 0 -12 13v120q0 21 20 21h557z" />
    <glyph glyph-name="tcedilla" unicode="&#x163;" horiz-adv-x="324" 
d="M194 -45q52 -6 80 -25t27 -56q0 -76 -106 -76q-52 0 -100 25q-13 6 -6 19l5 12q6 9 18 5q42 -21 84 -21q55 0 55 34q0 41 -89 49q-20 3 -15 21l18 56q-61 20 -61 98v295h-65q-13 0 -13 13v23q0 13 13 13h65l16 126q3 17 20 17h10q12 0 12 -11v-132h120q12 0 12 -13v-23
q0 -13 -12 -13h-121v-291q0 -61 70 -59l47 1q13 0 13 -12v-21q0 -11 -12 -13q-40 -6 -65 -6h-8z" />
    <glyph glyph-name="Tcaron" unicode="&#x164;" horiz-adv-x="660" 
d="M455 884q6 7 4 11.5t-10 4.5h-30q-7 0 -16 -7l-71 -69l-74 69q-7 7 -16 7h-31q-8 0 -10.5 -4.5t3.5 -11.5l109 -108q6 -6 14 -6h4q9 0 14 6zM31 709q0 21 20 21h557q21 0 21 -21v-120q0 -13 -13 -13h-27q-13 0 -13 13v92h-216v-632h107q13 0 13 -13v-23q0 -13 -13 -13
h-276q-13 0 -13 13v23q0 13 13 13h108v632h-216v-92q0 -13 -13 -13h-27q-12 0 -12 13v120z" />
    <glyph glyph-name="tcaron" unicode="&#x165;" horiz-adv-x="324" 
d="M285 746q-14 -2 -10 -15q20 -95 -10 -167q-7 -13 6 -17l11 -2q12 -2 18 7q52 81 29 189q-3 11 -15 10zM294 404q0 -13 -12 -13h-121v-291q0 -61 70 -59l47 1q13 0 13 -12v-21q0 -11 -12 -13q-40 -6 -65 -6q-110 0 -110 106v295h-65q-13 0 -13 13v23q0 13 13 13h65l16 126
q3 17 20 17h10q12 0 12 -11v-132h120q12 0 12 -13v-23z" />
    <glyph glyph-name="Tbar" unicode="&#x166;" horiz-adv-x="660" 
d="M608 730q21 0 21 -21v-120q0 -13 -13 -13h-27q-13 0 -13 13v92h-216v-241h101q13 0 13 -12v-21q0 -12 -13 -12h-101v-346h107q13 0 13 -13v-23q0 -13 -13 -13h-276q-13 0 -13 13v23q0 13 13 13h108v346h-100q-12 0 -12 12v21q0 12 12 12h100v241h-216v-92q0 -13 -13 -13
h-27q-12 0 -12 13v120q0 21 20 21h557z" />
    <glyph glyph-name="tbar" unicode="&#x167;" horiz-adv-x="323" 
d="M282 391h-120v-102h89q13 0 13 -13v-20q0 -12 -13 -12h-90v-144q0 -61 71 -59l47 1q13 0 13 -12v-21q0 -11 -12 -13q-42 -6 -65 -6q-110 0 -110 106v148h-57q-12 0 -12 12v20q0 13 12 13h57v102h-65q-13 0 -13 13v23q0 13 13 13h65l16 126q3 17 19 17h11q12 0 12 -11
v-132h119q13 0 13 -13v-23q0 -13 -13 -13z" />
    <glyph glyph-name="Utilde" unicode="&#x168;" horiz-adv-x="783" 
d="M529 858q-7 9 -17 1q-29 -24 -55 -24q-23 0 -55 18q-34 17 -61 17q-48 0 -87 -37q-8 -8 0 -18l13 -14q8 -10 18 -2q27 24 54 24q18 0 54 -18q36 -16 64 -16q45 0 84 36q10 7 1 18zM40 717q0 13 12 13h221q13 0 13 -13v-23q0 -13 -13 -13h-81v-477q0 -77 52 -119t148 -42
q95 0 147 42.5t52 119.5v476h-82q-13 0 -13 13v23q0 13 13 13h221q12 0 12 -13v-23q0 -13 -12 -13h-79v-473q0 -105 -68 -161.5t-193 -56.5t-192 56.5t-67 161.5v473h-79q-12 0 -12 13v23z" />
    <glyph glyph-name="utilde" unicode="&#x169;" horiz-adv-x="560" 
d="M410 590q-7 9 -17 1q-29 -24 -55 -24q-23 0 -55 18q-34 17 -61 17q-48 0 -87 -37q-8 -8 0 -18l13 -14q8 -10 18 -2q27 24 54 24q18 0 54 -18q36 -16 64 -16q45 0 84 36q10 7 1 18zM17 420q0 20 20 20h93q34 0 34 -29v-274q0 -97 96 -97q78 0 132 64v316q0 20 19 20h21
q19 0 19 -20v-324q0 -26 16.5 -40t45.5 -12q22 1 22 -17v-11q0 -18 -15 -22q-12 -4 -28 -4q-34 0 -60 19t-27 51q-52 -70 -155 -70q-69 0 -107 37t-38 107v257h-68q-20 0 -20 20v9z" />
    <glyph glyph-name="Umacron" unicode="&#x16a;" horiz-adv-x="783" 
d="M531 818q13 0 13 13v24q0 13 -13 13h-270q-13 0 -13 -13v-24q0 -13 13 -13h270zM40 717q0 13 12 13h221q13 0 13 -13v-23q0 -13 -13 -13h-81v-477q0 -77 52 -119t148 -42q95 0 147 42.5t52 119.5v476h-82q-13 0 -13 13v23q0 13 13 13h221q12 0 12 -13v-23q0 -13 -12 -13
h-79v-473q0 -105 -68 -161.5t-193 -56.5t-192 56.5t-67 161.5v473h-79q-12 0 -12 13v23z" />
    <glyph glyph-name="umacron" unicode="&#x16b;" horiz-adv-x="560" 
d="M413 528q13 0 13 13v24q0 13 -13 13h-270q-13 0 -13 -13v-24q0 -13 13 -13h270zM17 420q0 20 20 20h93q34 0 34 -29v-274q0 -97 96 -97q78 0 132 64v316q0 20 19 20h21q19 0 19 -20v-324q0 -26 16.5 -40t45.5 -12q22 1 22 -17v-11q0 -18 -15 -22q-12 -4 -28 -4
q-34 0 -60 19t-27 51q-52 -70 -155 -70q-69 0 -107 37t-38 107v257h-68q-20 0 -20 20v9z" />
    <glyph glyph-name="Ubreve" unicode="&#x16c;" horiz-adv-x="783" 
d="M485 880q-4 1 -6 -2.5t-4 -9.5q-10 -57 -80 -57q-29 0 -51.5 15t-27.5 43q-4 12 -10 12l-17 -2q-8 0 -6 -14q8 -40 38.5 -60.5t73.5 -20.5q46 0 77 20.5t38 60.5q1 12 -7 14zM40 717q0 13 12 13h221q13 0 13 -13v-23q0 -13 -13 -13h-81v-477q0 -77 52 -119t148 -42
q95 0 147 42.5t52 119.5v476h-82q-13 0 -13 13v23q0 13 13 13h221q12 0 12 -13v-23q0 -13 -12 -13h-79v-473q0 -105 -68 -161.5t-193 -56.5t-192 56.5t-67 161.5v473h-79q-12 0 -12 13v23z" />
    <glyph glyph-name="ubreve" unicode="&#x16d;" horiz-adv-x="560" 
d="M367 623q-4 1 -6 -2.5t-4 -9.5q-10 -57 -80 -57q-29 0 -51.5 15t-27.5 43q-4 12 -10 12l-17 -2q-8 0 -6 -14q8 -40 38.5 -60.5t73.5 -20.5q46 0 77 20.5t38 60.5q1 12 -7 14zM17 420q0 20 20 20h93q34 0 34 -29v-274q0 -97 96 -97q78 0 132 64v316q0 20 19 20h21
q19 0 19 -20v-324q0 -26 16.5 -40t45.5 -12q22 1 22 -17v-11q0 -18 -15 -22q-12 -4 -28 -4q-34 0 -60 19t-27 51q-52 -70 -155 -70q-69 0 -107 37t-38 107v257h-68q-20 0 -20 20v9z" />
    <glyph glyph-name="Uring" unicode="&#x16e;" horiz-adv-x="783" 
d="M498 856q0 -43 -25.5 -68.5t-74.5 -25.5q-50 0 -75.5 25t-25.5 69q0 43 25.5 67.5t75.5 24.5q49 0 74.5 -25t25.5 -67zM449 856q0 52 -51 52q-52 0 -52 -52q0 -54 52 -54q51 0 51 54zM40 717q0 13 12 13h221q13 0 13 -13v-23q0 -13 -13 -13h-81v-477q0 -77 52 -119
t148 -42q95 0 147 42.5t52 119.5v476h-82q-13 0 -13 13v23q0 13 13 13h221q12 0 12 -13v-23q0 -13 -12 -13h-79v-473q0 -105 -68 -161.5t-193 -56.5t-192 56.5t-67 161.5v473h-79q-12 0 -12 13v23z" />
    <glyph glyph-name="uring" unicode="&#x16f;" horiz-adv-x="560" 
d="M379 577q0 -43 -25.5 -68.5t-74.5 -25.5q-50 0 -75.5 25t-25.5 69q0 43 25.5 67.5t75.5 24.5q49 0 74.5 -25t25.5 -67zM330 577q0 52 -51 52q-52 0 -52 -52q0 -54 52 -54q51 0 51 54zM17 420q0 20 20 20h93q34 0 34 -29v-274q0 -97 96 -97q78 0 132 64v316q0 20 19 20h21
q19 0 19 -20v-324q0 -26 16.5 -40t45.5 -12q22 1 22 -17v-11q0 -18 -15 -22q-12 -4 -28 -4q-34 0 -60 19t-27 51q-52 -70 -155 -70q-69 0 -107 37t-38 107v257h-68q-20 0 -20 20v9z" />
    <glyph glyph-name="Udblacute" unicode="&#x170;" horiz-adv-x="783" 
d="M406 903q10 10 -3 17l-29 17q-11 8 -18 -4l-79 -128q-7 -10 4 -17l9 -5q10 -6 17 2zM543 892q10 10 -3 17l-30 18q-12 7 -18 -4l-78 -128q-6 -10 5 -18l9 -5q11 -5 18 3zM40 717q0 13 12 13h221q13 0 13 -13v-23q0 -13 -13 -13h-81v-477q0 -77 52 -119t148 -42
q95 0 147 42.5t52 119.5v476h-82q-13 0 -13 13v23q0 13 13 13h221q12 0 12 -13v-23q0 -13 -12 -13h-79v-473q0 -105 -68 -161.5t-193 -56.5t-192 56.5t-67 161.5v473h-79q-12 0 -12 13v23z" />
    <glyph glyph-name="udblacute" unicode="&#x171;" horiz-adv-x="560" 
d="M291 639q10 10 -3 17l-29 17q-11 8 -18 -4l-79 -128q-7 -10 4 -17l9 -5q10 -6 17 2zM428 628q10 10 -3 17l-30 18q-12 7 -18 -4l-78 -128q-6 -10 5 -18l9 -5q11 -5 18 3zM17 420q0 20 20 20h93q34 0 34 -29v-274q0 -97 96 -97q78 0 132 64v316q0 20 19 20h21q19 0 19 -20
v-324q0 -26 16.5 -40t45.5 -12q22 1 22 -17v-11q0 -18 -15 -22q-12 -4 -28 -4q-34 0 -60 19t-27 51q-52 -70 -155 -70q-69 0 -107 37t-38 107v257h-68q-20 0 -20 20v9z" />
    <glyph glyph-name="Uogonek" unicode="&#x172;" horiz-adv-x="783" 
d="M730 730q12 0 12 -13v-23q0 -13 -12 -13h-79v-473q0 -95 -56 -150.5t-161 -65.5q-25 -24 -37.5 -37.5t-25 -35t-12.5 -39.5q0 -17 10.5 -28t30.5 -11q22 0 41 13q10 7 18 -2l8 -8q9 -8 -1 -18q-34 -27 -74 -27q-32 0 -57 17.5t-25 54.5q0 53 70 119q-120 2 -184.5 58.5
t-64.5 159.5v473h-79q-12 0 -12 13v23q0 13 12 13h221q13 0 13 -13v-23q0 -13 -13 -13h-81v-477q0 -77 52 -119t148 -42q95 0 147 42.5t52 119.5v476h-82q-13 0 -13 13v23q0 13 13 13h221z" />
    <glyph glyph-name="uogonek" unicode="&#x173;" horiz-adv-x="560" 
d="M554 -162q8 -8 -1 -18q-34 -27 -74 -27q-32 0 -57 17.5t-25 54.5q0 54 78 126q-29 5 -49 23t-21 46q-52 -70 -155 -70q-69 0 -107 37t-38 107v257h-68q-20 0 -20 20v9q0 20 20 20h93q34 0 34 -29v-274q0 -97 96 -97q78 0 132 64v316q0 20 19 20h21q19 0 19 -20v-324
q0 -26 16.5 -40t45.5 -12q22 1 22 -17v-11q0 -7 -3 -13l3 -3q-4 -4 -17 -16.5t-18.5 -18.5t-16 -17t-15.5 -18.5t-11 -17.5t-8.5 -19.5t-2.5 -18.5q0 -17 10.5 -28t30.5 -11q21 0 41 13q10 7 18 -2z" />
    <glyph glyph-name="Wcircumflex" unicode="&#x174;" horiz-adv-x="1053" 
d="M414 777q-8 0 -10 4.5t3 10.5l110 108q5 6 15 6h4q9 0 14 -6l109 -108q5 -6 3 -10.5t-10 -4.5h-31q-10 0 -17 7l-73 69l-71 -69q-7 -7 -17 -7h-29zM1046 730q12 0 12 -13v-23q0 -13 -12 -13h-79l-187 -663q-6 -18 -24 -18h-46q-18 0 -23 18l-158 609l-159 -609
q-4 -18 -23 -18h-46q-17 0 -23 18l-191 663h-78q-12 0 -12 13v23q0 13 12 13h229q12 0 12 -13v-23q0 -13 -12 -13h-92l177 -633l157 606q4 18 23 18h49q20 0 24 -18l158 -604l174 631h-88q-13 0 -13 13v23q0 13 13 13h226z" />
    <glyph glyph-name="wcircumflex" unicode="&#x175;" horiz-adv-x="784" 
d="M277 519q-8 0 -10 4.5t3 10.5l109 108q5 6 14 6h4q10 0 15 -6l110 -108q5 -6 3 -10.5t-10 -4.5h-29q-10 0 -17 7l-71 69l-73 -69q-7 -7 -17 -7h-31zM761 440q12 0 12 -13v-23q0 -13 -12 -13h-60l-113 -373q-4 -18 -23 -18h-50q-18 0 -24 18l-99 341l-98 -341
q-6 -18 -24 -18h-50q-18 0 -24 18l-107 373h-66q-12 0 -12 13v23q0 13 12 13h180q13 0 13 -13v-23q0 -13 -13 -13h-57l100 -352l104 356q4 18 23 18h40q19 0 23 -18l102 -354l107 350h-64q-13 0 -13 13v23q0 13 13 13h180z" />
    <glyph glyph-name="Ycircumflex" unicode="&#x176;" horiz-adv-x="693" 
d="M239 777q-8 0 -10 4.5t3 10.5l110 108q5 6 15 6h4q9 0 14 -6l109 -108q5 -6 3 -10.5t-10 -4.5h-31q-10 0 -17 7l-73 69l-71 -69q-7 -7 -17 -7h-29zM676 730q13 0 13 -13v-23q0 -13 -13 -13h-79l-220 -398v-237h81q13 0 13 -12v-21q0 -13 -13 -13h-224q-13 0 -13 13v21
q0 12 13 12h83v235l-222 400h-81q-13 0 -13 13v23q0 13 13 13h228q13 0 13 -13v-23q0 -13 -13 -13h-77l182 -341l183 341h-77q-13 0 -13 13v23q0 13 13 13h223z" />
    <glyph glyph-name="ycircumflex" unicode="&#x177;" horiz-adv-x="562" 
d="M166 519q-8 0 -10 4.5t3 10.5l109 108q5 6 14 6h4q10 0 15 -6l110 -108q5 -6 3 -10.5t-10 -4.5h-29q-10 0 -17 7l-71 69l-73 -69q-7 -7 -17 -7h-31zM539 440q12 0 12 -13v-23q0 -13 -12 -13h-67l-200 -499q-18 -44 -52.5 -68t-78.5 -24q-19 0 -37 3q-21 4 -16 25l2 8
q4 20 23 17q18 -2 26 -2q58 0 81 53l47 104h-7q-19 0 -28 19l-144 364h-65q-12 0 -12 13v23q0 13 12 13h191q13 0 13 -13v-23q0 -13 -13 -13h-62l128 -336l131 336h-60q-12 0 -12 13v23q0 13 12 13h188z" />
    <glyph glyph-name="Ydieresis" unicode="&#x178;" horiz-adv-x="693" 
d="M270 791q-17 0 -31 12.5t-14 28.5t14 28.5t31 12.5q19 0 33 -12.5t14 -28.5t-14 -28.5t-33 -12.5zM442 791q-18 0 -32 12.5t-14 28.5t14 28.5t32 12.5t32 -12.5t14 -28.5t-14 -28.5t-32 -12.5zM676 730q13 0 13 -13v-23q0 -13 -13 -13h-79l-220 -398v-237h81q13 0 13 -12
v-21q0 -13 -13 -13h-224q-13 0 -13 13v21q0 12 13 12h83v235l-222 400h-81q-13 0 -13 13v23q0 13 13 13h228q13 0 13 -13v-23q0 -13 -13 -13h-77l182 -341l183 341h-77q-13 0 -13 13v23q0 13 13 13h223z" />
    <glyph glyph-name="Zacute" unicode="&#x179;" horiz-adv-x="580" 
d="M224 773l-7 10q-6 10 3 16l155 90q9 6 16 -4l17 -31q7 -9 -5 -16l-163 -70q-12 -4 -16 5zM528 112q13 0 13 -12v-79q0 -21 -21 -21h-457q-21 0 -21 21v17q0 7 4 14l427 629h-366v-66q0 -13 -13 -13h-27q-12 0 -12 13v94q0 21 20 21h437q20 0 20 -21v-23q0 -7 -4 -14
l-426 -623h386v51q0 12 13 12h27z" />
    <glyph glyph-name="zacute" unicode="&#x17a;" horiz-adv-x="424" 
d="M316 586q12 7 5 16l-16 30q-7 10 -16 4l-152 -88q-9 -6 -3 -16l7 -10q4 -9 15 -5zM380 20q0 -20 -20 -20h-297q-21 0 -21 20v21q0 5 4 10l263 340h-211v-54q0 -13 -13 -13h-25q-12 0 -12 13v83q0 20 20 20h286q20 0 20 -20v-18q0 -4 -3 -10l-266 -343h225v51q0 13 13 13
h25q12 0 12 -13v-80z" />
    <glyph glyph-name="Zdot" unicode="&#x17b;" horiz-adv-x="580" 
d="M288 793q-18 0 -31.5 12t-13.5 28q0 17 13.5 29t31.5 12q19 0 32.5 -12t13.5 -29t-13.5 -28.5t-32.5 -11.5zM528 112q13 0 13 -12v-79q0 -21 -21 -21h-457q-21 0 -21 21v17q0 7 4 14l427 629h-366v-66q0 -13 -13 -13h-27q-12 0 -12 13v94q0 21 20 21h437q20 0 20 -21v-23
q0 -7 -4 -14l-426 -623h386v51q0 12 13 12h27z" />
    <glyph glyph-name="zdot" unicode="&#x17c;" horiz-adv-x="424" 
d="M174 591q0 18 12.5 30t31.5 12q20 0 33 -12t13 -30t-13 -30t-33 -12q-19 0 -31.5 12t-12.5 30zM380 20q0 -20 -20 -20h-297q-21 0 -21 20v21q0 5 4 10l263 340h-211v-54q0 -13 -13 -13h-25q-12 0 -12 13v83q0 20 20 20h286q20 0 20 -20v-18q0 -4 -3 -10l-266 -343h225v51
q0 13 13 13h25q12 0 12 -13v-80z" />
    <glyph glyph-name="Zcaron" unicode="&#x17d;" horiz-adv-x="580" 
d="M272 776l-109 108q-6 7 -3.5 11.5t10.5 4.5h31q9 0 16 -7l74 -69l71 69q9 7 16 7h30q8 0 10 -4.5t-4 -11.5l-110 -108q-4 -6 -14 -6h-4q-8 0 -14 6zM528 112q13 0 13 -12v-79q0 -21 -21 -21h-457q-21 0 -21 21v17q0 7 4 14l427 629h-366v-66q0 -13 -13 -13h-27
q-12 0 -12 13v94q0 21 20 21h437q20 0 20 -21v-23q0 -7 -4 -14l-426 -623h386v51q0 12 13 12h27z" />
    <glyph glyph-name="zcaron" unicode="&#x17e;" horiz-adv-x="424" 
d="M344 623q6 7 4 11.5t-10 4.5h-30q-7 0 -16 -7l-71 -69l-74 69q-7 7 -16 7h-31q-8 0 -10.5 -4.5t3.5 -11.5l109 -108q6 -6 14 -6h4q10 0 14 6zM380 20q0 -20 -20 -20h-297q-21 0 -21 20v21q0 5 4 10l263 340h-211v-54q0 -13 -13 -13h-25q-12 0 -12 13v83q0 20 20 20h286
q20 0 20 -20v-18q0 -4 -3 -10l-266 -343h225v51q0 13 13 13h25q12 0 12 -13v-80z" />
    <glyph glyph-name="florin" unicode="&#x192;" horiz-adv-x="362" 
d="M278 739q27 0 61 -9q12 -3 9 -16l-6 -21q-3 -12 -16 -9q-24 6 -52 6q-88 0 -88 -100v-158h108q12 0 12 -13v-24q0 -13 -12 -13h-108v-472q0 -53 -30.5 -81.5t-85.5 -28.5q-37 0 -70 16q-11 5 -6 17l10 25q6 10 17 7q21 -9 48 -9q58 0 58 52v474h-64q-13 0 -13 13v24
q0 13 13 13h64v150q0 157 151 157z" />
    <glyph glyph-name="Oogonek" unicode="&#x1ea;" horiz-adv-x="761" 
d="M446 -154q9 -11 -1 -19q-32 -27 -72 -27q-33 0 -58 17.5t-25 54.5q0 52 75 119q-104 4 -174.5 55.5t-102 132.5t-31.5 187t34 189.5t109 135.5t183 52q82 0 144.5 -29.5t100 -81.5t56.5 -118.5t19 -145.5q0 -105 -30 -185t-95.5 -132t-162.5 -60q-25 -24 -37 -36.5
t-25.5 -34t-13.5 -39.5q0 -39 41 -39q21 0 41 13q11 7 19 -2zM119 367q0 -149 67 -236.5t195 -87.5t194 88t66 236t-65 235t-195 87t-196 -87.5t-66 -234.5z" />
    <glyph glyph-name="oogonek" unicode="&#x1eb;" horiz-adv-x="506" 
d="M286 -8q-26 -26 -38 -39t-25 -35t-13 -40q0 -17 10.5 -28t30.5 -11q21 0 41 13q10 7 18 -2l8 -8q8 -8 -1 -18q-34 -27 -74 -27q-32 0 -57 17.5t-25 54.5q0 53 73 122q-186 10 -186 229q0 230 205 230t205 -230q0 -210 -172 -228zM106 220q0 -94 36 -137t111 -43t110.5 43
t35.5 137t-35.5 137t-110.5 43t-111 -43t-36 -137z" />
    <glyph glyph-name="AEacute" unicode="&#x1fc;" horiz-adv-x="1043" 
d="M544 773l-7 10q-6 10 3 16l155 90q9 6 16 -4l17 -31q7 -9 -5 -16l-163 -70q-12 -4 -16 5zM984 113q13 0 13 -13v-79q0 -21 -21 -21h-398q-21 0 -21 21v198h-276l-114 -170h78q13 0 13 -13v-23q0 -13 -13 -13h-237q-13 0 -13 13v23q0 13 13 13h92l430 632h-77
q-13 0 -13 13v23q0 13 13 13h512q21 0 21 -21v-90q0 -13 -13 -13h-31q-13 0 -13 13v62h-315v-304h289q13 0 13 -12v-24q0 -13 -13 -13h-289v-279h331v51q0 13 13 13h26zM315 269h242v361z" />
    <glyph glyph-name="aeacute" unicode="&#x1fd;" horiz-adv-x="743" 
d="M288 522l-7 10q-6 10 3 16l152 88q9 6 16 -4l16 -30q7 -9 -5 -16l-160 -69q-11 -4 -15 5zM519 450q177 0 180 -212v-11q0 -24 -25 -24h-293q6 -87 46.5 -124.5t114.5 -37.5q56 0 109 27q12 7 17 -6l10 -20q5 -12 -4 -18q-59 -34 -131 -34q-135 0 -187 84
q-57 -84 -170 -84q-70 0 -109.5 34t-39.5 96t47 98t130 36h109q0 3 0.5 9t0.5 8v39q0 89 -106 89q-60 0 -113 -28q-12 -6 -18 5l-11 21q-6 11 3 16q63 37 141 37q114 0 149 -65q50 65 150 65zM380 249h264q0 150 -127 150q-55 0 -89 -30.5t-44 -87.5v-12h-2q-1 -3 -1.5 -10
t-0.5 -10zM197 41q84 0 138 77q-13 41 -14 90h-93q-62 0 -97 -22.5t-35 -65.5q0 -79 101 -79z" />
    <glyph glyph-name="Oslashacute" unicode="&#x1fe;" horiz-adv-x="780" 
d="M305 773l-7 10q-6 10 3 16l155 90q9 6 16 -4l17 -31q7 -9 -5 -16l-163 -70q-12 -4 -16 5zM718 721q10 -8 1 -17l-75 -86q66 -95 66 -252q0 -180 -85.5 -278t-241.5 -98q-140 0 -223 80l-62 -70q-8 -8 -18 -2l-19 14q-11 8 -2 18l69 78q-70 96 -70 258q0 180 84 277
t241 97q147 0 230 -85l69 78q8 9 18 2zM122 367q0 -131 48 -211l403 454q-67 76 -188 76q-126 0 -194.5 -83t-68.5 -236zM646 367q0 125 -45 203l-401 -454q67 -72 183 -72q126 0 194.5 84t68.5 239z" />
    <glyph glyph-name="oslashacute" unicode="&#x1ff;" horiz-adv-x="522" 
d="M191 522l-6 10q-7 9 3 16l151 88q9 6 16 -4l17 -30q6 -10 -5 -16l-160 -69q-10 -3 -16 5zM475 444q12 -8 2 -18l-45 -51q38 -56 38 -155q0 -230 -205 -230q-87 0 -137 41l-42 -47q-7 -10 -18 -3l-14 10q-13 7 -3 19l47 53q-39 57 -39 157q0 230 206 230q90 0 139 -43
l38 43q9 11 19 3zM118 220q0 -69 20 -112l229 258q-35 34 -102 34q-75 0 -111 -43t-36 -137zM411 220q0 70 -19 109l-227 -257q35 -32 100 -32q75 0 110.5 43t35.5 137z" />
    <glyph glyph-name="Scommaaccent" unicode="&#x218;" horiz-adv-x="582" 
d="M289 740q96 0 153 -27.5t57 -67.5v-67q0 -13 -13 -13h-30q-13 0 -13 13v74q-61 34 -154 34q-72 0 -116 -35.5t-44 -92.5q0 -49 22.5 -81.5t58.5 -49t79 -28.5t86.5 -25.5t79.5 -34t58.5 -60.5t22.5 -98q0 -87 -68.5 -139t-183.5 -52q-103 0 -165 31.5t-62 80.5v50
q0 19 13 19h33q13 0 13 -19v-70q64 -38 168 -38q86 0 137.5 36.5t51.5 100.5q0 49 -22.5 81t-58.5 48t-79.5 27t-87 24.5t-79.5 34t-58.5 61.5t-22.5 101q0 81 62 131.5t162 50.5zM341 -100q0 25 -13.5 39.5t-36.5 14.5q-20 0 -33 -12.5t-13 -32.5q0 -18 14 -30t32 -12
q-5 -31 -40 -48q-11 -6 -4 -16l4 -6q7 -10 21 -3q69 38 69 106z" />
    <glyph glyph-name="scommaaccent" unicode="&#x219;" horiz-adv-x="430" 
d="M313 383q-44 18 -97 18t-80.5 -19.5t-27.5 -51.5q0 -34 28 -54t68.5 -29.5t81 -21t68.5 -40t28 -75.5q0 -120 -166 -120q-82 0 -125 24t-43 64v22q0 20 19 20h17q20 0 20 -20v-38q46 -22 112 -22q107 0 107 71q0 34 -28 53t-68.5 28t-81 20.5t-68.5 40t-28 75.5
q0 58 42.5 90t126.5 32q77 0 114 -23.5t37 -63.5v-29q0 -19 -20 -19h-17q-19 0 -19 19v49zM257 -96q0 25 -13.5 39.5t-36.5 14.5q-20 0 -33 -12.5t-13 -32.5q0 -18 14 -30t32 -12q-5 -31 -40 -48q-11 -6 -4 -16l4 -6q7 -10 21 -3q69 38 69 106z" />
    <glyph glyph-name="Tcommabelow" unicode="&#x21a;" horiz-adv-x="660" 
d="M31 709q0 21 20 21h557q21 0 21 -21v-120q0 -13 -13 -13h-27q-13 0 -13 13v92h-216v-632h107q13 0 13 -13v-23q0 -13 -13 -13h-276q-13 0 -13 13v23q0 13 13 13h108v632h-216v-92q0 -13 -13 -13h-27q-12 0 -12 13v120zM367 -96q0 25 -13.5 39.5t-36.5 14.5
q-20 0 -33 -12.5t-13 -32.5q0 -18 14 -30t32 -12q-5 -31 -40 -48q-11 -6 -4 -16l4 -6q7 -10 21 -3q69 38 69 106z" />
    <glyph glyph-name="tcommabelow" unicode="&#x21b;" horiz-adv-x="324" 
d="M294 404q0 -13 -12 -13h-121v-291q0 -61 70 -59l47 1q13 0 13 -12v-21q0 -11 -12 -13q-40 -6 -65 -6q-110 0 -110 106v295h-65q-13 0 -13 13v23q0 13 13 13h65l16 126q3 17 20 17h10q12 0 12 -11v-132h120q12 0 12 -13v-23zM234 -96q0 25 -13.5 39.5t-36.5 14.5
q-20 0 -33 -12.5t-13 -32.5q0 -18 14 -30t32 -12q-5 -31 -40 -48q-11 -6 -4 -16l4 -6q7 -10 21 -3q69 38 69 106z" />
    <glyph glyph-name="dotlessj" unicode="&#x237;" horiz-adv-x="249" 
d="M172 -90q0 -53 -29.5 -81.5t-86.5 -28.5q-34 0 -63 13q-18 7 -10 27l3 6q6 17 26 12q21 -7 44 -7q56 0 56 55v485h-80q-13 0 -13 13v23q0 13 13 13h107q33 0 33 -29v-501z" />
    <glyph glyph-name="circumflex" unicode="&#x2c6;" horiz-adv-x="493" 
d="M372 534l-110 108q-5 6 -15 6h-4q-9 0 -14 -6l-109 -108q-5 -6 -3 -10.5t10 -4.5h31q10 0 17 7l73 69l71 -69q7 -7 17 -7h29q8 0 10 4.5t-3 10.5z" />
    <glyph glyph-name="caron" unicode="&#x2c7;" horiz-adv-x="482" 
d="M366 623q6 7 4 11.5t-10 4.5h-30q-7 0 -16 -7l-71 -69l-74 69q-7 7 -16 7h-31q-8 0 -10.5 -4.5t3.5 -11.5l109 -108q6 -6 14 -6h4q10 0 14 6z" />
    <glyph glyph-name="breve" unicode="&#x2d8;" horiz-adv-x="483" 
d="M331 623q-4 1 -6 -2.5t-4 -9.5q-10 -57 -80 -57q-29 0 -51.5 15t-27.5 43q-4 12 -10 12l-17 -2q-8 0 -6 -14q8 -40 38.5 -60.5t73.5 -20.5q46 0 77 20.5t38 60.5q1 12 -7 14z" />
    <glyph glyph-name="dotaccent" unicode="&#x2d9;" horiz-adv-x="474" 
d="M194 591q0 18 12.5 30t31.5 12q20 0 33 -12t13 -30t-13 -30t-33 -12q-19 0 -31.5 12t-12.5 30z" />
    <glyph glyph-name="ring" unicode="&#x2da;" horiz-adv-x="488" 
d="M347 577q0 -43 -25.5 -68.5t-74.5 -25.5q-50 0 -75.5 25t-25.5 69q0 43 25.5 67.5t75.5 24.5q49 0 74.5 -25t25.5 -67zM298 577q0 52 -51 52q-52 0 -52 -52q0 -54 52 -54q51 0 51 54z" />
    <glyph glyph-name="ogonek" unicode="&#x2db;" horiz-adv-x="509" 
d="M329 -156q9 -8 -1 -18q-34 -27 -74 -27q-32 0 -57 17.5t-25 54.5q0 13 3 25.5t12 26t14 22t20.5 24.5t19.5 20t24 22t21 19l24 -24q-4 -4 -17 -16.5t-18.5 -18.5t-16 -17t-15.5 -18.5t-11 -17.5t-8.5 -19.5t-2.5 -18.5q0 -17 10.5 -28t30.5 -11q22 0 41 13q10 7 18 -2z
" />
    <glyph glyph-name="tilde" unicode="&#x2dc;" horiz-adv-x="487" 
d="M374 590q-7 9 -17 1q-29 -24 -55 -24q-23 0 -55 18q-34 17 -61 17q-48 0 -87 -37q-8 -8 0 -18l13 -14q8 -10 18 -2q27 24 54 24q18 0 54 -18q36 -16 64 -16q45 0 84 36q10 7 1 18z" />
    <glyph glyph-name="hungarumlaut" unicode="&#x2dd;" horiz-adv-x="512" 
d="M251 639q10 10 -3 17l-29 17q-11 8 -18 -4l-79 -128q-7 -10 4 -17l9 -5q10 -6 17 2zM388 628q10 10 -3 17l-30 18q-12 7 -18 -4l-78 -128q-6 -10 5 -18l9 -5q11 -5 18 3z" />
    <glyph glyph-name="gravecmb" unicode="&#x300;" 
d="M-151 524q6 12 -3 18l-163 95q-10 7 -17 -5l-18 -32q-6 -12 6 -17l171 -73q11 -5 18 5z" />
    <glyph glyph-name="acutecmb" unicode="&#x301;" 
d="M-147 586q12 7 5 16l-16 30q-7 10 -16 4l-152 -88q-9 -6 -3 -16l7 -10q4 -9 15 -5z" />
    <glyph glyph-name="circumflexcmb" unicode="&#x302;" 
d="M-121 534l-110 108q-5 6 -15 6h-4q-9 0 -14 -6l-109 -108q-5 -6 -3 -10.5t10 -4.5h31q10 0 17 7l73 69l71 -69q7 -7 17 -7h29q8 0 10 4.5t-3 10.5z" />
    <glyph glyph-name="tildecmb" unicode="&#x303;" 
d="M-113 590q-7 9 -17 1q-29 -24 -55 -24q-23 0 -55 18q-34 17 -61 17q-48 0 -87 -37q-8 -8 0 -18l13 -14q8 -10 18 -2q27 24 54 24q18 0 54 -18q36 -16 64 -16q45 0 84 36q10 7 1 18z" />
    <glyph glyph-name="macroncmb" unicode="&#x304;" 
d="M-113 528q13 0 13 13v24q0 13 -13 13h-270q-13 0 -13 -13v-24q0 -13 13 -13h270z" />
    <glyph glyph-name="brevecmb" unicode="&#x306;" 
d="M-152 623q-4 1 -6 -2.5t-4 -9.5q-10 -57 -80 -57q-29 0 -51.5 15t-27.5 43q-4 12 -10 12l-17 -2q-8 0 -6 -14q8 -40 38.5 -60.5t73.5 -20.5q46 0 77 20.5t38 60.5q1 12 -7 14z" />
    <glyph glyph-name="dotaccentcmb" unicode="&#x307;" 
d="M-280 591q0 18 12.5 30t31.5 12q20 0 33 -12t13 -30t-13 -30t-33 -12q-19 0 -31.5 12t-12.5 30z" />
    <glyph glyph-name="dieresiscmb" unicode="&#x308;" 
d="M-252 635q19 0 33 -12.5t14 -29.5q0 -16 -14 -28.5t-33 -12.5q-17 0 -31 12.5t-14 28.5t14 29t31 13zM-80 635q18 0 32 -13t14 -29t-14 -28.5t-32 -12.5t-32 12.5t-14 28.5t14 29t32 13z" />
    <glyph glyph-name="ringcmb" unicode="&#x30a;" 
d="M-141 577q0 -43 -25.5 -68.5t-74.5 -25.5q-50 0 -75.5 25t-25.5 69q0 43 25.5 67.5t75.5 24.5q49 0 74.5 -25t25.5 -67zM-190 577q0 52 -51 52q-52 0 -52 -52q0 -54 52 -54q51 0 51 54z" />
    <glyph glyph-name="hungarumlautcmb" unicode="&#x30b;" 
d="M-261 639q10 10 -3 17l-29 17q-11 8 -18 -4l-79 -128q-7 -10 4 -17l9 -5q10 -6 17 2zM-124 628q10 10 -3 17l-30 18q-12 7 -18 -4l-78 -128q-6 -10 5 -18l9 -5q11 -5 18 3z" />
    <glyph glyph-name="caroncmb" unicode="&#x30c;" 
d="M-115 623q6 7 4 11.5t-10 4.5h-30q-7 0 -16 -7l-71 -69l-74 69q-7 7 -16 7h-31q-8 0 -10.5 -4.5t3.5 -11.5l109 -108q6 -6 14 -6h4q10 0 14 6z" />
    <glyph glyph-name="uni0326" unicode="&#x326;" 
d="M-64 -96q0 25 -13.5 39.5t-36.5 14.5q-20 0 -33.5 -12.5t-13.5 -31.5q0 -18 14.5 -30.5t32.5 -12.5q-5 -30 -40 -48q-11 -6 -5 -16l5 -6q8 -10 21 -3q69 38 69 106z" />
    <glyph glyph-name="cedillacmb" unicode="&#x327;" 
d="M-147 -126q0 -76 -106 -76q-52 0 -100 25q-13 6 -6 19l5 12q6 9 18 5q42 -21 84 -21q55 0 55 34q0 41 -89 49q-20 3 -15 21l23 72l41 -10l-17 -49q52 -6 80 -25t27 -56z" />
    <glyph glyph-name="ogonekcmb" unicode="&#x328;" 
d="M-180 -156q8 -8 -1 -18q-34 -27 -74 -27q-32 0 -57 17.5t-25 54.5q0 13 3 25.5t12 26t14 22t20.5 24.5t19.5 20t24 22t21 19l24 -24q-4 -4 -17 -16.5t-18.5 -18.5t-16 -17t-15.5 -18.5t-11 -17.5t-8.5 -19.5t-2.5 -18.5q0 -17 10.5 -28t30.5 -11q22 0 41 13q10 7 18 -2z
" />
    <glyph glyph-name="Wgrave" unicode="&#x1e80;" horiz-adv-x="1053" 
d="M418 852q-12 5 -6 17l18 32q7 12 17 5l163 -95q9 -6 3 -18l-6 -9q-7 -10 -18 -5zM1046 730q12 0 12 -13v-23q0 -13 -12 -13h-79l-187 -663q-6 -18 -24 -18h-46q-18 0 -23 18l-158 609l-159 -609q-4 -18 -23 -18h-46q-17 0 -23 18l-191 663h-78q-12 0 -12 13v23
q0 13 12 13h229q12 0 12 -13v-23q0 -13 -12 -13h-92l177 -633l157 606q4 18 23 18h49q20 0 24 -18l158 -604l174 631h-88q-13 0 -13 13v23q0 13 13 13h226z" />
    <glyph glyph-name="wgrave" unicode="&#x1e81;" horiz-adv-x="784" 
d="M301 583q-12 5 -6 17l18 32q7 12 17 5l163 -95q9 -6 3 -18l-6 -9q-7 -10 -18 -5zM761 440q12 0 12 -13v-23q0 -13 -12 -13h-60l-113 -373q-4 -18 -23 -18h-50q-18 0 -24 18l-99 341l-98 -341q-6 -18 -24 -18h-50q-18 0 -24 18l-107 373h-66q-12 0 -12 13v23q0 13 12 13
h180q13 0 13 -13v-23q0 -13 -13 -13h-57l100 -352l104 356q4 18 23 18h40q19 0 23 -18l102 -354l107 350h-64q-13 0 -13 13v23q0 13 13 13h180z" />
    <glyph glyph-name="Wacute" unicode="&#x1e82;" horiz-adv-x="1053" 
d="M469 773l-7 10q-6 10 3 16l155 90q9 6 16 -4l17 -31q7 -9 -5 -16l-163 -70q-12 -4 -16 5zM1046 730q12 0 12 -13v-23q0 -13 -12 -13h-79l-187 -663q-6 -18 -24 -18h-46q-18 0 -23 18l-158 609l-159 -609q-4 -18 -23 -18h-46q-17 0 -23 18l-191 663h-78q-12 0 -12 13v23
q0 13 12 13h229q12 0 12 -13v-23q0 -13 -12 -13h-92l177 -633l157 606q4 18 23 18h49q20 0 24 -18l158 -604l174 631h-88q-13 0 -13 13v23q0 13 13 13h226z" />
    <glyph glyph-name="wacute" unicode="&#x1e83;" horiz-adv-x="784" 
d="M318 522l-7 10q-6 10 3 16l152 88q9 6 16 -4l16 -30q7 -9 -5 -16l-160 -69q-11 -4 -15 5zM761 440q12 0 12 -13v-23q0 -13 -12 -13h-60l-113 -373q-4 -18 -23 -18h-50q-18 0 -24 18l-99 341l-98 -341q-6 -18 -24 -18h-50q-18 0 -24 18l-107 373h-66q-12 0 -12 13v23
q0 13 12 13h180q13 0 13 -13v-23q0 -13 -13 -13h-57l100 -352l104 356q4 18 23 18h40q19 0 23 -18l102 -354l107 350h-64q-13 0 -13 13v23q0 13 13 13h180z" />
    <glyph glyph-name="Wdieresis" unicode="&#x1e84;" horiz-adv-x="1053" 
d="M446 791q-17 0 -31 12.5t-14 28.5t14 28.5t31 12.5q19 0 33 -12.5t14 -28.5t-14 -28.5t-33 -12.5zM618 791q-18 0 -32 12.5t-14 28.5t14 28.5t32 12.5t32 -12.5t14 -28.5t-14 -28.5t-32 -12.5zM1046 730q12 0 12 -13v-23q0 -13 -12 -13h-79l-187 -663q-6 -18 -24 -18h-46
q-18 0 -23 18l-158 609l-159 -609q-4 -18 -23 -18h-46q-17 0 -23 18l-191 663h-78q-12 0 -12 13v23q0 13 12 13h229q12 0 12 -13v-23q0 -13 -12 -13h-92l177 -633l157 606q4 18 23 18h49q20 0 24 -18l158 -604l174 631h-88q-13 0 -13 13v23q0 13 13 13h226z" />
    <glyph glyph-name="wdieresis" unicode="&#x1e85;" horiz-adv-x="784" 
d="M309 552q-17 0 -31 12.5t-14 28.5t14 29t31 13q19 0 33 -12.5t14 -29.5q0 -16 -14 -28.5t-33 -12.5zM481 552q-18 0 -32 12.5t-14 28.5t14 29t32 13t32 -13t14 -29t-14 -28.5t-32 -12.5zM761 440q12 0 12 -13v-23q0 -13 -12 -13h-60l-113 -373q-4 -18 -23 -18h-50
q-18 0 -24 18l-99 341l-98 -341q-6 -18 -24 -18h-50q-18 0 -24 18l-107 373h-66q-12 0 -12 13v23q0 13 12 13h180q13 0 13 -13v-23q0 -13 -13 -13h-57l100 -352l104 356q4 18 23 18h40q19 0 23 -18l102 -354l107 350h-64q-13 0 -13 13v23q0 13 13 13h180z" />
    <glyph glyph-name="Ygrave" unicode="&#x1ef2;" horiz-adv-x="693" 
d="M243 852q-12 5 -6 17l18 32q7 12 17 5l163 -95q9 -6 3 -18l-6 -9q-7 -10 -18 -5zM676 730q13 0 13 -13v-23q0 -13 -13 -13h-79l-220 -398v-237h81q13 0 13 -12v-21q0 -13 -13 -13h-224q-13 0 -13 13v21q0 12 13 12h83v235l-222 400h-81q-13 0 -13 13v23q0 13 13 13h228
q13 0 13 -13v-23q0 -13 -13 -13h-77l182 -341l183 341h-77q-13 0 -13 13v23q0 13 13 13h223z" />
    <glyph glyph-name="ygrave" unicode="&#x1ef3;" horiz-adv-x="562" 
d="M189 583q-12 5 -6 17l18 32q7 12 17 5l163 -95q9 -6 3 -18l-6 -9q-7 -10 -18 -5zM539 440q12 0 12 -13v-23q0 -13 -12 -13h-67l-200 -499q-18 -44 -52.5 -68t-78.5 -24q-19 0 -37 3q-21 4 -16 25l2 8q4 20 23 17q18 -2 26 -2q58 0 81 53l47 104h-7q-19 0 -28 19l-144 364
h-65q-12 0 -12 13v23q0 13 12 13h191q13 0 13 -13v-23q0 -13 -13 -13h-62l128 -336l131 336h-60q-12 0 -12 13v23q0 13 12 13h188z" />
    <glyph glyph-name="Ytilde" unicode="&#x1ef8;" horiz-adv-x="693" 
d="M228 801l-13 14q-8 10 0 18q39 37 87 37q27 0 61 -17q32 -18 55 -18q26 0 55 24q10 8 17 -1l13 -15q9 -11 -1 -18q-39 -36 -84 -36q-28 0 -64 16q-36 18 -54 18q-27 0 -54 -24q-10 -8 -18 2zM676 730q13 0 13 -13v-23q0 -13 -13 -13h-79l-220 -398v-237h81q13 0 13 -12
v-21q0 -13 -13 -13h-224q-13 0 -13 13v21q0 12 13 12h83v235l-222 400h-81q-13 0 -13 13v23q0 13 13 13h228q13 0 13 -13v-23q0 -13 -13 -13h-77l182 -341l183 341h-77q-13 0 -13 13v23q0 13 13 13h223z" />
    <glyph glyph-name="ytilde" unicode="&#x1ef9;" horiz-adv-x="562" 
d="M154 533l-13 14q-8 10 0 18q39 37 87 37q27 0 61 -17q32 -18 55 -18q26 0 55 24q10 8 17 -1l13 -15q9 -11 -1 -18q-39 -36 -84 -36q-28 0 -64 16q-36 18 -54 18q-27 0 -54 -24q-10 -8 -18 2zM539 440q12 0 12 -13v-23q0 -13 -12 -13h-67l-200 -499q-18 -44 -52.5 -68
t-78.5 -24q-19 0 -37 3q-21 4 -16 25l2 8q4 20 23 17q18 -2 26 -2q58 0 81 53l47 104h-7q-19 0 -28 19l-144 364h-65q-12 0 -12 13v23q0 13 12 13h191q13 0 13 -13v-23q0 -13 -13 -13h-62l128 -336l131 336h-60q-12 0 -12 13v23q0 13 12 13h188z" />
    <glyph glyph-name="endash" unicode="&#x2013;" horiz-adv-x="511" 
d="M426 230q20 0 20 20v14q0 20 -20 20h-342q-19 0 -19 -20v-14q0 -20 19 -20h342z" />
    <glyph glyph-name="emdash" unicode="&#x2014;" horiz-adv-x="796" 
d="M695 230q19 0 19 20v14q0 20 -19 20h-593q-20 0 -20 -20v-14q0 -20 20 -20h593z" />
    <glyph glyph-name="quoteleft" unicode="&#x2018;" horiz-adv-x="207" 
d="M102 541q-25 0 -39.5 16t-14.5 43q0 68 74 113q18 10 24 -1l5 -7q7 -11 -5 -18q-38 -19 -44 -52q20 0 35.5 -13.5t15.5 -32.5q0 -20 -14.5 -34t-36.5 -14z" />
    <glyph glyph-name="quoteright" unicode="&#x2019;" horiz-adv-x="205" 
d="M88 552q-15 -7 -22 3l-5 7q-6 11 5 17q35 18 42 50q-19 0 -34 13t-15 31q0 20 13.5 33.5t35.5 13.5q23 0 37.5 -15.5t14.5 -41.5q0 -72 -72 -111z" />
    <glyph glyph-name="quotesinglbase" unicode="&#x201a;" horiz-adv-x="225" 
d="M90 -92q-15 -7 -23 3l-5 8q-6 11 6 18q38 19 44 51q-21 0 -36 13.5t-15 32.5q0 21 14 35t37 14q24 0 39 -16.5t15 -42.5q0 -74 -76 -116z" />
    <glyph glyph-name="quotedblleft" unicode="&#x201c;" horiz-adv-x="351" 
d="M273 717q10 6 17 -5l5 -8q6 -11 -5 -17q-38 -20 -43 -52q20 0 35 -13.5t15 -32.5q0 -21 -14.5 -34.5t-37.5 -13.5q-24 0 -39 16t-15 43q0 78 82 117zM128 717q11 5 18 -5l5 -7q7 -11 -5 -18q-38 -19 -44 -52q20 0 35.5 -13.5t15.5 -32.5q0 -20 -14.5 -34t-36.5 -14
q-25 0 -39.5 16t-14.5 43q0 73 80 117z" />
    <glyph glyph-name="quotedblright" unicode="&#x201d;" horiz-adv-x="349" 
d="M108 723q25 0 39.5 -16t14.5 -43q0 -78 -81 -117q-10 -6 -17 5l-5 7q-7 12 6 18q37 20 43 52q-20 0 -35.5 13.5t-15.5 32.5q0 20 14.5 34t36.5 14zM252 723q25 0 39.5 -16t14.5 -43q0 -78 -80 -117q-12 -6 -18 4l-5 8q-6 12 5 18q38 20 44 52q-20 0 -35.5 13.5
t-15.5 32.5q0 20 14.5 34t36.5 14z" />
    <glyph glyph-name="quotedblbase" unicode="&#x201e;" horiz-adv-x="369" 
d="M90 -92q-15 -7 -23 3l-5 8q-6 11 6 18q38 19 44 51q-21 0 -36 13.5t-15 32.5q0 21 14 35t37 14q24 0 39 -16.5t15 -42.5q0 -74 -76 -116zM234 -91q-16 -8 -23 2l-5 8q-6 10 5 18q37 18 44 51q-20 0 -35.5 13.5t-15.5 32.5q0 21 14.5 35t36.5 14q24 0 39 -16.5t15 -42.5
q0 -75 -75 -115z" />
    <glyph glyph-name="dagger" unicode="&#x2020;" horiz-adv-x="481" 
d="M405 598q13 0 13 -13v-27q0 -13 -13 -13h-138v-344q0 -12 -13 -12h-25q-13 0 -13 12v344h-141q-12 0 -12 13v27q0 13 12 13h141v124q0 12 13 12h25q13 0 13 -12v-124h138z" />
    <glyph glyph-name="daggerdbl" unicode="&#x2021;" horiz-adv-x="482" 
d="M407 386q13 0 13 -13v-29q0 -13 -13 -13h-139v-129q0 -13 -13 -13h-29q-13 0 -13 13v129h-137q-13 0 -13 13v29q0 13 13 13h137v155h-138q-13 0 -13 13v29q0 12 13 12h138v125q0 13 13 13h29q13 0 13 -13v-125h137q13 0 13 -12v-29q0 -13 -13 -13h-137v-155h139z" />
    <glyph glyph-name="bullet" unicode="&#x2022;" horiz-adv-x="384" 
d="M91 215q0 40 29 65t75 25q43 0 70 -25t27 -65q0 -42 -27 -68.5t-70 -26.5q-46 0 -75 26.5t-29 68.5z" />
    <glyph glyph-name="ellipsis" unicode="&#x2026;" horiz-adv-x="601" 
d="M104 -10q-20 0 -34 14.5t-14 34.5q0 18 14 31.5t34 13.5q19 0 33.5 -13.5t14.5 -31.5q0 -20 -14 -34.5t-34 -14.5zM300 -10q-20 0 -34 14.5t-14 34.5q0 18 14.5 31.5t33.5 13.5t33.5 -13.5t14.5 -31.5q0 -20 -14 -34.5t-34 -14.5zM497 -10q-19 0 -33 14.5t-14 34.5
q0 18 14 31.5t33 13.5q20 0 34.5 -13.5t14.5 -31.5q0 -20 -14.5 -34.5t-34.5 -14.5z" />
    <glyph glyph-name="perthousand" unicode="&#x2030;" horiz-adv-x="994" 
d="M77 18q-9 -12 3 -18l19 -10q9 -5 17 5l505 644q8 12 -4 18l-19 10q-9 6 -16 -4zM187 668q-64 0 -99 -43t-35 -122t35 -122.5t99 -43.5t99 43t35 123q0 79 -34.5 122t-99.5 43zM187 623q40 0 61 -31t21 -89q0 -59 -21 -90t-61 -31q-39 0 -60.5 31.5t-21.5 89.5t21.5 89
t60.5 31zM511 321q-65 0 -100 -43t-35 -122t35 -122.5t99 -43.5t99 43t35 123q0 79 -34.5 122t-98.5 43zM824 321q-65 0 -99.5 -43t-34.5 -122q0 -80 34.5 -123t98.5 -43q65 0 100 43.5t35 122.5t-34.5 122t-99.5 43zM510 276q40 0 61 -31t21 -89q0 -59 -21 -90t-61 -31
q-39 0 -60 31.5t-21 89.5t21 89t60 31zM823 276q83 0 83 -120q0 -121 -83 -121q-39 0 -60 31.5t-21 89.5t21 89t60 31z" />
    <glyph glyph-name="guilsinglleft" unicode="&#x2039;" horiz-adv-x="256" 
d="M156 38q-16 0 -23 13l-86 137q-7 14 0 28l86 136q7 13 23 13h23q11 0 15 -6.5t-2 -17.5l-90 -139l90 -140q6 -10 2 -17t-15 -7h-23z" />
    <glyph glyph-name="guilsinglright" unicode="&#x203a;" horiz-adv-x="256" 
d="M77 38q-11 0 -15 7t2 17l90 140l-90 139q-6 11 -2 17.5t15 6.5h22q15 0 24 -13l85 -136q8 -14 0 -28l-85 -137q-9 -13 -24 -13h-22z" />
    <glyph glyph-name="fraction" unicode="&#x2044;" horiz-adv-x="582" 
d="M561 649q9 11 -4 18l-19 10q-10 7 -17 -3l-507 -651q-8 -11 4 -18l18 -11q11 -7 18 3z" />
    <glyph glyph-name="Euro" unicode="&#x20ac;" horiz-adv-x="739" 
d="M661 77l17 -25q8 -9 -4 -18q-78 -44 -203 -44q-135 0 -214.5 68.5t-101.5 199.5h-92q-13 0 -13 13v26q0 12 13 12h85q-2 36 -2 56q0 15 2 45h-85q-13 0 -13 13v26q0 13 13 13h91q22 135 106.5 206.5t223.5 71.5q111 0 191 -44q10 -8 3 -18l-17 -25q-7 -11 -17 -4
q-62 37 -158 37q-110 0 -179 -58t-89 -166h292q13 0 13 -13v-26q0 -13 -13 -13h-299q-1 -14 -1 -45q0 -38 2 -56h298q13 0 13 -12v-26q0 -13 -13 -13h-291q43 -214 256 -214q104 0 169 37q11 6 17 -4z" />
    <glyph glyph-name="trademark" unicode="&#x2122;" horiz-adv-x="611" 
d="M223 740q15 0 15 -15v-38q0 -10 -9 -10h-12q-10 0 -10 10v21h-38v-143h22q10 0 10 -9v-14q0 -9 -10 -9h-85q-9 0 -9 9v14q0 9 9 9h22v143h-37v-21q0 -10 -9 -10h-12q-10 0 -10 10v38q0 15 15 15h148zM533 566q9 0 9 -9v-13q0 -11 -9 -11h-84q-9 0 -9 10v11q0 12 9 12h21
l-12 135l-49 -141q-3 -7 -11 -7h-19q-8 0 -11 7l-47 140l-14 -134h23q10 0 10 -9v-14q0 -10 -10 -10h-79q-9 0 -9 10v14q0 9 9 9h20l13 139h-17q-9 0 -9 9v17q0 9 9 9h62q13 0 17 -12l43 -130l42 130q4 12 17 12h66q10 0 10 -9v-17q0 -9 -10 -9h-21l14 -139h26z" />
    <glyph glyph-name="minus" unicode="&#x2212;" horiz-adv-x="413" 
d="M328 359q12 0 12 -13v-26q0 -13 -12 -13h-243q-13 0 -13 13v26q0 13 13 13h243z" />
    <glyph glyph-name="approxequal" unicode="&#x2248;" horiz-adv-x="448" 
d="M366 431q-10 11 -20 1q-32 -25 -58 -25q-23 0 -59 18q-32 18 -66 18q-53 0 -92 -39q-10 -8 0 -20l14 -16q10 -12 19 -1q31 25 57 25q19 0 59 -18q36 -19 68 -19q47 0 90 40q11 8 1 19zM366 298q-9 13 -20 2q-32 -25 -58 -25q-19 0 -59 18q-32 18 -66 18q-53 0 -92 -39
q-9 -9 0 -20l14 -16q10 -11 19 -2q30 26 57 26q16 0 59 -19q38 -18 68 -18q46 0 90 39q10 9 1 20z" />
    <glyph glyph-name="notequal" unicode="&#x2260;" horiz-adv-x="422" 
d="M335 376h-89l-20 -85h109q13 0 13 -13v-26q0 -13 -13 -13h-121l-16 -65q-2 -11 -13 -11h-31q-14 0 -11 14l14 62h-74q-12 0 -12 13v26q0 13 12 13h87l20 85h-107q-12 0 -12 13v25q0 13 12 13h120l14 61q4 11 14 11h29q14 0 11 -15l-13 -57h77q13 0 13 -13v-25
q0 -13 -13 -13z" />
    <glyph glyph-name="apple" unicode="&#xf8ff;" horiz-adv-x="1437" 
d="M684 583q0 26 17.5 44t43.5 18t44 -18t18 -44t-18 -43.5t-44 -17.5q-25 0 -43 18t-18 43zM212 270h-119q0 78 2.5 156.5t4.5 117.5l2 40h100q9 -139 10 -314zM687 270q0 92 3 147h-61l3 -65q4 -4 15 -4q6 0 10.5 1t6.5 3l1 1v-74q-10 -15 -66 -15q-84 0 -84 66q0 15 2 50
t2 37h-22v79l119 30l1 -17h178q10 -64 10 -239h-118zM321 265q-92 0 -92 113q0 136 137 136q119 0 121 -117v-127h-83l-8 61q-6 -33 -23.5 -49.5t-51.5 -16.5zM1083 270h-114q0 26 1 56t1 40q0 26 -15 26q-18 0 -18 -26q0 -10 1.5 -40t1.5 -56h-114q0 78 2.5 137.5t4.5 80.5
l3 21h80q6 -45 6 -76q0 9 4.5 25t24.5 36t52 20q41 0 57.5 -24.5t18.5 -81.5zM1344 384q0 -55 -31 -87t-93 -32q-60 0 -90.5 33t-30.5 86q0 130 122 130q70 0 96.5 -34.5t26.5 -95.5zM383 375q0 26 -23 26t-23 -26q0 -30 23 -30t23 30zM1244 375q0 26 -23 26q-21 0 -21 -26
q0 -30 21 -30q23 0 23 30zM421 238h104q10 -60 10 -147q0 -73 -35 -107t-114 -34q-32 0 -54.5 4t-29.5 8l-7 5v83q20 -16 69 -16q15 0 26.5 3t16.5 7t8 8t3 7l1 3q-13 -11 -49 -11q-90 0 -90 83v13h-55l3 -65q4 -4 15 -4q6 0 10.5 1t6.5 3l1 1v-73q-10 -15 -67 -15
q-82 0 -82 64q0 46 3 88h-18v80l117 29l-1 -17l177 -1v-119q0 -27 14 -27q17 0 17 27v119zM726 243q37 0 58.5 -29t21.5 -83q0 -136 -137 -136q1 -13 1 -39h-119q0 76 2.5 146.5t4.5 103.5l3 32h78q7 -52 7 -76q2 11 6.5 25.5t24 35t49.5 20.5zM1063 129l-3 -37h-124
q9 -18 49 -18q16 0 30 3t20 6l6 3v-75q-20 -16 -78 -16q-69 0 -105 31t-36 86q0 64 32.5 97.5t93.5 33.5q54 0 84.5 -30t30.5 -84zM971 109q3 27 -17 27q-23 0 -23 -27h40zM663 72q4 0 10 1.5t16.5 11t10.5 25.5q0 22 -20 22q-22 0 -22 -32zM1068 13q0 -10 6.5 -16.5
t16.5 -6.5q9 0 15.5 6.5t6.5 16.5t-6.5 16t-15.5 6q-10 0 -16.5 -6t-6.5 -16zM1073 13q0 7 5.5 12.5t12.5 5.5t12 -5.5t5 -12.5t-5 -12.5t-12 -5.5t-12.5 5.5t-5.5 12.5zM1101 2l-6 9q7 0 7 7t-10 7h-11v-23h5v9h5l4 -9h6zM1092 15h-6v6h5q6 0 6 -2q0 -4 -5 -4z" />
    <glyph glyph-name="N.001" horiz-adv-x="815" 
d="M753 730q13 0 13 -13v-23q0 -13 -13 -13h-83v-660q0 -21 -21 -21h-44q-17 0 -25 14l-374 659v-624h82q13 0 13 -13v-23q0 -13 -13 -13h-223q-13 0 -13 13v23q0 13 13 13h83v632h-83q-13 0 -13 13v23q0 13 13 13h151q18 0 25 -14l372 -654v619h-83q-13 0 -13 13v23
q0 13 13 13h223z" />
    <glyph glyph-name="i.loclTRK" horiz-adv-x="294" 
d="M110 591q0 18 13 30t32 12t32.5 -12t13.5 -30t-13.5 -30t-32.5 -12t-32 12t-13 30zM34 36q0 13 13 13h81v342h-81q-13 0 -13 13v23q0 13 13 13h108q33 0 33 -31v-360h77q13 0 13 -13v-23q0 -13 -13 -13h-218q-13 0 -13 13v23z" />
    <glyph glyph-name="n.001" horiz-adv-x="608" 
d="M583 49q12 0 12 -13v-23q0 -13 -12 -13h-108q-33 0 -33 30v286q0 83 -100 83q-83 0 -154 -70v-280h81q13 0 13 -13v-23q0 -13 -13 -13h-221q-12 0 -12 13v23q0 13 12 13h80v342h-82q-12 0 -12 13v23q0 13 12 13h106q32 0 32 -28v-34q30 34 76 53t94 19q148 0 148 -130
v-271h81z" />
    <glyph glyph-name="caroncomb.alt" 
d="M-263 804q-14 -2 -10 -15q20 -95 -10 -167q-7 -13 6 -17l11 -2q12 -2 18 7q52 81 29 189q-3 11 -15 10z" />
    <glyph glyph-name="uni0308.case" 
d="M-219 873q19 0 33 -12.5t14 -28.5t-14 -28.5t-33 -12.5q-17 0 -31 12.5t-14 28.5t14 28.5t31 12.5zM-47 873q18 0 32 -12.5t14 -28.5t-14 -28.5t-32 -12.5t-32 12.5t-14 28.5t14 28.5t32 12.5z" />
    <glyph glyph-name="uni0307.case" 
d="M-174 833q0 17 13.5 29t31.5 12q19 0 32.5 -12t13.5 -29t-13.5 -28.5t-32.5 -11.5q-18 0 -31.5 12t-13.5 28z" />
    <glyph glyph-name="gravecomb.case" 
d="M-33 794q6 11 -4 17l-162 95q-11 6 -17 -5l-18 -32q-6 -12 5 -17l172 -73q11 -5 17 5z" />
    <glyph glyph-name="acutecomb.case" 
d="M-41 838q12 7 5 17l-17 30q-7 10 -16 5l-154 -90q-10 -7 -4 -17l7 -10q6 -8 16 -5z" />
    <glyph glyph-name="uni030B.case" 
d="M-120 902q8 10 -3 18l-29 17q-12 7 -18 -4l-79 -128q-8 -11 4 -18l9 -5q11 -5 17 3zM17 891q11 11 -3 18l-30 18q-12 7 -18 -5l-78 -127q-6 -12 5 -18l9 -5q10 -6 18 3z" />
    <glyph glyph-name="uni0302.case" 
d="M-260 792q-5 -6 -3 -10.5t10 -4.5h29q8 0 17 7l71 69l73 -69q8 -7 17 -7h31q8 0 10 4.5t-3 10.5l-109 108q-5 6 -14 6h-4q-10 0 -14 -6z" />
    <glyph glyph-name="uni030C.case" 
d="M-8 884q6 6 3.5 10.5t-10.5 4.5h-29q-10 0 -16 -7l-71 -69l-74 69q-7 7 -16 7h-31q-9 0 -11 -4.5t4 -10.5l108 -108q5 -6 15 -6h4q9 0 14 6z" />
    <glyph glyph-name="uni0306.case" 
d="M-41 880q-6 0 -9 -12q-11 -57 -80 -57q-30 0 -52 14.5t-28 43.5q-3 12 -9 12l-17 -2q-9 -2 -6 -14q7 -40 37.5 -60.5t74.5 -20.5q46 0 76.5 20.5t37.5 60.5q1 13 -7 13z" />
    <glyph glyph-name="uni030A.case" 
d="M-33 855q0 -43 -25.5 -68t-74.5 -25t-74.5 25t-25.5 68t25 68t75 25t75 -25t25 -68zM-81 855q0 53 -52 53q-51 0 -51 -53t51 -53q52 0 52 53z" />
    <glyph glyph-name="tildecomb.case" 
d="M-3 858q-7 9 -17 1q-26 -24 -55 -24q-20 0 -54 17q-32 18 -62 18q-47 0 -86 -37q-10 -10 0 -18l12 -15q8 -9 18 -1q28 23 54 23q17 0 55 -17q34 -17 63 -17q43 0 84 36q10 8 2 18z" />
    <glyph glyph-name="uni0304.case" 
d="M-2 819q13 0 13 12v24q0 13 -13 13h-269q-13 0 -13 -13v-24q0 -12 13 -12h269z" />
    <glyph glyph-name="caron.alt" horiz-adv-x="502" 
d="M239 804q-14 -2 -10 -15q20 -95 -10 -167q-7 -13 6 -17l11 -2q12 -2 18 7q52 81 29 189q-3 11 -15 10z" />
    <glyph glyph-name="acute.case" horiz-adv-x="267" 
d="M226 838q12 7 5 17l-17 30q-6 10 -16 5l-154 -90q-10 -7 -4 -17l7 -10q6 -8 16 -5z" />
    <glyph glyph-name="breve.case" horiz-adv-x="264" 
d="M223 880q-6 0 -9 -12q-11 -57 -80 -57q-30 0 -52 14.5t-28 43.5q-3 12 -9 12l-17 -2q-9 -2 -6 -14q7 -40 37.5 -60.5t74.5 -20.5q46 0 76.5 20.5t37.5 60.5q1 13 -7 13z" />
    <glyph glyph-name="caron.case" horiz-adv-x="268" 
d="M260 884q6 6 3.5 10.5t-10.5 4.5h-29q-10 0 -16 -7l-71 -69l-74 69q-7 7 -16 7h-31q-9 0 -11 -4.5t4 -10.5l108 -108q5 -6 15 -6h4q9 0 14 6z" />
    <glyph glyph-name="circumflex.case" horiz-adv-x="268" 
d="M8 792q-5 -6 -3 -10.5t10 -4.5h29q8 0 17 7l71 69l73 -69q8 -7 17 -7h31q8 0 10 4.5t-3 10.5l-109 108q-5 6 -14 6h-4q-10 0 -14 -6z" />
    <glyph glyph-name="dieresis.case" horiz-adv-x="266" 
d="M47 873q19 0 33 -12.5t14 -28.5t-14 -28.5t-33 -12.5q-17 0 -31 12.5t-14 28.5t14 28.5t31 12.5zM219 873q18 0 32 -12.5t14 -28.5t-14 -28.5t-32 -12.5t-32 12.5t-14 28.5t14 28.5t32 12.5z" />
    <glyph glyph-name="dotaccent.case" horiz-adv-x="257" 
d="M83 833q0 17 13.5 29t31.5 12q19 0 32.5 -12t13.5 -29t-13.5 -28.5t-32.5 -11.5q-18 0 -31.5 12t-13.5 28z" />
    <glyph glyph-name="grave.case" horiz-adv-x="267" 
d="M234 794q6 11 -4 17l-162 95q-11 6 -17 -5l-18 -32q-6 -12 5 -17l172 -73q11 -5 17 5z" />
    <glyph glyph-name="hungarumlaut.case" horiz-adv-x="265" 
d="M145 902q8 10 -3 18l-29 17q-12 7 -18 -4l-79 -128q-8 -11 4 -18l9 -5q11 -5 17 3zM282 891q11 11 -3 18l-30 18q-12 7 -18 -5l-78 -127q-6 -12 5 -18l9 -5q11 -6 18 3z" />
    <glyph glyph-name="macron.case" horiz-adv-x="275" 
d="M273 819q13 0 13 12v24q0 13 -13 13h-269q-13 0 -13 -13v-24q0 -12 13 -12h269z" />
    <glyph glyph-name="ring.case" horiz-adv-x="268" 
d="M235 855q0 -43 -25.5 -68t-74.5 -25t-74.5 25t-25.5 68t25 68t75 25t75 -25t25 -68zM187 855q0 53 -52 53q-51 0 -51 -53t51 -53q52 0 52 53z" />
    <glyph glyph-name="tilde.case" horiz-adv-x="269" 
d="M266 858q-7 9 -17 1q-26 -24 -55 -24q-20 0 -54 17q-32 18 -62 18q-47 0 -86 -37q-10 -10 0 -18l12 -15q8 -9 18 -1q28 23 54 23q17 0 55 -17q34 -17 63 -17q43 0 84 36q10 8 2 18z" />
    <glyph glyph-name="IJacute" horiz-adv-x="832" 
d="M286 842q13 6 5 15l-17 30q-5 10 -15 5l-152 -88q-9 -7 -3 -17l6 -9q5 -9 16 -5zM766 842q12 5 5 15l-17 30q-6 10 -16 5l-151 -88q-9 -8 -3 -17l6 -9q5 -9 16 -5zM540 718q0 13 12 13h236q13 0 13 -13v-23q0 -13 -13 -13h-86v-514q0 -82 -50.5 -130t-133.5 -48
q-66 0 -118 22q-22 8 -19 30l2 8q7 27 34 14q52 -22 102 -22q58 0 90.5 33.5t32.5 95.5v511h-90q-12 0 -12 13v23zM54 717q0 13 13 13h230q13 0 13 -13v-23q0 -13 -13 -13h-84v-632h84q13 0 13 -13v-23q0 -13 -13 -13h-230q-13 0 -13 13v23q0 13 13 13h85v632h-85
q-13 0 -13 13v23z" />
    <glyph glyph-name="ijacute" horiz-adv-x="539" 
d="M220 586q11 6 5 16l-17 30q-7 10 -16 4l-151 -88q-10 -7 -4 -16l7 -10q4 -9 15 -5zM466 586q12 7 5 16l-17 30q-5 10 -15 4l-152 -88q-9 -6 -3 -16l6 -10q6 -8 16 -5zM158 433q33 0 33 -30v-354h89v-49h-244v49h95v336h-94v48h121zM434 433q33 0 33 -29v-494
q0 -53 -29 -81.5t-86 -28.5q-44 0 -81 22l20 48q26 -13 60 -13q57 0 57 52v476h-95v48h121z" />
    </font>
</defs>
</svg>
